<?xml version="1.0" encoding="UTF-8" standalone="no"?>
<!-- Created with Inkscape (http://www.inkscape.org/) -->

<svg
   width="786.63"
   height="786.63"
   viewBox="0 0 208.12918 208.12919"
   version="1.1"
   id="svg5"
   inkscape:version="1.2.2 (732a01da63, 2022-12-09)"
   sodipodi:docname="barley.svg"
   xmlns:inkscape="http://www.inkscape.org/namespaces/inkscape"
   xmlns:sodipodi="http://sodipodi.sourceforge.net/DTD/sodipodi-0.dtd"
   xmlns="http://www.w3.org/2000/svg"
   xmlns:svg="http://www.w3.org/2000/svg">
  <sodipodi:namedview
     id="namedview7"
     pagecolor="#ffffff"
     bordercolor="#666666"
     borderopacity="1.0"
     inkscape:showpageshadow="2"
     inkscape:pageopacity="0.0"
     inkscape:pagecheckerboard="0"
     inkscape:deskcolor="#d1d1d1"
     inkscape:document-units="mm"
     showgrid="false"
     inkscape:zoom="0.76880612"
     inkscape:cx="364.85142"
     inkscape:cy="265.34648"
     inkscape:window-width="1920"
     inkscape:window-height="1017"
     inkscape:window-x="1912"
     inkscape:window-y="-8"
     inkscape:window-maximized="1"
     inkscape:current-layer="layer1" />
  <defs
     id="defs2" />
  <g
     inkscape:label="Layer 1"
     inkscape:groupmode="layer"
     id="layer1"
     transform="translate(31.965484,-77.961665)">
    <g
       id="g417"
       transform="translate(3.6399023e-5,33.698334)">
      <path
         d="m 65.551388,210.11283 c -0.27014,0.006 -0.531283,0.0974 -0.745067,0.2622 -0.635264,-1.67851 -1.618456,-2.75695 -2.723091,-2.75695 -1.104636,0 -2.087827,1.07844 -2.722827,2.75695 -0.214048,-0.16483 -0.475192,-0.25664 -0.745332,-0.2622 -1.254918,0 -2.271977,2.12249 -2.271977,4.74028 H 67.82363 c 0,-2.61779 -1.017323,-4.74028 -2.272242,-4.74028 z"
         id="path4"
         fill="#5ec418"
         style="stroke-width:0.264583" />
      <path
         d="m 37.240971,210.11283 c -0.270139,0.006 -0.531283,0.0974 -0.745066,0.2622 -0.635265,-1.67851 -1.618457,-2.75695 -2.723092,-2.75695 -1.104635,0 -2.087827,1.07844 -2.722827,2.75695 -0.214048,-0.16483 -0.475192,-0.25664 -0.745331,-0.2622 -1.254919,0 -2.271977,2.12249 -2.271977,4.74028 h 11.480535 c 0,-2.61779 -1.017323,-4.74028 -2.272242,-4.74028 z"
         id="path6"
         fill="#5ec418"
         style="stroke-width:0.264583" />
      <path
         d="m 147.30764,210.11283 c -0.27014,0.006 -0.53128,0.0974 -0.74507,0.2622 -0.63526,-1.67851 -1.61845,-2.75695 -2.72309,-2.75695 -1.10463,0 -2.08783,1.07844 -2.72283,2.75695 -0.21404,-0.16483 -0.47519,-0.25664 -0.74533,-0.2622 -1.25492,0 -2.27197,2.12249 -2.27197,4.74028 h 11.48053 c 0,-2.61779 -1.01732,-4.74028 -2.27224,-4.74028 z"
         id="path8"
         fill="#5ec418"
         style="stroke-width:0.264583" />
      <rect
         x="18.938421"
         y="214.39246"
         width="153.72292"
         height="0.52916664"
         id="rect10"
         fill="#3f3d56"
         style="stroke-width:0.264583" />
      <path
         d="M 65.177796,214.85311 H 48.934761 v -0.26459 c 0,-3.78645 1.482196,-6.75269 3.374496,-6.75269 0.31115,0.002 0.617008,0.0812 0.890058,0.23072 0.948531,-2.32172 2.343415,-3.64543 3.856831,-3.64543 1.513417,0 2.9083,1.32371 3.856832,3.64543 0.27305,-0.14949 0.578908,-0.2286 0.890058,-0.23072 1.8923,0 3.37476,2.96624 3.37476,6.75269 z m -15.711223,-0.52917 h 15.179411 c -0.06588,-3.25649 -1.340909,-5.95894 -2.842948,-5.95894 -0.313796,0.008 -0.616744,0.11588 -0.864658,0.3085 l -0.280194,0.20293 -0.122502,-0.32358 c -0.866511,-2.2897 -2.134659,-3.60257 -3.479536,-3.60257 -1.344877,0 -2.613025,1.31287 -3.479535,3.60257 l -0.122238,0.32358 -0.280193,-0.20293 c -0.24818,-0.19262 -0.551127,-0.30057 -0.864923,-0.3085 -1.501775,0 -2.776802,2.70245 -2.842684,5.95894 z"
         id="path12"
         fill="#3f3d56"
         style="stroke-width:0.264583" />
      <path
         d="m 159.89863,214.85311 h -16.2433 v -0.26459 c 0,-3.78645 1.48246,-6.75269 3.37476,-6.75269 0.31115,0.002 0.61701,0.0812 0.89006,0.23072 0.94853,-2.32172 2.34368,-3.64543 3.8571,-3.64543 1.51288,0 2.90803,1.32371 3.85656,3.64543 0.27305,-0.14949 0.57891,-0.2286 0.89006,-0.23072 1.8923,0 3.37476,2.96624 3.37476,6.75269 z m -15.71149,-0.52917 h 15.17968 c -0.0659,-3.25649 -1.34091,-5.95894 -2.84295,-5.95894 -0.31379,0.008 -0.61674,0.11588 -0.86466,0.3085 l -0.28019,0.20293 -0.1225,-0.32358 c -0.86651,-2.2897 -2.13466,-3.60257 -3.47927,-3.60257 -1.34488,0 -2.61356,1.31287 -3.4798,3.60257 l -0.12251,0.32358 -0.28019,-0.20293 c -0.24791,-0.19262 -0.55086,-0.30057 -0.86466,-0.3085 -1.50204,0 -2.77706,2.70245 -2.84295,5.95894 z"
         id="path14"
         fill="#3f3d56"
         style="stroke-width:0.264583" />
      <path
         d="M 38.984046,214.85311 H 22.741011 v -0.26459 c 0,-3.78645 1.482196,-6.75269 3.374496,-6.75269 0.31115,0.002 0.617008,0.0812 0.890058,0.23072 0.948531,-2.32172 2.343415,-3.64543 3.856831,-3.64543 1.513417,0 2.9083,1.32371 3.856832,3.64543 0.27305,-0.14949 0.578908,-0.2286 0.890058,-0.23072 1.8923,0 3.37476,2.96624 3.37476,6.75269 z m -15.711223,-0.52917 h 15.179411 c -0.06588,-3.25649 -1.340909,-5.95894 -2.842948,-5.95894 -0.313796,0.008 -0.616744,0.11588 -0.864658,0.3085 l -0.280194,0.20293 -0.122502,-0.32358 c -0.866246,-2.2897 -2.134659,-3.60257 -3.479536,-3.60257 -1.344877,0 -2.613025,1.31287 -3.479535,3.60257 l -0.122238,0.32358 -0.280193,-0.20293 c -0.247915,-0.19262 -0.551127,-0.30057 -0.864923,-0.3085 -1.501775,0 -2.776802,2.70245 -2.842684,5.95894 z"
         id="path16"
         fill="#3f3d56"
         style="stroke-width:0.264583" />
      <ellipse
         cx="-48.128891"
         cy="146.96832"
         rx="0.16882262"
         ry="0.45019367"
         id="ellipse18"
         fill="#3f3d56"
         transform="rotate(-57.656008)"
         style="stroke-width:0.264583" />
      <path
         d="m 98.060478,118.06509 v 0 c 0.23283,-0.36751 0.7194,-0.47678 1.08717,-0.24421 l 9.984052,6.32248 c 0.36751,0.23283 0.47678,0.7194 0.24395,1.08717 v 0 z"
         id="path20"
         fill="#5ec418"
         style="stroke-width:0.264583" />
      <path
         d="m 97.116448,118.39952 0.31406,-0.49609 c 0.15901,-0.25109 0.49159,-0.32597 0.74295,-0.16669 l 11.367552,7.19852 c 0.29766,0.18838 0.38603,0.58234 0.19765,0.87974 l -0.26088,0.41222 z"
         id="path22"
         fill="#3f3d56"
         style="stroke-width:0.264583" />
      <rect
         x="-47.622478"
         y="146.96832"
         width="0.22509684"
         height="0.90038466"
         id="rect24"
         fill="#d0cde1"
         transform="rotate(-57.656008)"
         style="stroke-width:0.264583" />
      <rect
         x="-47.622478"
         y="148.20631"
         width="0.22509684"
         height="0.90038466"
         id="rect26"
         fill="#d0cde1"
         transform="rotate(-57.656008)"
         style="stroke-width:0.264583" />
      <circle
         cx="114.92212"
         cy="89.13533"
         r="7.0963631"
         id="circle28"
         fill="#ffb8b8"
         style="stroke-width:0.264583" />
      <path
         d="m 115.35497,94.154717 c 0,0 3.46154,5.452083 2.59609,7.009813 -0.86545,1.55774 -3.54806,5.79837 -3.54806,5.79837 0,0 11.9425,-8.827289 10.38489,-10.731204 0,0 -3.54832,-3.028924 -3.72136,-4.932839 z"
         id="path30"
         fill="#ffb8b8"
         style="stroke-width:0.264583" />
      <path
         d="m 126.77837,202.84526 -0.34634,-5.27897 -5.53853,0.77867 0.34608,5.45227 z"
         id="polygon32"
         fill="#ffb8b8"
         style="stroke-width:0.264583" />
      <path
         d="m 101.33524,205.96549 0.86545,-3.20199 -5.971382,-1.38456 -1.03849,3.46154 z"
         id="polygon34"
         fill="#ffb8b8"
         style="stroke-width:0.264583" />
      <path
         d="m 121.456,124.91991 0.5625,3.85128 c 0,0 7.09639,14.10599 -0.6059,21.02934 l -10.38489,25.61617 c 0,0 -1.12501,13.32732 -4.41352,18.00066 l -3.02895,10.64445 -9.000332,-2.33653 7.269432,-23.1066 c 0,0 -0.0865,-9.69248 0.95197,-11.85597 l 4.58682,-20.59676 0.82206,-22.02471 c 0,0 12.1158,-0.86545 13.24081,0.77867 z"
         id="path36"
         fill="#2f2e41"
         style="stroke-width:0.264583" />
      <path
         d="m 120.11456,148.93032 3.8944,26.30831 c 0,0 2.07698,10.12534 2.25002,14.01974 0.17303,3.89441 0.86545,8.91382 0.86545,8.91382 l -7.00987,1.12501 -6.92335,-33.92409 z"
         id="path38"
         fill="#2f2e41"
         style="stroke-width:0.264583" />
      <path
         d="m 127.81684,200.07586 -5.53878,0.34634 c 0,0 -2.0619,-2.3368 -1.93966,-1.125 0.1225,1.21152 -1.17581,6.31745 -1.17581,6.31745 l -4.327,4.50003 c 0,0 -8.56747,0 -7.26943,4.15396 1.29805,4.15396 11.42339,0.69242 11.42339,0.69242 l 3.8944,-1.29805 v 1.73064 c 0,0 6.66353,0.95197 6.83684,-0.77893 0.17303,-1.73064 0,-3.89414 -0.25983,-4.06744 -0.25955,-0.17304 -1.64412,-10.47142 -1.64412,-10.47142 z"
         id="path40"
         fill="#2f2e41"
         style="stroke-width:0.264583" />
      <path
         d="m 102.21946,204.34783 c 0,0 -3.958962,-0.31671 -4.513262,-0.7919 -0.5543,-0.47519 -1.42531,-2.45454 -2.61302,-1.18772 -1.18772,1.26683 -5.46338,5.38427 -5.46338,5.38427 l -4.11745,1.97962 c 0,0 -5.38401,-1.42531 -7.20513,1.90023 -1.82139,3.32555 8.94715,6.80932 11.71839,5.70098 l 3.48404,-0.71279 -0.15849,1.66291 c 0,0 4.90934,1.1086 5.62187,-0.31671 0.71252,-1.42531 1.266822,-3.08795 0.95012,-3.56314 -0.31671,-0.47493 2.296312,-10.05575 2.296312,-10.05575 z"
         id="path42"
         fill="#2f2e41"
         style="stroke-width:0.264583" />
      <path
         d="m 131.45143,105.05896 -6.1304,13.5636 -2.66224,5.88804 -0.98636,2.18361 -14.2793,-0.17304 1.47108,-9.9523 c -2.07698,-5.36549 2.85591,-7.52899 2.85591,-7.52899 l 4.15396,-4.42674 v 0.70538 c 0,0 4.06744,-4.84632 5.88486,-7.615635 1.81743,-2.769314 4.327,-1.730798 4.327,-1.730798 4.327,-0.432726 5.36549,9.086873 5.36549,9.086873 z"
         id="path44"
         fill="#575a89"
         style="stroke-width:0.264583" />
      <path
         d="m 125.32103,118.62256 -2.66224,5.88804 c -0.85487,-1.59914 -1.50574,-3.41048 -1.50574,-4.48019 0,-2.94243 2.94243,-1.38456 2.94243,-1.38456 0,0 -2.37993,-13.02438 -2.37993,-16.91881 0,-2.5867 2.15662,8.89294 3.60548,16.89552 z"
         id="path46"
         opacity="0.2"
         style="stroke-width:0.264583" />
      <path
         d="m 122.97047,119.59782 -12.89473,-0.25956 c 0,0 -9.43293,0.77867 -8.0481,4.58655 1.38457,3.80789 8.91355,0 8.91355,0 l 15.05823,2.33654 z"
         id="path48"
         fill="#ffb8b8"
         style="stroke-width:0.264583" />
      <path
         d="m 125.39353,96.664395 c 0,0 -4.50004,0.346181 -4.50004,4.240505 0,3.89424 4.06744,17.74095 4.06744,17.74095 0,0 -2.94243,-1.55787 -2.94243,1.38456 0,2.94243 4.93289,11.5099 5.452,5.79834 0,0 7.44273,3.63459 7.00988,-3.20198 -0.4326,-6.83684 -5.10593,-21.28915 -5.10593,-21.28915 0,0 -0.51912,-4.932834 -3.98092,-4.673225 z"
         id="path50"
         fill="#575a89"
         style="stroke-width:0.264583" />
      <path
         d="m 115.15812,88.363464 c -0.49689,-0.480934 -0.48763,-1.29204 -0.88821,-1.855841 -0.62891,-0.885296 -1.93833,-0.82595 -3.01334,-0.673126 -0.7194,0.0707 -1.42637,0.234976 -2.10317,0.488659 -0.60166,0.247597 -1.05225,0.763481 -1.21655,1.393084 -0.0841,0.348774 -0.26988,-0.640768 -0.45879,-1.922357 -0.39714,-2.683007 0.98345,-5.315476 3.41656,-6.513975 0.0143,-0.0069 0.028,-0.01374 0.0421,-0.02048 1.21603,-0.590966 2.49,-1.112872 3.83408,-1.25953 1.34408,-0.146659 2.77839,0.118877 3.83249,0.965533 0.4818,0.386958 0.87365,0.883726 1.39038,1.222922 0.90752,0.595961 2.05687,0.624827 3.13532,0.750478 1.22766,0.10623 2.41882,0.471672 3.49488,1.072197 1.08188,0.611876 1.8788,1.625441 2.218,2.820935 0.34158,1.391047 -0.21564,3.035432 -1.58327,3.639079 -0.23892,0.100489 -0.45058,0.255905 -0.61833,0.453575 -1.12289,1.372897 0.69004,2.124075 0.95303,3.319093 0.21934,0.997161 -0.73951,1.899972 -1.72297,2.174531 -1.9087,0.47445 -3.8862,-0.470271 -4.71646,-2.253377 -0.33734,-0.782241 -0.41407,-1.647534 -0.50588,-2.494439 -0.10504,-0.969433 -2.64769,-2.725315 -0.93107,-1.404541 0.33311,0.249476 0.59558,0.581369 0.76147,0.963031 0.52202,1.25005 -0.56171,1.959583 -1.143,2.852076 -0.64558,1.024096 -0.65246,2.326111 -0.018,3.357033 -1.53458,-0.859261 -2.24102,-2.688484 -1.68249,-4.356179 0.15611,-0.424154 0.39238,-0.816266 0.53393,-1.245368 0.22093,-0.669607 0.0257,-1.970828 -0.96255,-1.707012 -0.70538,0.188278 -1.30837,0.949907 -2.04814,0.233998 z"
         id="path52"
         fill="#2f2e41"
         style="stroke-width:0.264583" />
      <circle
         cx="172.98863"
         cy="176.32951"
         r="3.175"
         id="circle54"
         fill="#d0cde1"
         style="stroke-width:0.264583" />
      <circle
         cx="165.05113"
         cy="186.64825"
         r="5.2916665"
         id="circle56"
         fill="#5ec418"
         style="stroke-width:0.264583" />
      <rect
         x="166.21582"
         y="189.82326"
         width="0.52916664"
         height="24.606251"
         id="rect58"
         fill="#3f3d56"
         style="stroke-width:0.264583" />
      <path
         d="m 166.63863,190.35243 c -3.06864,0 -5.55625,-2.48762 -5.55625,-5.55625 0,-3.06864 2.48761,-5.55625 5.55625,-5.55625 3.06863,0 5.55625,2.48761 5.55625,5.55625 -0.003,3.06705 -2.48894,5.55281 -5.55625,5.55625 z m 0,-10.58334 c -2.77628,0 -5.02709,2.25055 -5.02709,5.02709 0,2.77627 2.25081,5.02708 5.02709,5.02708 2.77653,0 5.02708,-2.25081 5.02708,-5.02708 -0.003,-2.77522 -2.25187,-5.02391 -5.02708,-5.02709 z"
         id="path60"
         fill="#3f3d56"
         style="stroke-width:0.264583" />
      <path
         d="m 171.13654,180.82743 c -1.89944,0 -3.43958,-1.54014 -3.43958,-3.43959 0,-1.8997 1.54014,-3.43958 3.43958,-3.43958 1.89971,0 3.43959,1.53988 3.43959,3.43958 -0.002,1.89865 -1.54067,3.43747 -3.43959,3.43959 z m 0,-6.35 c -1.60734,0 -2.91041,1.30307 -2.91041,2.91041 0,1.60735 1.30307,2.91042 2.91041,2.91042 1.60735,0 2.91042,-1.30307 2.91042,-2.91042 -0.002,-1.60681 -1.3036,-2.90856 -2.91042,-2.91041 z"
         id="path62"
         fill="#3f3d56"
         style="stroke-width:0.264583" />
      <g
         id="g1024"
         transform="matrix(0.16899572,0,0,0.16899572,-58.268823,108.29323)">
        <path
           d="m 783.645,501.975 c 0,16.57 -140.58,30 -314,30 -28.66,0 -56.42,-0.37 -82.8,-1.06 -101.74,-2.64 -182.91,-10.06 -215.6,-19.58 -10.12,-2.94 -15.6,-6.09 -15.6,-9.36 0,-3.74 7.18,-7.33 20.29,-10.63 7.65,-1.93 17.319,-3.76 28.76,-5.48 0.09,-0.01 0.19,-0.02 0.29,-0.04 26.2,-3.91 61.649,-7.21 103.399,-9.59 47.131,-2.71 102.301,-4.26 161.261,-4.26 173.42,0 314,13.43 314,30 z"
           id="path6-9"
           fill="#f0f0f0" />
        <g
           id="g1103"
           transform="matrix(1.21669,0,0,1.21669,37.6593,-73.9131)">
          <path
             d="m 271.399,367.851 c 0,0 -67.63,40.8 57,103.62 0,0 27.46,-51 -2.9,-92.57 -12.201,-16.778 -35.022,-21.779 -53.12,-11.64 z"
             id="path61"
             fill="#5ec418" />
          <path
             d="m 272.179,366.991 c 0,0 57.88,44.28 56.25,104.48"
             id="path63"
             stroke="#535461"
             stroke-miterlimit="10"
             fill="none" />
          <path
             d="m 331.709,472.211 c 0,0 -21.19,-72 4,-124.91 10.697,-22.146 13.922,-47.165 9.19,-71.3 -2.335,-11.438 -5.712,-22.638 -10.09,-33.46"
             id="path65"
             stroke="#535461"
             stroke-width="2"
             stroke-miterlimit="10"
             fill="none" />
          <path
             d="m 350.439,209.071 c 0,8.82 -16,34.39 -16,34.39 0,0 -16,-25.57 -16,-34.39 0.584,-8.817 8.205,-15.491 17.022,-14.907 8.003,0.53 14.377,6.904 14.908,14.907 z"
             id="path67"
             fill="#5ec418" />
          <path
             d="m 376.829,257.921 c -4.79,7.4 -32.09,20.19 -32.09,20.19 0,0 0.5,-30.14 5.29,-37.54 4.308,-7.715 14.055,-10.477 21.77,-6.169 7.715,4.308 10.477,14.055 6.169,21.77 -0.341,0.611 -0.722,1.198 -1.139,1.759 z"
             id="path69"
             fill="#5ec418" />
          <path
             d="m 375.679,341.381 c -7.87,4 -37.89,1.23 -37.89,1.23 0,0 15.64,-25.77 23.52,-29.74 7.612,-4.488 17.421,-1.955 21.908,5.657 4.488,7.612 1.956,17.421 -5.657,21.909 -0.602,0.355 -1.228,0.671 -1.871,0.944 z"
             id="path71"
             fill="#5ec418" />
          <path
             d="m 360.589,404.341 c -7.09,5.24 -37.14,7.61 -37.14,7.61 0,0 11.06,-28 18.15,-33.29 7.419,-4.8 17.324,-2.677 22.124,4.743 4.378,6.767 3.039,15.734 -3.124,20.927 z"
             id="path73"
             fill="#5ec418" />
          <path
             d="m 311.219,279.771 c 6.32,6.14 35.79,12.51 35.79,12.51 0,0 -7.22,-29.27 -13.54,-35.41 -6.734,-5.723 -16.831,-4.904 -22.554,1.829 -5.191,6.108 -5.061,15.115 0.304,21.071 z"
             id="path75"
             fill="#5ec418" />
          <path
             d="m 294.499,353.671 c 7.87,4 37.89,1.23 37.89,1.23 0,0 -15.64,-25.78 -23.47,-29.75 -7.613,-4.488 -17.421,-1.955 -21.909,5.657 -4.488,7.612 -1.955,17.421 5.657,21.909 0.602,0.355 1.228,0.671 1.872,0.944 z"
             id="path77"
             fill="#5ec418" />
          <path
             d="m 288.099,427.681 c 7.09,5.24 37.14,7.61 37.14,7.61 0,0 -11.06,-28 -18.15,-33.29 -6.758,-5.693 -16.852,-4.831 -22.546,1.927 -5.693,6.758 -4.83,16.852 1.928,22.546 0.513,0.432 1.054,0.832 1.618,1.197 z"
             id="path79"
             fill="#5ec418" />
          <path
             d="m 350.439,209.071 c 0,8.82 -16,34.39 -16,34.39 0,0 -16,-25.57 -16,-34.39 0.584,-8.817 8.205,-15.491 17.022,-14.907 8.003,0.53 14.377,6.904 14.908,14.907 z"
             id="path81"
             opacity="0.25" />
          <path
             d="m 376.829,257.921 c -4.79,7.4 -32.09,20.19 -32.09,20.19 0,0 0.5,-30.14 5.29,-37.54 4.308,-7.715 14.055,-10.477 21.77,-6.169 7.715,4.308 10.477,14.055 6.169,21.77 -0.341,0.611 -0.722,1.198 -1.139,1.759 z"
             id="path83"
             opacity="0.25" />
          <path
             d="m 375.679,341.381 c -7.87,4 -37.89,1.23 -37.89,1.23 0,0 15.64,-25.77 23.52,-29.74 7.612,-4.488 17.421,-1.955 21.908,5.657 4.488,7.612 1.956,17.421 -5.657,21.909 -0.602,0.355 -1.228,0.671 -1.871,0.944 z"
             id="path85"
             opacity="0.25" />
          <path
             d="m 360.589,404.341 c -7.09,5.24 -37.14,7.61 -37.14,7.61 0,0 11.06,-28 18.15,-33.29 7.419,-4.8 17.324,-2.677 22.124,4.743 4.378,6.767 3.039,15.734 -3.124,20.927 z"
             id="path87"
             opacity="0.25" />
          <path
             d="m 311.219,279.771 c 6.32,6.14 35.79,12.51 35.79,12.51 0,0 -7.22,-29.27 -13.54,-35.41 -6.734,-5.723 -16.831,-4.904 -22.554,1.829 -5.191,6.108 -5.061,15.115 0.304,21.071 z"
             id="path89"
             opacity="0.25" />
          <path
             d="m 294.499,353.671 c 7.87,4 37.89,1.23 37.89,1.23 0,0 -15.64,-25.78 -23.47,-29.75 -7.613,-4.488 -17.421,-1.955 -21.909,5.657 -4.488,7.612 -1.955,17.421 5.657,21.909 0.602,0.355 1.228,0.671 1.872,0.944 z"
             id="path91"
             opacity="0.25" />
          <path
             d="m 288.099,427.681 c 7.09,5.24 37.14,7.61 37.14,7.61 0,0 -11.06,-28 -18.15,-33.29 -6.758,-5.693 -16.852,-4.831 -22.546,1.927 -5.693,6.758 -4.83,16.852 1.928,22.546 0.513,0.432 1.054,0.832 1.618,1.197 z"
             id="path93"
             opacity="0.25" />
          <path
             d="m 380.749,473.581 c 0,0 -21.19,-72 4,-124.91 10.697,-22.146 13.922,-47.165 9.19,-71.3 -2.335,-11.438 -5.712,-22.638 -10.09,-33.46"
             id="path95"
             stroke="#535461"
             stroke-width="2"
             stroke-miterlimit="10"
             fill="none" />
          <path
             d="m 399.479,210.441 c 0,8.82 -16,34.39 -16,34.39 0,0 -16,-25.57 -16,-34.39 0.584,-8.817 8.205,-15.491 17.022,-14.907 8.003,0.53 14.377,6.904 14.908,14.907 z"
             id="path97"
             fill="#5ec418" />
          <path
             d="m 425.919,259.291 c -4.79,7.4 -32.09,20.19 -32.09,20.19 0,0 0.5,-30.14 5.29,-37.54 4.308,-7.715 14.055,-10.477 21.77,-6.169 7.715,4.308 10.477,14.055 6.169,21.77 -0.341,0.611 -0.722,1.198 -1.139,1.759 z"
             id="path99"
             fill="#5ec418" />
          <path
             d="m 424.719,342.771 c -7.87,4 -37.89,1.23 -37.89,1.23 0,0 15.64,-25.77 23.52,-29.74 7.603,-4.502 17.417,-1.987 21.919,5.617 4.502,7.604 1.987,17.417 -5.617,21.919 -0.621,0.368 -1.267,0.693 -1.932,0.974 z"
             id="path101"
             fill="#5ec418" />
          <path
             d="m 409.619,405.711 c -7.09,5.24 -37.14,7.61 -37.14,7.61 0,0 11.06,-28 18.15,-33.29 7.419,-4.8 17.324,-2.677 22.124,4.743 4.378,6.767 3.039,15.734 -3.124,20.927 z"
             id="path103"
             fill="#5ec418" />
          <path
             d="m 360.249,281.181 c 6.32,6.14 35.79,12.51 35.79,12.51 0,0 -7.22,-29.27 -13.54,-35.41 -6.734,-5.723 -16.831,-4.904 -22.554,1.829 -5.191,6.108 -5.061,15.115 0.304,21.071 z"
             id="path105"
             fill="#5ec418" />
          <path
             d="m 343.539,355.041 c 7.87,4 37.89,1.23 37.89,1.23 0,0 -15.64,-25.78 -23.51,-29.75 -8.134,-3.454 -17.528,0.34 -20.982,8.473 -3.138,7.389 -0.314,15.96 6.602,20.037 z"
             id="path107"
             fill="#5ec418" />
          <path
             d="m 337.139,429.051 c 7.09,5.24 37.14,7.61 37.14,7.61 0,0 -11.06,-28 -18.15,-33.29 -6.758,-5.693 -16.852,-4.831 -22.546,1.927 -5.693,6.758 -4.83,16.852 1.928,22.546 0.513,0.432 1.054,0.832 1.618,1.197 z"
             id="path109"
             fill="#5ec418" />
          <rect
             x="324.41901"
             y="469.741"
             width="62"
             height="5"
             id="rect115"
             fill="#5ec418" />
        </g>
      </g>
    </g>
  </g>
</svg>
