<?xml version="1.0" encoding="UTF-8" standalone="no"?>
<svg
   data-name="Layer 1"
   width="611.03101"
   height="611.03101"
   viewBox="0 0 611.03101 611.03102"
   version="1.1"
   id="svg74"
   sodipodi:docname="cow-trial.svg"
   inkscape:version="1.2.2 (732a01da63, 2022-12-09)"
   xml:space="preserve"
   xmlns:inkscape="http://www.inkscape.org/namespaces/inkscape"
   xmlns:sodipodi="http://sodipodi.sourceforge.net/DTD/sodipodi-0.dtd"
   xmlns="http://www.w3.org/2000/svg"
   xmlns:svg="http://www.w3.org/2000/svg"><defs
     id="defs78"><inkscape:path-effect
       effect="fillet_chamfer"
       id="path-effect10514"
       is_visible="true"
       lpeversion="1"
       nodesatellites_param="F,0,0,1,0,10,0,1 @ F,0,0,1,0,10,0,1 @ F,0,0,1,0,10,0,1 @ F,0,0,1,0,10,0,1"
       unit="px"
       method="auto"
       mode="F"
       radius="10"
       chamfer_steps="1"
       flexible="false"
       use_knot_distance="true"
       apply_no_radius="true"
       apply_with_radius="true"
       only_selected="false"
       hide_knots="false" /><inkscape:path-effect
       effect="fillet_chamfer"
       id="path-effect7390"
       is_visible="true"
       lpeversion="1"
       nodesatellites_param="F,0,0,1,0,15,0,8 @ F,0,0,1,0,15,0,8 @ F,0,0,1,0,15,0,8 @ F,0,0,1,0,15,0,8 @ F,0,0,1,0,15,0,8 @ F,0,0,1,0,15,0,8 @ F,0,0,1,0,15,0,8 @ F,0,0,1,0,15,0,8"
       unit="px"
       method="auto"
       mode="F"
       radius="15"
       chamfer_steps="8"
       flexible="false"
       use_knot_distance="true"
       apply_no_radius="true"
       apply_with_radius="true"
       only_selected="false"
       hide_knots="false" /><inkscape:path-effect
       effect="fillet_chamfer"
       id="path-effect5927"
       is_visible="true"
       lpeversion="1"
       nodesatellites_param="F,0,0,1,0,15,0,8 @ F,0,0,1,0,15,0,8 @ F,0,0,1,0,15,0,8 @ F,0,0,1,0,15,0,8 @ F,0,0,1,0,15,0,8 @ F,0,0,1,0,15,0,8 @ F,0,0,1,0,15,0,8 @ F,0,0,1,0,15,0,8"
       unit="px"
       method="auto"
       mode="F"
       radius="15"
       chamfer_steps="8"
       flexible="false"
       use_knot_distance="true"
       apply_no_radius="true"
       apply_with_radius="true"
       only_selected="false"
       hide_knots="false" /><inkscape:path-effect
       effect="fillet_chamfer"
       id="path-effect3102"
       is_visible="true"
       lpeversion="1"
       nodesatellites_param="F,0,0,1,0,7,0,1 @ F,0,0,1,0,7,0,1 @ F,0,0,1,0,7,0,1 @ F,0,0,1,0,7,0,1"
       unit="px"
       method="auto"
       mode="F"
       radius="7"
       chamfer_steps="1"
       flexible="false"
       use_knot_distance="true"
       apply_no_radius="true"
       apply_with_radius="true"
       only_selected="false"
       hide_knots="false" /><inkscape:path-effect
       effect="fillet_chamfer"
       id="path-effect3047"
       is_visible="true"
       lpeversion="1"
       nodesatellites_param="F,0,0,1,0,7,0,1 @ F,0,0,1,0,7,0,1 @ F,0,0,1,0,7,0,1 @ F,0,0,1,0,7,0,1"
       unit="px"
       method="auto"
       mode="F"
       radius="7"
       chamfer_steps="1"
       flexible="false"
       use_knot_distance="true"
       apply_no_radius="true"
       apply_with_radius="true"
       only_selected="false"
       hide_knots="false" /><inkscape:path-effect
       effect="fillet_chamfer"
       id="path-effect3043"
       is_visible="true"
       lpeversion="1"
       nodesatellites_param="F,0,0,1,0,15,0,8 @ F,0,0,1,0,15,0,8 @ F,0,0,1,0,15,0,8 @ F,0,0,1,0,15,0,8 @ F,0,0,1,0,15,0,8 @ F,0,0,1,0,15,0,8 @ F,0,0,1,0,15,0,8 @ F,0,0,1,0,15,0,8"
       unit="px"
       method="auto"
       mode="F"
       radius="15"
       chamfer_steps="8"
       flexible="false"
       use_knot_distance="true"
       apply_no_radius="true"
       apply_with_radius="true"
       only_selected="false"
       hide_knots="false" /></defs><sodipodi:namedview
     id="namedview76"
     pagecolor="#ffffff"
     bordercolor="#666666"
     borderopacity="1.0"
     inkscape:showpageshadow="2"
     inkscape:pageopacity="0.0"
     inkscape:pagecheckerboard="0"
     inkscape:deskcolor="#d1d1d1"
     showgrid="true"
     inkscape:zoom="3.663714"
     inkscape:cx="267.6246"
     inkscape:cy="437.12473"
     inkscape:window-width="1718"
     inkscape:window-height="1368"
     inkscape:window-x="1706"
     inkscape:window-y="0"
     inkscape:window-maximized="0"
     inkscape:current-layer="svg74"><inkscape:grid
       type="xygrid"
       id="grid514"
       originx="-170.04325"
       originy="-50.000004" /></sodipodi:namedview><path
     style="fill:#2f2e41;fill-opacity:1;stroke:none;stroke-width:1px;stroke-linecap:butt;stroke-linejoin:miter;stroke-opacity:1"
     d="m 220.99513,411.8446 12.92324,86.1549 a 8.1604173,8.1604173 40.846266 0 0 8.03833,6.94983 l 6.0001,0.0234 a 7.7046825,7.7046825 137.96695 0 0 7.69648,-6.93798 l 8.60694,-86.06948 a 6.3459492,6.3459492 47.904918 0 0 -6.30346,-6.97739 l -31.00002,-0.0537 a 6.0177612,6.0177612 130.78424 0 0 -5.96161,6.91043 z"
     id="path3045"
     inkscape:path-effect="#path-effect3047"
     inkscape:original-d="m 219.95675,404.92205 15,100 20,0.0779 10,-100 z"
     sodipodi:nodetypes="ccccc" /><path
     style="fill:#2f2e41;fill-opacity:1;stroke:none;stroke-width:1px;stroke-linecap:butt;stroke-linejoin:miter;stroke-opacity:1"
     d="m 389.22457,411.8446 -12.92324,86.1549 a 8.1599321,8.1599321 139.15542 0 1 -8.03833,6.94942 l -6.3063,0.0242 a 7.7051374,7.7051374 42.034738 0 1 -7.69648,-6.93839 l -8.60694,-86.06948 a 6.3458746,6.3458746 132.09542 0 1 6.30346,-6.97731 l 31.30622,-0.0539 a 6.0178324,6.0178324 49.216096 0 1 5.96161,6.91051 z"
     id="path3098"
     inkscape:path-effect="#path-effect3102"
     inkscape:original-d="m 390.26295,404.92205 -15,100 -20.3062,0.0779 -10,-100 z"
     sodipodi:nodetypes="ccccc" /><path
     d="m 611.03094,506.10895 h -204.6977 v -37.93971 a 54.17414,54.17414 0 0 1 54.01271,-54.212 h 150.685 z"
     fill="#f2f2f2"
     id="path2" /><rect
     x="446.36636"
     y="360.32794"
     width="19.638889"
     height="72.51284"
     fill="#f2f2f2"
     id="rect4" /><rect
     x="591.39209"
     y="360.32794"
     width="19.638889"
     height="72.51284"
     fill="#f2f2f2"
     id="rect6" /><rect
     x="462.98392"
     y="366.37067"
     width="134.4509"
     height="1.51068"
     fill="#f2f2f2"
     id="rect8" /><rect
     x="462.98392"
     y="390.54163"
     width="134.4509"
     height="1.51068"
     fill="#f2f2f2"
     id="rect10" /><rect
     x="462.98392"
     y="402.62711"
     width="134.4509"
     height="1.51068"
     fill="#f2f2f2"
     id="rect12" /><path
     d="m 0,413.95722 h 150.685 a 54.17414,54.17414 0 0 1 54.01271,54.212 v 37.93973 H 0 Z"
     fill="#f2f2f2"
     id="path18" /><rect
     x="-164.66455"
     y="-432.84076"
     width="19.638889"
     height="72.51284"
     transform="scale(-1)"
     fill="#f2f2f2"
     id="rect20" /><rect
     x="-19.638897"
     y="-432.84076"
     width="19.638889"
     height="72.51284"
     transform="scale(-1)"
     fill="#f2f2f2"
     id="rect22" /><rect
     x="-148.04704"
     y="-367.88138"
     width="134.4509"
     height="1.51068"
     transform="scale(-1)"
     fill="#f2f2f2"
     id="rect24" /><rect
     x="-148.04704"
     y="-392.05231"
     width="134.4509"
     height="1.51068"
     transform="scale(-1)"
     fill="#f2f2f2"
     id="rect26" /><rect
     x="-148.04704"
     y="-404.13776"
     width="134.4509"
     height="1.51068"
     transform="scale(-1)"
     fill="#f2f2f2"
     id="rect28" /><path
     style="fill:#3f3d56;fill-opacity:1;stroke:none;stroke-width:1px;stroke-linecap:butt;stroke-linejoin:miter;stroke-opacity:1"
     d="m 164.95675,254.92205 h 280 a 14.411995,14.411995 46.145305 0 1 14.40048,14.98801 l -8.80096,220.02398 a 15.611995,15.611995 136.14531 0 1 -15.59952,14.98801 20.811388,20.811388 35.782526 0 1 -19.74342,-14.23025 l -20.51316,-61.5395 a 20.811388,20.811388 35.782526 0 0 -19.74342,-14.23025 h -140 a 20.811388,20.811388 144.21747 0 0 -19.74342,14.23025 l -20.51316,61.5395 a 20.811388,20.811388 144.21747 0 1 -19.74342,14.23025 15.611995,15.611995 43.854695 0 1 -15.59952,-14.98801 l -8.80096,-220.02398 a 14.411995,14.411995 133.85469 0 1 14.40048,-14.98801 z"
     id="path516"
     sodipodi:nodetypes="ccccccccc"
     inkscape:path-effect="#path-effect3043"
     inkscape:original-d="m 149.95675,254.92205 h 310 l -10,250 h -30 l -30,-90 h -170 l -30,90 h -30 z" /><path
     id="rect5921"
     style="fill:#2f2e41;fill-opacity:1;stroke:none;stroke-linecap:round;stroke-linejoin:round;stroke-opacity:0.996078"
     d="m 219.95675,254.92205 v 30 c 0,30.46997 24.53003,55 55,55 h 60 c 30.46997,0 55,-24.53003 55,-55 v -30 z" /><path
     id="path7384"
     style="fill:#2f2e41;fill-opacity:1;stroke:none;stroke-width:1px;stroke-linecap:butt;stroke-linejoin:miter;stroke-opacity:1"
     d="m 161.66769,338.30682 c -2.91,0.0471 -5.69976,0.19188 -8.36133,0.36328 l 6.05078,151.26367 a 15.611995,15.611995 0 0 0 15.59961,14.98828 20.811388,20.811388 0 0 0 19.74414,-14.23047 l 20.51172,-61.53906 a 20.811388,20.811388 0 0 1 19.74414,-14.23047 h 45 c 0,0 -8.71265,-11.76441 -15,-15 -9.01432,-4.63893 -21.84516,1.02296 -30,-5 -8.99334,-6.64225 -7.47841,-21.72804 -15,-30 -10.57788,-11.63316 -24.88602,-20.66536 -40,-25 -4.80624,-1.37841 -11.63331,-1.72292 -18.28906,-1.61523 z" /><path
     style="fill:#2f2e41;fill-opacity:1;stroke:none;stroke-width:1px;stroke-linecap:butt;stroke-linejoin:miter;stroke-opacity:1"
     d="m 189.95675,204.92205 c 0,0 34.99417,-0.33867 35,0 0.34569,20.07608 -35,20 -35,20 z"
     id="path13813"
     sodipodi:nodetypes="cscc" /><path
     style="fill:#2f2e41;fill-opacity:1;stroke:none;stroke-width:1px;stroke-linecap:butt;stroke-linejoin:miter;stroke-opacity:1"
     d="m 109.95675,204.92205 c 0,0 -34.99417,-0.33867 -35,0 -0.34569,20.07608 35,20 35,20 z"
     id="path13085"
     sodipodi:nodetypes="cscc" /><path
     style="fill:#3f3d56;fill-opacity:1;stroke:none;stroke-width:1px;stroke-linecap:butt;stroke-linejoin:miter;stroke-opacity:1"
     d="m 109.95675,204.92205 80,0 a 8.4712709,8.4712709 49.731161 0 1 8.35601,9.86394 l -16.71202,100.27212 a 11.804604,11.804604 139.73116 0 1 -11.64399,9.86394 l -40,0 a 11.804604,11.804604 40.268839 0 1 -11.64399,-9.86394 L 101.60074,214.78599 a 8.4712709,8.4712709 130.26884 0 1 8.35601,-9.86394 z"
     id="path9786"
     sodipodi:nodetypes="ccccc"
     inkscape:path-effect="#path-effect10514"
     inkscape:original-d="m 99.95675,204.92205 h 100 l -20,120 h -60 z" /><rect
     style="fill:#2f2e41;fill-opacity:1;stroke:none;stroke-linecap:round;stroke-linejoin:round;stroke-opacity:0.996078"
     id="rect10568"
     width="70"
     height="30"
     x="114.95675"
     y="294.92206"
     ry="12.5" /><circle
     style="fill:#f2f2f2;fill-opacity:1;stroke:none;stroke-linecap:round;stroke-linejoin:round;stroke-opacity:0.996078"
     id="path11400"
     cx="134.95676"
     cy="309.92206"
     r="5" /><circle
     style="fill:#f2f2f2;fill-opacity:1;stroke:none;stroke-linecap:round;stroke-linejoin:round;stroke-opacity:0.996078"
     id="circle11575"
     cx="164.95676"
     cy="309.92206"
     r="5" /><rect
     style="fill:#f2f2f2;fill-opacity:1;stroke:none;stroke-linecap:round;stroke-linejoin:round;stroke-opacity:0.996078"
     id="rect12355"
     width="15"
     height="20"
     x="127.45675"
     y="239.92204"
     ry="7.5" /><rect
     style="fill:#f2f2f2;fill-opacity:1;stroke:none;stroke-linecap:round;stroke-linejoin:round;stroke-opacity:0.996078"
     id="rect12357"
     width="15"
     height="20"
     x="157.45676"
     y="239.92204"
     ry="7.5" /><rect
     style="fill:#2f2e41;fill-opacity:1;stroke:none;stroke-linecap:round;stroke-linejoin:round;stroke-opacity:0.996078"
     id="rect16013"
     width="170"
     height="240"
     x="339.95673"
     y="104.92205"
     ry="10" /><rect
     style="fill:#f2f2f2;fill-opacity:1;stroke:none;stroke-linecap:round;stroke-linejoin:round;stroke-opacity:0.996078"
     id="rect16741"
     width="160"
     height="230"
     x="344.95676"
     y="109.99999"
     ry="5" /><g
     id="g646"
     transform="matrix(0.89146154,0,0,0.89146154,141.99535,651.98981)"><rect
       x="245.67809"
       y="-598.46741"
       width="144.99594"
       height="110.7733"
       fill="#f2f2f2"
       id="rect207" /><rect
       x="252.88286"
       y="-592.96313"
       width="130.58641"
       height="99.764771"
       fill="#ffffff"
       id="rect209" /><path
       d="m 320.46935,-518.96252 q 0.0259,2.8e-4 0.0518,-10e-4 a 34.81675,34.81675 0 0 0 0.779,-69.48892 0.79424,0.79424 0 0 0 -0.60112,0.20836 0.78592,0.78592 0 0 0 -0.25678,0.57553 l -0.7612,67.902 a 0.79707,0.79707 0 0 0 0.78826,0.80412 z"
       fill="#3f3d56"
       id="path211" /><path
       d="m 293.16397,-577.22438 a 1.02524,1.02524 0 0 1 0.71962,0.30735 l 23.37584,23.90588 a 1.01418,1.01418 0 0 1 0.29094,0.72511 l -0.36424,32.49143 a 1.01059,1.01059 0 0 1 -0.33018,0.73985 1.026,1.026 0 0 1 -0.77126,0.26782 35.04446,35.04446 0 0 1 -23.69951,-58.09062 1.02636,1.02636 0 0 1 0.74091,-0.34658 q 0.0189,-4.5e-4 0.0379,-2.4e-4 z"
       fill="#e6e6e6"
       id="path213" /><path
       d="m 316.9339,-588.73009 a 1.02931,1.02931 0 0 1 0.69948,0.28585 1.01135,1.01135 0 0 1 0.31394,0.74786 l -0.32864,29.31578 a 1.02077,1.02077 0 0 1 -1.75041,0.70223 l -20.3983,-20.86084 a 1.02291,1.02291 0 0 1 0.0549,-1.48163 35.11806,35.11806 0 0 1 21.34564,-8.708 c 0.021,-10e-4 0.0423,-10e-4 0.0634,-10e-4 z"
       fill="#00a0f1"
       id="path215" /><path
       d="m 306.4255,-504.8819 a 6.25343,6.25343 0 1 1 -6.18294,-6.32313 6.26054,6.26054 0 0 1 6.18294,6.32313 z"
       fill="#00a0f1"
       id="path217" /><path
       d="m 324.29132,-504.68162 a 6.25343,6.25343 0 1 1 -6.18294,-6.32313 6.26056,6.26056 0 0 1 6.18294,6.32313 z"
       fill="#3f3d56"
       id="path219" /><path
       d="m 342.15713,-504.48129 a 6.25343,6.25343 0 1 1 -6.18294,-6.32314 6.26054,6.26054 0 0 1 6.18294,6.32314 z"
       fill="#e6e6e6"
       id="path221" /><rect
       x="244.15181"
       y="-470.26044"
       width="144.99594"
       height="110.7733"
       fill="#f2f2f2"
       id="rect223" /><rect
       x="251.35658"
       y="-464.75616"
       width="130.58641"
       height="99.764771"
       fill="#ffffff"
       id="rect225" /><circle
       cx="273.51306"
       cy="-437.3887"
       r="5.42203"
       fill="#3f3d56"
       id="circle227" /><path
       d="m 360.63078,-441.60799 a 3.67713,3.67713 0 1 1 0,7.35425 H 303.6052 a 3.677125,3.677125 0 1 1 0,-7.35425 h 57.02558 m 0,-0.9006 H 303.6052 a 4.57773,4.57773 0 1 0 0,9.15545 h 57.02558 a 4.57773,4.57773 0 1 0 0,-9.15545 z"
       fill="#3f3d56"
       id="path229" /><path
       d="m 338.12951,-433.35315 h -42.9283 a 4.57772,4.57772 0 1 1 0,-9.15544 h 42.9283 a 4.57772,4.57772 0 0 1 0,9.15544 z"
       fill="#00a0f1"
       id="path231" /><circle
       cx="273.51306"
       cy="-414.87378"
       r="5.42203"
       fill="#3f3d56"
       id="circle233" /><path
       d="m 360.63078,-419.09309 a 3.67713,3.67713 0 1 1 0,7.35425 H 303.6052 a 3.677125,3.677125 0 1 1 0,-7.35425 h 57.02558 m 0,-0.9006 H 303.6052 a 4.577725,4.577725 0 1 0 0,9.15545 h 57.02558 a 4.577725,4.577725 0 1 0 0,-9.15545 z"
       fill="#3f3d56"
       id="path235" /><path
       d="m 354.34023,-410.83829 h -59.139 a 4.57772,4.57772 0 1 1 0,-9.15544 h 59.139 a 4.57772,4.57772 0 0 1 0,9.15544 z"
       fill="#00a0f1"
       id="path237" /><circle
       cx="273.51306"
       cy="-392.35889"
       r="5.42203"
       fill="#3f3d56"
       id="circle239" /><path
       d="m 360.63078,-396.57819 a 3.67713,3.67713 0 1 1 0,7.35425 H 303.6052 a 3.677125,3.677125 0 1 1 0,-7.35425 h 57.02558 m 0,-0.9006 H 303.6052 a 4.577725,4.577725 0 1 0 0,9.15545 h 57.02558 a 4.577725,4.577725 0 1 0 0,-9.15545 z"
       fill="#3f3d56"
       id="path241" /><path
       d="m 319.21697,-388.32336 h -24.01576 a 4.57772,4.57772 0 1 1 0,-9.15543 h 24.01576 a 4.57772,4.57772 0 0 1 0,9.15543 z"
       fill="#00a0f1"
       id="path243" /></g></svg>
