<?xml version="1.0" encoding="UTF-8" standalone="no"?>
<svg
   data-name="Layer 1"
   width="556.013"
   height="556.013"
   viewBox="0 0 556.01299 556.01301"
   version="1.1"
   id="svg88"
   sodipodi:docname="measurementset-trial.svg"
   xml:space="preserve"
   inkscape:version="1.2.2 (732a01da63, 2022-12-09)"
   xmlns:inkscape="http://www.inkscape.org/namespaces/inkscape"
   xmlns:sodipodi="http://sodipodi.sourceforge.net/DTD/sodipodi-0.dtd"
   xmlns="http://www.w3.org/2000/svg"
   xmlns:svg="http://www.w3.org/2000/svg"><defs
     id="defs92" /><sodipodi:namedview
     id="namedview90"
     pagecolor="#ffffff"
     bordercolor="#666666"
     borderopacity="1.0"
     inkscape:showpageshadow="2"
     inkscape:pageopacity="0.0"
     inkscape:pagecheckerboard="0"
     inkscape:deskcolor="#d1d1d1"
     showgrid="false"
     inkscape:zoom="0.61477312"
     inkscape:cx="171.60802"
     inkscape:cy="403.40085"
     inkscape:window-width="1920"
     inkscape:window-height="1017"
     inkscape:window-x="1912"
     inkscape:window-y="-8"
     inkscape:window-maximized="1"
     inkscape:current-layer="svg88" /><g
     id="g964"
     transform="translate(0,29.956295)"><path
       d="m 120.19687,152.75602 a 5.6244206,5.6244206 0 0 0 0,11.24884 h 70.69901 v -2.45365 a 10.529415,10.529415 0 0 1 4.73839,-8.79519 z"
       fill="#e6e6e6"
       id="path2"
       style="stroke-width:0.703053" /><path
       d="m 184.52957,140.10108 h -23.90379 a 5.6244206,5.6244206 0 1 1 0,-11.24884 h 23.90379 a 5.6244206,5.6244206 0 0 1 0,11.24884 z"
       fill="#e6e6e6"
       id="path4"
       style="stroke-width:0.703053" /><path
       d="M 130.91795,100.02708 H 38.115013 a 5.6244206,5.6244206 0 1 1 0,-11.248841 h 92.802937 a 5.6244206,5.6244206 0 0 1 0,11.248841 z"
       fill="#e6e6e6"
       id="path6"
       style="stroke-width:0.703053" /><path
       d="M 90.492431,76.123292 H 78.540537 a 5.6244206,5.6244206 0 1 1 0,-11.248841 h 11.951894 a 5.6244206,5.6244206 0 0 1 0,11.248841 z"
       fill="#e6e6e6"
       id="path8"
       style="stroke-width:0.703053" /><path
       d="M 190.18991,265.87334 H 102.70345 A 11.965364,11.965364 0 0 1 90.751562,253.92144 V 115.53269 a 11.965371,11.965371 0 0 1 11.951888,-11.9519 h 139.74836 a 11.965371,11.965371 0 0 1 11.95189,11.9519 v 34.30024 h -1.4061 V 115.53269 A 10.557741,10.557741 0 0 0 242.45181,104.9869 H 102.70346 a 10.557741,10.557741 0 0 0 -10.545786,10.54579 v 138.38875 a 10.557741,10.557741 0 0 0 10.545786,10.54579 h 87.48646 z"
       fill="#cccccc"
       id="path10"
       style="stroke-width:0.703053" /><path
       d="M 91.454621,183.02848 H 27.681179 A 11.965371,11.965371 0 0 1 15.729285,171.07659 V 58.546978 A 11.965371,11.965371 0 0 1 27.681179,46.595084 H 141.3517 a 11.965371,11.965371 0 0 1 11.95189,11.951894 v 45.736872 h -1.40611 V 58.546978 A 10.557741,10.557741 0 0 0 141.3517,48.001189 H 27.681179 A 10.557741,10.557741 0 0 0 17.13539,58.546978 V 171.07659 a 10.557741,10.557741 0 0 0 10.545789,10.54579 h 63.773442 z"
       fill="#cccccc"
       id="path12"
       style="stroke-width:0.703053" /><path
       d="m 376.10801,152.75602 a 10.529415,10.529415 0 0 1 4.73839,8.79519 v 2.45365 h 70.69901 a 5.6244206,5.6244206 0 0 0 0,-11.24884 z"
       fill="#e6e6e6"
       id="path14"
       style="stroke-width:0.703053" /><path
       d="m 381.58829,134.47666 a 5.6308676,5.6308676 0 0 1 5.62442,-5.62442 h 23.90379 a 5.6244206,5.6244206 0 1 1 0,11.24884 h -23.90379 a 5.6308606,5.6308606 0 0 1 -5.62442,-5.62442 z"
       fill="#e6e6e6"
       id="path16"
       style="stroke-width:0.703053" /><path
       d="m 435.19992,94.402659 a 5.6308676,5.6308676 0 0 1 5.62442,-5.62442 h 92.80294 a 5.6244206,5.6244206 0 1 1 0,11.248841 h -92.80294 a 5.6308606,5.6308606 0 0 1 -5.62442,-5.624421 z"
       fill="#e6e6e6"
       id="path18"
       style="stroke-width:0.703053" /><path
       d="m 475.62544,70.498872 a 5.6308676,5.6308676 0 0 1 5.62442,-5.624421 h 11.9519 a 5.6244206,5.6244206 0 1 1 0,11.248841 h -11.9519 a 5.6308606,5.6308606 0 0 1 -5.62442,-5.62442 z"
       fill="#e6e6e6"
       id="path20"
       style="stroke-width:0.703053" /><path
       d="m 381.55237,265.87334 h 87.48646 a 11.965364,11.965364 0 0 0 11.95189,-11.9519 V 115.53269 a 11.965371,11.965371 0 0 0 -11.95189,-11.9519 H 329.29047 a 11.965371,11.965371 0 0 0 -11.95189,11.9519 v 34.30024 h 1.4061 v -34.30024 a 10.557741,10.557741 0 0 1 10.54579,-10.54579 h 139.74835 a 10.557741,10.557741 0 0 1 10.54579,10.54579 v 138.38875 a 10.557741,10.557741 0 0 1 -10.54579,10.54579 h -87.48645 z"
       fill="#cccccc"
       id="path22"
       style="stroke-width:0.703053" /><path
       d="m 480.28766,183.02848 h 63.77345 A 11.965371,11.965371 0 0 0 556.013,171.07659 V 58.546978 A 11.965371,11.965371 0 0 0 544.06111,46.595084 H 430.39059 a 11.965371,11.965371 0 0 0 -11.9519,11.951894 v 45.736872 h 1.40611 V 58.546978 a 10.557741,10.557741 0 0 1 10.54579,-10.545789 h 113.67052 a 10.557741,10.557741 0 0 1 10.54578,10.545789 V 171.07659 a 10.557741,10.557741 0 0 1 -10.54578,10.54579 h -63.77345 z"
       fill="#cccccc"
       id="path24"
       style="stroke-width:0.703053" /><path
       d="M 370.00539,149.59932 H 201.44167 a 11.97572,11.97572 0 0 0 -11.95189,11.9519 v 166.96796 a 11.964422,11.964422 0 0 0 11.95189,11.95189 h 168.56372 a 11.964429,11.964429 0 0 0 11.95189,-11.95189 V 161.55122 a 11.964436,11.964436 0 0 0 -11.95189,-11.9519 z m 10.54579,178.91986 a 10.558641,10.558641 0 0 1 -10.54579,10.54578 H 201.44167 A 10.558641,10.558641 0 0 1 190.89588,328.51918 V 161.55122 a 10.562114,10.562114 0 0 1 10.54579,-10.54579 h 168.56372 a 10.558641,10.558641 0 0 1 10.54579,10.54579 z"
       fill="#3f3d56"
       id="path26"
       style="stroke-width:0.703053" /><path
       d="M 356.73124,214.62465 H 214.71462 a 5.6244206,5.6244206 0 1 1 0,-11.24884 h 142.01662 a 5.6244206,5.6244206 0 0 1 0,11.24884 z"
       fill="#cccccc"
       id="path28"
       style="stroke-width:0.703053" /><path
       d="m 316.30572,190.72086 h -61.16558 a 5.6244206,5.6244206 0 1 1 0,-11.24884 h 61.16558 a 5.6244206,5.6244206 0 0 1 0,11.24884 z"
       fill="#ff7c00"
       id="path30"
       style="stroke-width:0.703053" /><path
       d="m 275.52867,248.37117 h -61.16558 a 5.6244206,5.6244206 0 1 1 0,-11.24884 h 61.16558 a 5.6244206,5.6244206 0 0 1 0,11.24884 z"
       fill="#cccccc"
       id="path32"
       style="stroke-width:0.703053" /><path
       d="m 275.52867,272.97801 h -61.16558 a 5.6244206,5.6244206 0 1 1 0,-11.24884 h 61.16558 a 5.6244206,5.6244206 0 0 1 0,11.24884 z"
       fill="#cccccc"
       id="path34"
       style="stroke-width:0.703053" /><path
       d="m 275.52867,297.58486 h -61.16558 a 5.624425,5.624425 0 1 1 0,-11.24885 h 61.16558 a 5.624425,5.624425 0 0 1 0,11.24885 z"
       fill="#cccccc"
       id="path36"
       style="stroke-width:0.703053" /><circle
       id="fc69f6bd-6aec-467a-b158-496b315f473e"
       data-name="Ellipse 44"
       cx="351.81415"
       cy="242.69693"
       r="10.495963"
       fill="#ff7c00"
       style="stroke-width:0.703053" /><path
       id="f31c0d86-d70b-4e63-97a7-2fc94b4d7c12-437"
       data-name="Path 395"
       d="m 350.77406,246.70083 a 1.0886207,1.0886207 0 0 1 -0.6549,-0.21765 l -0.0117,-0.009 -2.4667,-1.88693 a 1.0961821,1.0961821 0 0 1 1.33387,-1.7399 l 1.59773,1.22521 3.77551,-4.92558 a 1.0957285,1.0957285 0 0 1 1.53625,-0.20292 l 3.2e-4,2.4e-4 -0.0234,0.0325 0.0241,-0.0325 a 1.0970362,1.0970362 0 0 1 0.20268,1.53656 l -4.44082,5.79096 a 1.0963964,1.0963964 0 0 1 -0.8719,0.42745 z"
       fill="#ffffff"
       style="stroke-width:0.703053" /><path
       d="M 84.516441,32.628094 A 16.314047,16.314047 0 1 1 100.83057,16.314047 16.332614,16.332614 0 0 1 84.516441,32.628094 Z m 0,-31.2219888 A 14.907942,14.907942 0 1 0 99.424468,16.314047 14.924836,14.924836 0 0 0 84.516441,1.4061052 Z"
       fill="#cccccc"
       id="path40"
       style="stroke-width:0.703053" /><path
       id="b565f894-1e41-4a11-b880-46bff78dfbdf-438"
       data-name="Path 395"
       d="M 82.969466,22.269169 A 1.6191301,1.6191301 0 0 1 81.9954,21.945449 l -0.01742,-0.01307 -3.668817,-2.806523 a 1.630394,1.630394 0 1 1 1.98393,-2.58781 l 2.376367,1.822313 5.615471,-7.326012 a 1.6296759,1.6296759 0 0 1 2.284921,-0.301806 l 4.71e-4,3.58e-4 -0.03485,0.04839 0.03579,-0.04839 a 1.6316585,1.6316585 0 0 1 0.301455,2.285378 l -6.60501,8.613139 a 1.6306953,1.6306953 0 0 1 -1.296809,0.63582 z"
       fill="#cccccc"
       style="stroke-width:0.703053" /><path
       d="m 188.00283,89.575353 a 16.314047,16.314047 0 1 1 16.31421,-16.314047 16.33253,16.33253 0 0 1 -16.31421,16.314047 z m 0,-31.221989 a 14.907942,14.907942 0 1 0 14.90811,14.907942 14.924815,14.924815 0 0 0 -14.90811,-14.907942 z"
       fill="#cccccc"
       id="path43"
       style="stroke-width:0.703053" /><path
       id="a1067fe6-b388-4736-89af-b6090c7ddfc7-439"
       data-name="Path 395"
       d="m 186.45593,79.216428 a 1.6191301,1.6191301 0 0 1 -0.97407,-0.32372 l -0.0174,-0.01307 -3.66882,-2.806523 a 1.630394,1.630394 0 1 1 1.98393,-2.58781 l 2.37637,1.822313 5.61547,-7.326012 a 1.6296759,1.6296759 0 0 1 2.28492,-0.301806 l 4.7e-4,3.58e-4 -0.0349,0.04839 0.0358,-0.04839 a 1.6316585,1.6316585 0 0 1 0.30145,2.285378 l -6.60502,8.613139 a 1.6306953,1.6306953 0 0 1 -1.2968,0.63582 z"
       fill="#cccccc"
       style="stroke-width:0.703053" /><circle
       id="a6907563-545c-4a91-99f2-6d7f4e57ba01"
       data-name="Ellipse 44"
       cx="351.81415"
       cy="267.30377"
       r="10.495963"
       fill="#ff7c00"
       style="stroke-width:0.703053" /><path
       id="f071b9ad-7606-418c-8652-2e0910ae4e99-440"
       data-name="Path 395"
       d="m 350.77406,271.30767 a 1.0886207,1.0886207 0 0 1 -0.6549,-0.21765 l -0.0117,-0.009 -2.4667,-1.88694 a 1.0961821,1.0961821 0 0 1 1.33387,-1.7399 l 1.59773,1.22521 3.77551,-4.92558 a 1.0957285,1.0957285 0 0 1 1.53625,-0.20292 l 3.2e-4,2.4e-4 -0.0234,0.0325 0.0241,-0.0325 a 1.0970362,1.0970362 0 0 1 0.20268,1.53656 l -4.44082,5.79096 a 1.0963964,1.0963964 0 0 1 -0.8719,0.42745 z"
       fill="#ffffff"
       style="stroke-width:0.703053" /><circle
       id="a9a7744d-510c-41c6-a641-cf6a8a976d00"
       data-name="Ellipse 44"
       cx="351.81415"
       cy="291.96045"
       r="10.495963"
       fill="#ff7c00"
       style="stroke-width:0.703053" /><path
       id="ee4f98ac-d41c-4601-9f0c-7c3b6a7a76ac-441"
       data-name="Path 395"
       d="m 350.77406,295.96434 a 1.0886207,1.0886207 0 0 1 -0.6549,-0.21765 l -0.0117,-0.009 -2.4667,-1.88694 a 1.0961785,1.0961785 0 0 1 1.33387,-1.73989 l 1.59773,1.22521 3.77551,-4.92559 a 1.0957215,1.0957215 0 0 1 1.53625,-0.20291 l 3.2e-4,2.3e-4 -0.0234,0.0325 0.0241,-0.0325 a 1.0970362,1.0970362 0 0 1 0.20268,1.53656 l -4.44082,5.79096 a 1.0963964,1.0963964 0 0 1 -0.8719,0.4275 z"
       fill="#ffffff"
       style="stroke-width:0.703053" /><path
       d="m 285.73846,135.27377 c -11.07256,-0.1888 -16.1043,-8.58973 -16.10378,-16.31542 7e-4,-7.72568 5.03293,-16.12558 16.08061,-16.31267 h 0.0239 c 11.04905,0.18846 16.08092,8.58939 16.08044,16.31508 -4.9e-4,7.72568 -5.03311,16.12592 -16.08113,16.31301 z m -0.0112,-31.22199 c -10.09021,0.17647 -14.68601,7.84958 -14.68652,14.90657 -5.1e-4,7.06006 4.59867,14.73698 14.69785,14.90932 10.07446,-0.17096 14.67434,-7.84721 14.67485,-14.90691 3.5e-4,-7.05696 -4.59593,-14.73012 -14.68618,-14.90898 z"
       fill="#ff7c00"
       id="path50"
       style="stroke-width:0.703053" /><path
       d="m 289.38871,119.8457 c 2.82212,4.90269 -4.92454,6.81742 -7.88825,3.86404 l 0.74236,-1.58632 c 4.81863,4.16234 9.06432,-3.04735 1.70425,-2.36217 v -1.73806 c 6.73996,0.54356 2.9541,-6.2407 -1.53552,-2.22727 l -0.72555,-1.58598 c 3.65908,-3.79761 11.87366,0.79437 6.07447,4.5894 a 2.8907061,2.8907061 0 0 1 1.62824,1.04636 z"
       fill="#ff7c00"
       id="path52"
       style="stroke-width:0.703053" /><path
       d="m 384.85755,89.575353 a 16.314047,16.314047 0 1 1 16.31421,-16.314047 16.33253,16.33253 0 0 1 -16.31421,16.314047 z m 0,-31.221989 a 14.907942,14.907942 0 1 0 14.90811,14.907942 14.924815,14.924815 0 0 0 -14.90811,-14.907942 z"
       fill="#cccccc"
       id="path54"
       style="stroke-width:0.703053" /><path
       d="m 389.38808,76.922762 h -1.70426 v 2.345341 h -2.12597 v -2.345341 h -5.23067 v -1.619967 l 5.61875,-8.048377 h 1.73789 v 7.964271 h 1.70426 z m -3.83023,-1.704073 v -4.572936 l -3.17218,4.572936 z"
       fill="#cccccc"
       id="path56"
       style="stroke-width:0.703053" /><path
       d="m 487.22584,32.628094 a 16.314047,16.314047 0 1 1 16.31423,-16.314047 16.332678,16.332678 0 0 1 -16.31423,16.314047 z m 0,-31.2219888 A 14.907942,14.907942 0 1 0 502.13396,16.314047 14.92485,14.92485 0 0 0 487.22584,1.4061052 Z"
       fill="#cccccc"
       id="path58"
       style="stroke-width:0.703053" /><path
       d="m 489.65564,15.057059 a 3.3501088,3.3501088 0 0 1 1.33298,1.349805 4.1214348,4.1214348 0 0 1 0.47236,1.999306 3.9816539,3.9816539 0 0 1 -0.53999,2.084094 3.6155955,3.6155955 0 0 1 -1.55234,1.400269 5.2509661,5.2509661 0 0 1 -2.34534,0.497762 6.7583671,6.7583671 0 0 1 -2.22727,-0.379649 5.1728711,5.1728711 0 0 1 -1.80535,-1.020593 l 0.72555,-1.586333 a 5.4628029,5.4628029 0 0 0 3.34091,1.248882 2.4265368,2.4265368 0 0 0 1.72951,-0.565395 2.4186977,2.4186977 0 0 0 -0.0168,-3.205962 2.2596954,2.2596954 0 0 0 -1.64521,-0.599001 3.4138124,3.4138124 0 0 0 -1.33298,0.261585 3.1511309,3.1511309 0 0 0 -1.09681,0.767593 h -1.31599 v -7.069721 h 7.52534 v 1.687263 h -5.3994 v 3.273244 a 3.7300666,3.7300666 0 0 1 2.15978,-0.6241 4.0134811,4.0134811 0 0 1 1.99108,0.480951 z"
       fill="#cccccc"
       id="path60"
       style="stroke-width:0.703053" /><path
       d="M 268.56609,496.10041 H 0.703055 a 0.703055,0.703055 0 0 1 0,-1.40611 H 268.56609 a 0.703055,0.703055 0 0 1 0,1.40611 z"
       fill="#3f3d56"
       id="path86"
       style="stroke-width:0.703053" /><g
       id="g520"
       transform="matrix(0.74199839,0,0,0.74199839,559.20196,-27.577678)"><polygon
         points="208.544,569.772 214.376,522.484 196.282,522.485 196.284,569.773 "
         fill="#a0616a"
         id="polygon411"
         transform="translate(-738.16961,122.71482)" /><path
         d="m -505.98172,703.87012 -38.53072,0.002 -6.8e-4,-14.88687 23.64386,-10e-4 a 14.88687,14.88687 0 0 1 14.88755,14.88619 v 0 z"
         fill="#2f2e41"
         id="path413" /><polygon
         points="118.48,560.979 143.434,520.389 126.975,512.872 107.329,555.885 "
         fill="#a0616a"
         id="polygon415"
         transform="translate(-738.16961,122.71482)" /><path
         d="m -602.91237,703.87186 -35.04792,-16.00814 6.18497,-13.54124 21.50669,9.82319 a 14.88685,14.88685 0 0 1 7.35627,19.72617 v 0 z"
         fill="#2f2e41"
         id="path417" /><path
         d="m -595.13841,533.04425 a 10.05578,10.05578 0 0 1 -0.80113,-15.3985 l -14.41159,-32.69994 18.30864,3.10282 10.87858,30.57671 a 10.11027,10.11027 0 0 1 -13.9745,14.4189 z"
         fill="#a0616a"
         id="path419" /><path
         d="m -545.57538,676.03035 -11.76221,-102.72363 a 3.49992,3.49992 0 0 0 -6.90405,-0.3125 l -5.83081,28.09375 a 4.47464,4.47464 0 0 1 -0.4043,1.14257 l -34.13255,66.36915 a 4.50112,4.50112 0 0 1 -5.55738,2.16406 l -11.86841,-4.373 a 4.49893,4.49893 0 0 1 -2.64306,-5.84082 L -596.893,588.4972 a 3.49191,3.49191 0 0 0 0.23389,-1.19336 l 1.41943,-75.23535 a 4.50134,4.50134 0 0 1 4.06226,-4.39356 l 73.73486,-7.19336 a 4.49979,4.49979 0 0 1 4.9253,4.80469 l -12.38698,170.55855 a 4.51685,4.51685 0 0 1 -4.48828,4.17383 h -11.71191 a 4.499,4.499 0 0 1 -4.47095,-3.98829 z"
         fill="#2f2e41"
         id="path421" /><circle
         cx="-546.93634"
         cy="347.36508"
         r="24.561029"
         fill="#a0616a"
         id="circle423" /><path
         d="m -525.65106,385.34381 q -1.00856,-0.48194 -2.00244,-0.92676 h -2.5e-4 a 49.73275,49.73275 0 0 0 -50.02026,5.40137 c -13.08106,9.74316 -19.38623,24.4121 -17.29859,40.24609 4.40064,33.37305 -0.63769,78.64355 -1.16088,83.15234 40.37573,18.56641 75.79834,-4.77636 78.94238,-6.94531 z"
         fill="#ff7c00"
         id="path425" /><path
         d="m -597.23407,512.78719 a 4.48864,4.48864 0 0 1 -3.38965,-2.5918 l -20.60986,-45.665 a 11.451,11.451 0 0 1 0.6897,-10.73047 l 25.30932,-41.06738 a 8.30928,8.30928 0 0 1 15.38745,1.96582 8.33317,8.33317 0 0 1 -0.56958,5.5459 l -18.72216,39.3164 12.30493,41.64746 a 4.52263,4.52263 0 0 1 -0.99829,4.31543 l -5.37256,5.86133 a 4.48617,4.48617 0 0 1 -3.312,1.46 4.56841,4.56841 0 0 1 -0.7173,-0.0577 z"
         fill="#ff7c00"
         id="path427" /><path
         d="m -539.86176,503.24422 -3.81,-76.2002 0.98828,-0.1289 17.12842,80.60351 h -9.8125 a 4.49652,4.49652 0 0 1 -4.4942,-4.27441 z"
         opacity="0.2"
         id="path429" /><path
         d="m -526.2883,527.55822 a 10.0558,10.0558 0 0 1 2.41343,-15.22929 l -7.30826,-34.97954 17.26545,6.83651 4.29307,32.16906 a 10.11027,10.11027 0 0 1 -16.66369,11.20326 z"
         fill="#a0616a"
         id="path431" /><path
         d="m -529.73798,503.78523 -14.42895,-96.19242 -0.0137,-0.0908 2.78906,-12.83008 a 13.52752,13.52752 0 0 1 26.73462,2.31543 l 4.32983,104.78223 a 4.515,4.515 0 0 1 -3.99927,4.6582 l -10.46459,1.16309 a 4.69583,4.69583 0 0 1 -0.50757,0.0283 4.48508,4.48508 0 0 1 -4.43946,-3.83395 z"
         fill="#ff7c00"
         id="path433" /><path
         d="m -557.03125,369.67088 a 17.69024,17.69024 0 0 1 -15.87952,-10.209 v 0 c -2.27661,-4.81591 -3.54163,-8.65234 -3.76013,-11.40381 -0.58728,-7.39257 3.58972,-19.00927 9.12121,-25.36767 6.06861,-6.97559 15.67371,-7.94873 24.96253,-8.88965 2.53784,-0.25732 5.16211,-0.523 7.64624,-0.90918 2.1311,-0.331 4.78345,-0.74316 7.03833,0.0937 a 5.10569,5.10569 0 0 1 2.93188,2.77344 1.76483,1.76483 0 0 0 0.98914,0.99072 1.49606,1.49606 0 0 0 1.2008,-0.0571 2.68616,2.68616 0 0 1 2.43445,-4.9e-4 2.36289,2.36289 0 0 1 1.27027,1.729 2.47538,2.47538 0 0 0 0.23217,0.72607 2.86838,2.86838 0 0 0 1.87452,1.41846 2.5325,2.5325 0 0 1 1.96923,2.71435 c -0.14965,1.26172 -0.21337,2.623 -0.275,3.94 -0.23206,4.95507 -0.47083,10.07763 -5.45227,9.99511 a 14.33864,14.33864 0 0 1 -3.75024,-0.66211 c -1.80433,-0.501 -3.2295,-0.89892 -5.14942,0.29834 -2.95166,1.83985 -3.43359,5.686 -3.85864,9.07959 l -0.0748,0.59326 c -0.49658,3.88135 -2.54785,8.55225 -6.695,8.94288 a 9.64121,9.64121 0 0 1 -3.85351,-0.668 6.90409,6.90409 0 0 0 -4.01551,-0.48194 c -2.27758,0.64991 -3.3739,3.37012 -3.27978,5.72168 a 22.29541,22.29541 0 0 0 0.36877,2.86768 15.28491,15.28491 0 0 1 0.31849,4.57324 c -0.11829,0.93164 -1.1886,1.5459 -3.36841,1.93213 a 16.8779,16.8779 0 0 1 -2.94577,0.25928 z"
         fill="#2f2e41"
         id="path435" /></g></g></svg>
