<?xml version="1.0" encoding="UTF-8" standalone="no"?>
<svg
   width="556.013"
   height="556.013"
   viewBox="0 0 556.01299 556.01303"
   version="1.1"
   id="svg641"
   sodipodi:docname="timeline-trial.svg"
   inkscape:version="1.2.2 (732a01da63, 2022-12-09)"
   xml:space="preserve"
   xmlns:inkscape="http://www.inkscape.org/namespaces/inkscape"
   xmlns:sodipodi="http://sodipodi.sourceforge.net/DTD/sodipodi-0.dtd"
   xmlns="http://www.w3.org/2000/svg"
   xmlns:svg="http://www.w3.org/2000/svg"><defs
     id="defs645" /><sodipodi:namedview
     id="namedview643"
     pagecolor="#ffffff"
     bordercolor="#666666"
     borderopacity="1.0"
     inkscape:showpageshadow="2"
     inkscape:pageopacity="0.0"
     inkscape:pagecheckerboard="0"
     inkscape:deskcolor="#d1d1d1"
     showgrid="false"
     inkscape:zoom="0.57073066"
     inkscape:cx="-233.91069"
     inkscape:cy="31.538519"
     inkscape:window-width="1920"
     inkscape:window-height="1017"
     inkscape:window-x="1912"
     inkscape:window-y="-8"
     inkscape:window-maximized="1"
     inkscape:current-layer="svg641" /><g
     id="g429"
     transform="matrix(0.69456999,0,0,0.69456999,-2.4328938e-7,58.574226)"><path
       d="M 866.141,628.92775 829.39349,594.6221 811.96765,578.54942 a 14.1379,14.1379 0 0 1 2.69428,-22.73713 v 0 a 14.1379,14.1379 0 0 1 19.85155,6.69618 l 5.73171,13.1512 35.59506,36.922 z"
       transform="translate(-199.74317,-134.07464)"
       fill="#ffb9b9"
       id="path312" /><path
       d="m 870.94394,606.67614 -12.90434,21.49472 52.38655,32.1347 c 46.18433,-33.19688 55.32672,-44.00053 44.011,-96.8802 l -9,-9 -43.51726,70.581 z"
       transform="translate(-199.74317,-134.07464)"
       fill="#910080"
       id="path314" /><path
       d="m 794.86732,546.91441 a 3.17256,3.17256 0 0 0 -3.97134,-0.3909 l -24.25934,15.80083 a 3.19147,3.19147 0 0 0 -0.5101,4.93544 l 61.694,61.42676 a 3.19121,3.19121 0 0 0 4.5466,-0.0439 l 20.218,-20.92546 a 3.19828,3.19828 0 0 0 -0.0653,-4.50042 z"
       transform="translate(-199.74317,-134.07464)"
       fill="#3f3d56"
       id="path316" /><path
       d="m 771.41575,564.01452 2.51058,-1.60071 a 2.392,2.392 0 0 0 3.44276,3.14072 l 16.24627,-11.16932 a 2.39058,2.39058 0 0 0 -0.63206,-4.25032 l 1.29346,-0.82469 a 0.87035,0.87035 0 0 1 1.087,0.12213 l 54.65363,53.70972 a 0.87032,0.87032 0 0 1 -0.022,1.245 l -19.8489,19.34045 a 0.87035,0.87035 0 0 1 -1.21147,-0.0168 l -57.66577,-58.34587 a 0.87033,0.87033 0 0 1 0.1465,-1.35029 z"
       transform="translate(-199.74317,-134.07464)"
       fill="#ffffff"
       id="path318" /><polygon
       points="634.751,457.208 617.985,473.016 578.106,433.616 598.345,420.442 "
       fill="#910080"
       id="polygon320" /><path
       d="m 779.3993,577.41385 a 0.58112,0.58112 0 0 0 0,-0.82055 l -3.48743,-3.48736 a 0.59434,0.59434 0 0 0 -0.82062,0 0.58113,0.58113 0 0 0 0,0.82054 l 3.48744,3.48737 a 0.59433,0.59433 0 0 0 0.82061,0 z"
       transform="translate(-199.74317,-134.07464)"
       fill="#e6e6e6"
       id="path322" /><path
       d="m 785.27407,582.46807 -3.48743,-3.48743 a 0.58026243,0.58026243 0 0 0 -0.82062,0.82061 l 3.48744,3.48744 a 0.58026243,0.58026243 0 1 0 0.82061,-0.82062 z"
       transform="translate(-199.74317,-134.07464)"
       fill="#e6e6e6"
       id="path324" /><circle
       cx="634.36407"
       cy="470.77667"
       r="3.9165101"
       fill="#910080"
       id="circle326" /><polygon
       points="800.132,609.239 496.394,609.239 496.394,607.133 800.514,607.133 "
       fill="#3f3d56"
       id="polygon328" /><polygon
       points="765.401,607.864 765.401,304.126 767.507,304.126 767.507,608.245 "
       fill="#3f3d56"
       id="polygon330" /><path
       d="m 582.42821,732.92658 -19.89631,5.25263 v 0 a 24.82477,24.82477 0 0 1 -31.63782,11.72141 l -0.43459,-0.17983 a 29.70031,29.70031 0 0 1 -7.30216,-4.45825 c -8.35656,-6.774 -22.27915,-10.27006 -40.74163,-11.0926 a 5.34958,5.34958 0 0 1 -3.73826,-5.38464 v 0 a 5.3496,5.3496 0 0 1 4.65028,-5.02349 l 99.55254,-12.98511 z"
       transform="translate(-199.74317,-134.07464)"
       fill="#e6e6e6"
       id="path332" /><path
       d="m 840.54192,750.55607 c -52.051,-8.34748 -99.46966,-21.85879 -139.22771,-43.9096 l -123.40638,30.28653 0.452,-27.06035 96.46128,-33.83343 a 122.5869,122.5869 0 0 1 50.75383,-6.48573 l 114.96694,21.33357 z"
       transform="translate(-199.74317,-134.07464)"
       fill="#2f2e41"
       id="path334" /><path
       d="m 642.10034,761.41533 v 0 a 6.32849,6.32849 0 0 1 2.60126,-7.11715 l 46.66778,-24.53585 11.30095,-29.38247 19.43764,12.205 -5.42447,21.69784 1.2827,8.97885 A 19.85578,19.85578 0 0 1 698.31,765.92536 h -50.148 a 6.3285,6.3285 0 0 1 -6.06166,-4.51003 z"
       transform="translate(-199.74317,-134.07464)"
       fill="#e6e6e6"
       id="path336" /><path
       d="m 903.3752,733.83066 c -56.35808,70.069 -95.13546,-6.24968 -133.35121,-87.24334 L 723.91611,721.62563 695.88975,701.736 744.21681,595.41647 a 18.2009,18.2009 0 0 1 28.94021,-5.819 l 67.3849,75.0714 12.65706,-0.90407 z"
       transform="translate(-199.74317,-134.07464)"
       fill="#2f2e41"
       id="path338" /><circle
       cx="706.79626"
       cy="366.05237"
       r="33.450809"
       fill="#ffb9b9"
       id="circle340" /><path
       d="m 949.031,559.796 -37.06712,8.13669 A 223.8748,223.8748 0 0 0 896.59463,523.633 l 34.35489,-12.65706 A 237.74055,237.74055 0 0 0 949.031,559.796 Z"
       transform="translate(-199.74317,-134.07464)"
       fill="#ffb9b9"
       id="path342" /><path
       d="M 906.53947,742.41938 840.54192,664.66884 867.41644,619.999 c 2.82866,-20.09466 13.20743,-35.88912 29.17819,-48.4989 l 10.84891,-18.03263 32.54674,-13.56114 v 0 a 66.60524,66.60524 0 0 1 19.75654,78.36242 z"
       transform="translate(-199.74317,-134.07464)"
       fill="#910080"
       id="path344" /><path
       d="m 849.58268,656.53216 -39.77935,-30.73859 -18.84539,-14.382 a 14.13789,14.13789 0 0 1 0.56756,-22.88916 v 0 a 14.13789,14.13789 0 0 1 20.38835,4.82052 l 6.93021,12.561 38.87527,33.45081 z"
       transform="translate(-199.74317,-134.07464)"
       fill="#ffb9b9"
       id="path346" /><path
       d="m 852.29491,633.93026 -10.84891,22.6019 55.14864,27.12228 c 42.896,-37.34909 66.81389,-73.16471 50.62826,-124.76249 l -20.79375,5.42445 -41.5875,84.98315 z"
       transform="translate(-199.74317,-134.07464)"
       fill="#910080"
       id="path348" /><circle
       cx="750.22278"
       cy="314.1825"
       r="13.31844"
       fill="#2f2e41"
       id="circle350" /><path
       d="m 936.24248,444.99657 a 13.308,13.308 0 0 1 13.31213,-12.448 c -0.275,-0.0349 -0.54757,-0.0773 -0.828,-0.0953 a 13.31844,13.31844 0 0 0 -1.709,26.582 c 0.28043,0.018 0.55617,0.0109 0.83339,0.0115 a 13.30794,13.30794 0 0 1 -11.60852,-14.05014 z"
       transform="translate(-199.74317,-134.07464)"
       fill="#2f2e41"
       id="path352" /><path
       d="m 936.16732,450.6839 c -11.87785,-9.85348 -45.94685,2.66987 -48.1453,9.29449 -16.06228,2.189 -28.22339,11.56031 -28.22339,28.2233 v 9e-5 c 9.54953,3.91207 20.41026,3.43 32.15068,0 18.7152,15.25179 19.99817,34.42492 8.61644,56.44679 l 14.0026,0.28 17.35673,-25.36748 0.83,25.73124 32.09728,-0.64378 v -36.8745 a 77.09491,77.09491 0 0 0 -8.2315,-35.32 c -5.00179,-9.71734 -12.76406,-15.39124 -20.45354,-21.77015 z"
       transform="translate(-199.74317,-134.07464)"
       fill="#2f2e41"
       id="path354" /><ellipse
       cx="706.53516"
       cy="372.8418"
       rx="6.3689098"
       ry="8.9164801"
       fill="#ffb8b8"
       id="ellipse356" /><path
       d="m 206.74317,134.07464 a 7.00787,7.00787 0 0 0 -7,7 v 296 a 7.00776,7.00776 0 0 0 7,6.99951 h 434 a 7.00807,7.00807 0 0 0 7,-6.99951 v -296 a 7.00818,7.00818 0 0 0 -7,-7 z"
       transform="translate(-199.74317,-134.07464)"
       fill="#e6e6e6"
       id="path358" /><path
       d="m 216.74317,144.07464 a 7.00787,7.00787 0 0 0 -7,7 v 275.99951 a 7.00786,7.00786 0 0 0 7,7 h 414 a 7.00817,7.00817 0 0 0 7,-7 V 151.07464 a 7.00818,7.00818 0 0 0 -7,-7 z"
       transform="translate(-199.74317,-134.07464)"
       fill="#ffffff"
       id="path360" /><rect
       x="95.636742"
       y="194.05943"
       width="2"
       height="6"
       fill="#e6e6e6"
       id="rect362" /><rect
       x="95.636742"
       y="210.994"
       width="2"
       height="10.93506"
       fill="#e6e6e6"
       id="rect364" /><rect
       x="95.636742"
       y="232.86365"
       width="2"
       height="6"
       fill="#e6e6e6"
       id="rect366" /><rect
       x="290.63675"
       y="109.99987"
       width="2"
       height="6"
       fill="#e6e6e6"
       id="rect368" /><path
       d="m 492.37991,351.28691 h -2 v -12.65185 h 2 z m 0,-25.30322 h -2 v -12.65137 h 2 z m 0,-25.30322 h -2 V 288.0291 h 2 z m 0,-25.30323 h -2 v -12.65136 h 2 z"
       transform="translate(-199.74317,-134.07464)"
       fill="#e6e6e6"
       id="path370" /><rect
       x="290.63675"
       y="229.86365"
       width="2"
       height="6"
       fill="#e6e6e6"
       id="rect372" /><rect
       x="403.63675"
       y="53.99987"
       width="2"
       height="6"
       fill="#e6e6e6"
       id="rect374" /><path
       d="m 605.37991,352.61406 h -2 v -11.32422 h 2 z m 0,-22.64844 h -2 v -11.32421 h 2 z m 0,-22.64843 h -2 V 295.993 h 2 z m 0,-22.64844 h -2 v -11.32422 h 2 z m 0,-22.64893 h -2 V 250.6956 h 2 z m 0,-22.64843 h -2 v -11.32422 h 2 z m 0,-22.64844 h -2 v -11.32422 h 2 z"
       transform="translate(-199.74317,-134.07464)"
       fill="#e6e6e6"
       id="path376" /><rect
       x="403.63675"
       y="229.86365"
       width="2"
       height="6"
       fill="#e6e6e6"
       id="rect378" /><path
       d="m 262.73189,372.52241 c -4.813,-14.42246 4.22195,-29.30532 16.29851,-36.92968 15.36878,-9.70286 34.88621,-6.81545 51.05368,-0.80028 31.83151,11.843 60.34673,39.52858 96.707,33.00206 a 46.17891,46.17891 0 0 0 19.92151,-8.45717 41.70233,41.70233 0 0 0 13.40778,-18.44248 c 5.77408,-15.04366 4.39716,-31.45568 5.29457,-47.21875 0.83147,-14.60474 3.734,-31.212 15.73237,-40.99253 13.14488,-10.71516 31.77382,-8.63587 47.585,-9.67266 a 88.08855,88.08855 0 0 0 42.69551,-14.11346 89.38269,89.38269 0 0 0 30.253,-33.0409 85.14915,85.14915 0 0 0 4.40044,-9.95569 c 0.67012,-1.81353 -2.22828,-2.596 -2.89284,-0.79752 -10.61535,28.7281 -38.07423,50.64686 -68.52535,54.36895 -16.061,1.96316 -33.44561,-0.75764 -48.47513,6.501 -14.15142,6.83455 -20.43162,21.64425 -22.6383,36.41411 -2.36978,15.86163 -0.40025,32.08153 -3.53554,47.8534 -1.563,7.86236 -4.46638,15.59717 -9.784,21.71574 a 39.33389,39.33389 0 0 1 -18.94486,11.71427 c -35.65983,10.30809 -66.11355,-17.88242 -96.93583,-30.42045 -16.04143,-6.52541 -35.24131,-10.37895 -51.694,-3.00874 -12.81448,5.74044 -23.706,18.62167 -24.26874,33.05821 a 28.2318,28.2318 0 0 0 1.45235,10.02009 c 0.60813,1.82227 3.50643,1.04112 2.89284,-0.79752 z"
       transform="translate(-199.74317,-134.07464)"
       fill="#910080"
       id="path380" /><path
       d="M 241.74319,325.9508"
       transform="translate(-199.74317,-134.07464)"
       fill="none"
       stroke="#ffffff"
       stroke-miterlimit="10"
       stroke-width="2"
       stroke-dasharray="12"
       id="path382" /><polygon
       points="41,51.136 43,51.136 43,237.864 423,237.864 423,239.864 41,239.864 "
       fill="#3f3d56"
       id="polygon384" /></g></svg>
