<?xml version="1.0" encoding="UTF-8" standalone="no"?>
<svg
   data-name="Layer 1"
   width="738"
   height="738"
   viewBox="0 0 738 738"
   version="1.1"
   id="svg82"
   sodipodi:docname="banner-setup.svg"
   inkscape:version="1.2.2 (732a01da63, 2022-12-09)"
   xmlns:inkscape="http://www.inkscape.org/namespaces/inkscape"
   xmlns:sodipodi="http://sodipodi.sourceforge.net/DTD/sodipodi-0.dtd"
   xmlns="http://www.w3.org/2000/svg"
   xmlns:svg="http://www.w3.org/2000/svg">
  <defs
     id="defs86" />
  <sodipodi:namedview
     id="namedview84"
     pagecolor="#ffffff"
     bordercolor="#666666"
     borderopacity="1.0"
     inkscape:showpageshadow="2"
     inkscape:pageopacity="0.0"
     inkscape:pagecheckerboard="0"
     inkscape:deskcolor="#d1d1d1"
     showgrid="false"
     inkscape:zoom="1.1837379"
     inkscape:cx="269.90772"
     inkscape:cy="364.94565"
     inkscape:window-width="2560"
     inkscape:window-height="1377"
     inkscape:window-x="1912"
     inkscape:window-y="-8"
     inkscape:window-maximized="1"
     inkscape:current-layer="svg82" />
  <g
     id="g1083"
     transform="translate(0,4.47675)">
    <path
       d="m 550.44466,172.94725 h -3.99878 V 63.40193 A 63.40186,63.40186 0 0 0 483.04408,0 H 250.95735 a 63.40186,63.40186 0 0 0 -63.402,63.4017 v 600.9744 a 63.40189,63.40189 0 0 0 63.4018,63.40191 h 232.08663 a 63.40187,63.40187 0 0 0 63.402,-63.40167 V 250.92349 h 3.99878 z"
       fill="#e6e6e6"
       id="path2" />
    <path
       d="m 532.95107,63.8443 v 600.09 a 47.35073,47.35073 0 0 1 -47.35,47.35 h -233.2 a 47.35085,47.35085 0 0 1 -47.35,-47.35 v -600.09 a 47.35089,47.35089 0 0 1 47.35,-47.35 h 28.29 a 22.50661,22.50661 0 0 0 20.83,30.99 h 132.96 a 22.50674,22.50674 0 0 0 20.83,-30.99 h 30.29 a 47.35088,47.35088 0 0 1 47.35,47.35 z"
       fill="#ffffff"
       id="path4" />
    <path
       d="m 304.60344,181.03954 h -35.8121 A 11.14181,11.14181 0 0 1 257.66213,169.91033 V 134.0984 a 11.1418,11.1418 0 0 1 11.12921,-11.12921 h 35.8121 a 11.1418,11.1418 0 0 1 11.1292,11.12921 v 35.81193 a 11.1418,11.1418 0 0 1 -11.1292,11.12921 z"
       fill="#00a0f1"
       id="path6" />
    <path
       d="M 386.90712,181.03954 H 351.095 A 11.1418,11.1418 0 0 1 339.96579,169.91033 V 134.0984 A 11.1418,11.1418 0 0 1 351.095,122.96919 h 35.8121 a 11.1418,11.1418 0 0 1 11.1292,11.12921 v 35.81193 a 11.1418,11.1418 0 0 1 -11.12918,11.12921 z"
       fill="#00a0f1"
       id="path8" />
    <path
       d="M 469.2108,181.03954 H 433.3987 A 11.1418,11.1418 0 0 1 422.26949,169.91033 V 134.0984 a 11.1418,11.1418 0 0 1 11.12921,-11.12921 h 35.8121 A 11.1418,11.1418 0 0 1 480.34,134.0984 v 35.81193 a 11.1418,11.1418 0 0 1 -11.1292,11.12921 z"
       fill="#e6e6e6"
       id="path10" />
    <path
       d="m 304.60344,272.54825 h -35.8121 a 11.1418,11.1418 0 0 1 -11.12921,-11.12921 v -35.81195 a 11.14181,11.14181 0 0 1 11.12921,-11.12921 h 35.8121 a 11.1418,11.1418 0 0 1 11.1292,11.12921 v 35.81193 a 11.1418,11.1418 0 0 1 -11.1292,11.12923 z"
       fill="#e6e6e6"
       id="path12" />
    <path
       d="M 386.90712,272.54825 H 351.095 A 11.1418,11.1418 0 0 1 339.96579,261.41904 V 225.60709 A 11.1418,11.1418 0 0 1 351.095,214.47788 h 35.8121 a 11.1418,11.1418 0 0 1 11.1292,11.12921 v 35.81193 a 11.1418,11.1418 0 0 1 -11.12918,11.12923 z"
       fill="#e6e6e6"
       id="path14" />
    <path
       d="m 469.2108,272.54825 h -35.8121 a 11.1418,11.1418 0 0 1 -11.12921,-11.12921 v -35.81195 a 11.1418,11.1418 0 0 1 11.12921,-11.12921 h 35.8121 a 11.1418,11.1418 0 0 1 11.1292,11.12921 v 35.81193 a 11.1418,11.1418 0 0 1 -11.1292,11.12923 z"
       fill="#e6e6e6"
       id="path16" />
    <path
       d="m 304.60344,364.03954 h -35.8121 A 11.14181,11.14181 0 0 1 257.66213,352.91033 V 317.0984 a 11.1418,11.1418 0 0 1 11.12921,-11.12921 h 35.8121 a 11.1418,11.1418 0 0 1 11.1292,11.12921 v 35.81193 a 11.1418,11.1418 0 0 1 -11.1292,11.12921 z"
       fill="#e6e6e6"
       id="path18" />
    <path
       d="M 386.90712,364.03954 H 351.095 A 11.1418,11.1418 0 0 1 339.96579,352.91033 V 317.0984 A 11.1418,11.1418 0 0 1 351.095,305.96919 h 35.8121 a 11.1418,11.1418 0 0 1 11.1292,11.12921 v 35.81193 a 11.1418,11.1418 0 0 1 -11.12918,11.12921 z"
       fill="#e6e6e6"
       id="path20" />
    <path
       d="M 469.2108,364.03954 H 433.3987 A 11.1418,11.1418 0 0 1 422.26949,352.91033 V 317.0984 a 11.1418,11.1418 0 0 1 11.12921,-11.12921 h 35.8121 A 11.1418,11.1418 0 0 1 480.34,317.0984 v 35.81193 a 11.1418,11.1418 0 0 1 -11.1292,11.12921 z"
       fill="#e6e6e6"
       id="path22" />
    <path
       d="m 304.60344,455.54825 h -35.8121 a 11.1418,11.1418 0 0 1 -11.12921,-11.12921 v -35.81195 a 11.14181,11.14181 0 0 1 11.12921,-11.12921 h 35.8121 a 11.1418,11.1418 0 0 1 11.1292,11.12921 v 35.81193 a 11.1418,11.1418 0 0 1 -11.1292,11.12923 z"
       fill="#e6e6e6"
       id="path24" />
    <path
       d="M 386.90712,455.54825 H 351.095 A 11.1418,11.1418 0 0 1 339.96579,444.41904 V 408.60709 A 11.1418,11.1418 0 0 1 351.095,397.47788 h 35.8121 a 11.1418,11.1418 0 0 1 11.1292,11.12921 v 35.81193 a 11.1418,11.1418 0 0 1 -11.12918,11.12923 z"
       fill="#e6e6e6"
       id="path26" />
    <path
       d="m 469.2108,455.54825 h -35.8121 a 11.1418,11.1418 0 0 1 -11.12921,-11.12921 v -35.81195 a 11.1418,11.1418 0 0 1 11.12921,-11.12921 h 35.8121 a 11.1418,11.1418 0 0 1 11.1292,11.12921 v 35.81193 a 11.1418,11.1418 0 0 1 -11.1292,11.12923 z"
       fill="#e6e6e6"
       id="path28" />
    <path
       d="m 409.94146,444.93615 h -35.812 a 11.64255,11.64255 0 0 1 -11.62939,-11.62939 v -35.812 a 11.64246,11.64246 0 0 1 11.62939,-11.62891 h 35.812 a 11.64224,11.64224 0 0 1 11.62915,11.62891 v 35.812 a 11.64234,11.64234 0 0 1 -11.62915,11.62939 z"
       fill="#00a0f1"
       id="path30" />
    <path
       d="m 240.496,537.35169 a 10.342,10.342 0 0 0 3.69829,-15.421 l 7.73338,-75.61094 H 235.215 l -6.14591,73.83019 a 10.3981,10.3981 0 0 0 11.42691,17.20175 z"
       fill="#ffb8b8"
       id="path32" />
    <circle
       cx="255.84119"
       cy="380.94672"
       r="23.645041"
       fill="#ffb8b8"
       id="circle34" />
    <path
       d="m 260.29262,490.35316 a 4.32432,4.32432 0 0 1 -4.16765,-3.1758 c -1.89438,-6.88278 -6.82308,-18.51986 -14.64882,-34.58971 a 28.65183,28.65183 0 0 1 16.27057,-39.55789 v 0 a 28.63888,28.63888 0 0 1 36.80115,18.24393 c 6.0658,19.01719 5.773,39.38819 5.3654,47.26282 a 4.34283,4.34283 0 0 1 -3.40214,4.00971 l -35.28941,7.70634 a 4.31078,4.31078 0 0 1 -0.9291,0.1006 z"
       fill="#cccccc"
       id="path36" />
    <polygon
       points="294.466,714.884 306.269,714.883 311.884,669.359 294.464,669.36 "
       fill="#ffb8b8"
       id="polygon38" />
    <path
       d="m 329.03134,725.84166 -37.09374,0.002 -6.5e-4,-14.33167 22.76207,-10e-4 a 14.33167,14.33167 0 0 1 14.33232,14.33101 z"
       fill="#2f2e41"
       id="path40" />
    <polygon
       points="176.447,699.587 186.79,705.273 213.644,668.087 198.379,659.695 "
       fill="#ffb8b8"
       id="polygon42" />
    <path
       d="m 201.45602,725.84331 -32.5052,-17.8706 6.90455,-12.55882 19.94639,10.96606 a 14.33165,14.33165 0 0 1 5.65427,19.46334 v 0 z"
       fill="#2f2e41"
       id="path44" />
    <path
       d="m 293.91492,689.61533 a 4.33167,4.33167 0 0 1 -4.292,-3.77467 L 274.86247,572.09851 a 2.4068,2.4068 0 0 0 -4.49435,-0.85271 l -61.51561,111.60709 a 4.3558,4.3558 0 0 1 -5.336,1.95832 L 190.108,679.70248 a 4.33179,4.33179 0 0 1 -2.47022,-5.68128 l 42.61335,-104.682 a 3.33683,3.33683 0 0 0 0.21764,-0.8292 c 5.77177,-44.67273 20.457,-67.39033 24.82022,-73.28878 a 3.35482,3.35482 0 0 0 0.47736,-3.05452 l -0.59981,-1.79943 a 4.32994,4.32994 0 0 1 0.83367,-4.21372 c 15.72223,-17.90783 43.12549,-8.136 43.40048,-8.03539 l 0.13726,0.0508 0.086,0.11752 c 30.72713,42.14 19.36622,179.00964 16.77683,206.019 a 4.32027,4.32027 0 0 1 -3.97985,3.89877 l -18.16966,1.39893 c -0.11283,0.008 -0.22494,0.0122 -0.33635,0.0122 z"
       fill="#2f2e41"
       id="path46" />
    <path
       d="m 347.7642,408.4129 a 10.13308,10.13308 0 0 0 -0.23037,1.579 l -41.35538,23.85776 -10.052,-5.78677 -10.716,14.02882 16.79955,11.97365 a 7.70167,7.70167 0 0 0 9.24024,-0.22512 l 42.6445,-33.64254 a 10.10562,10.10562 0 1 0 -6.33049,-11.7848 z"
       fill="#ffb8b8"
       id="path48" />
    <path
       d="M 304.7959,434.97959 291.43,452.30248 a 4.3322,4.3322 0 0 1 -6.55018,0.35878 l -15.13115,-15.71252 a 12.03133,12.03133 0 0 1 14.755,-19.00779 l 18.97778,10.61169 a 4.3322,4.3322 0 0 1 1.31446,6.42695 z"
       fill="#cccccc"
       id="path50" />
    <path
       d="m 252.99133,465.0759 -21.53172,-3.88793 a 4.33221,4.33221 0 0 1 -3.33464,-5.64922 l 6.98015,-20.66671 a 12.03133,12.03133 0 0 1 23.667,4.34515 l -0.681,21.73247 a 4.3322,4.3322 0 0 1 -5.09977,4.12624 z"
       fill="#cccccc"
       id="path52" />
    <path
       d="m 259.58363,375.50806 c 6.07728,4.15938 14.05689,8.435 20.2639,4.00558 a 11.29522,11.29522 0 0 0 3.707,-13.02047 c -2.97212,-8.4993 -11.138,-12.2411 -18.94654,-15.10926 -10.15117,-3.72861 -21.20429,-6.69488 -31.68372,-4.02464 -10.47943,2.67024 -19.74087,12.81642 -17.84913,23.46398 1.52129,8.56253 9.59817,15.68722 8.45156,24.30792 -1.154,8.676 -10.91111,13.24287 -19.52511,14.79349 -8.614,1.55062 -18.25326,2.04884 -24.44381,8.23614 -7.89716,7.893 -5.9251,22.00094 1.50581,30.33441 7.43091,8.33347 18.64456,12.111 29.51059,14.67893 14.39682,3.40241 29.96811,5.19052 43.64145,-0.45612 13.67334,-5.64664 24.31376,-20.84675 20.35281,-35.1 -1.6731,-6.02056 -5.61442,-11.10875 -9.42349,-16.06227 -3.80907,-4.95352 -7.66612,-10.13345 -9.1191,-16.21089 -1.21082,-5.06453 -0.31464,-10.94469 3.04389,-14.74367 a 4.27156,4.27156 0 0 0 0.57223,-4.993 z"
       fill="#2f2e41"
       id="path54" />
    <polygon
       points="500,716.459 487.74,716.459 481.908,669.171 500.002,669.171 "
       fill="#ffb8b8"
       id="polygon56" />
    <path
       d="m 478.98321,712.95555 h 23.64387 v 14.88687 h -38.53073 v 0 a 14.88686,14.88686 0 0 1 14.88686,-14.88687 z"
       fill="#2f2e41"
       id="path58" />
    <polygon
       points="546,716.459 533.74,716.459 527.908,669.171 546.002,669.171 "
       fill="#ffb8b8"
       id="polygon60" />
    <path
       d="m 524.98321,712.95555 h 23.64387 v 14.88687 h -38.53073 v 0 a 14.88686,14.88686 0 0 1 14.88686,-14.88687 z"
       fill="#2f2e41"
       id="path62" />
    <path
       d="m 544.50276,575.62054 a 10.7427,10.7427 0 0 1 -2.06222,-16.343 l -8.07254,-114.55787 23.253,2.25509 0.63868,112.18665 a 10.80091,10.80091 0 0 1 -13.757,16.45913 z"
       fill="#ffb8b8"
       id="path64" />
    <path
       d="m 499.421,692.63625 -13.49634,-0.64356 a 4.499,4.499 0 0 1 -4.28589,-4.46289 l -0.94189,-136.55664 a 4.50111,4.50111 0 0 1 5.14648,-4.48535 l 53.99366,7.83789 a 4.47382,4.47382 0 0 1 3.85351,4.41992 l 6.94434,126.53418 a 4.50047,4.50047 0 0 1 -4.5,4.53418 h -14.55008 a 4.47888,4.47888 0 0 1 -4.44531,-3.80078 l -8.97705,-57.06738 a 3.5,3.5 0 0 0 -6.93287,0.12793 l -7.12622,59.60254 a 4.5171,4.5171 0 0 1 -4.46875,3.96582 q -0.1062,4e-5 -0.21359,-0.006 z"
       fill="#2f2e41"
       id="path66" />
    <path
       d="m 508.922,558.75152 c -11.89942,-6.61133 -21.197,-8.34863 -25.67993,-8.7959 a 4.418,4.418 0 0 1 -3.05347,-1.67285 4.47791,4.47791 0 0 1 -0.93115,-3.40137 l 12.9375,-96.05078 a 33.21917,33.21917 0 0 1 19.36352,-25.957 32.30589,32.30589 0 0 1 31.39551,2.46094 q 0.665,0.44238 1.30518,0.90332 a 33.17817,33.17817 0 0 1 12.63647,34.57324 c -7.93359,32.45508 -10.65869,85.66211 -11.12451,95.999 a 4.46544,4.46544 0 0 1 -2.918,4.00488 45.08471,45.08471 0 0 1 -15.22583,2.71094 38.12461,38.12461 0 0 1 -18.70529,-4.77442 z"
       fill="#00a0f1"
       id="path68" />
    <path
       d="m 539.63178,483.21269 a 4.4817,4.4817 0 0 1 -1.85872,-3.40066 l -1.70384,-30.87614 a 12.39862,12.39862 0 0 1 24.34642,-3.92684 l 7.48456,27.6049 a 4.50507,4.50507 0 0 1 -3.16561,5.52077 l -21.29059,5.77253 a 4.48288,4.48288 0 0 1 -3.81222,-0.69456 z"
       fill="#00a0f1"
       id="path70" />
    <circle
       cx="519.74359"
       cy="385.27072"
       r="24.561029"
       fill="#ffb8b8"
       id="circle72" />
    <path
       d="m 430.73989,433.52534 a 10.52582,10.52582 0 0 1 0.23929,1.64013 l 42.95745,24.782 10.44142,-6.01094 11.13116,14.57228 -22.33714,15.92054 -49.00791,-38.66269 a 10.49579,10.49579 0 1 1 6.57573,-12.24132 z"
       fill="#ffb8b8"
       id="path74" />
    <path
       d="m 475.47091,457.84013 a 4.48168,4.48168 0 0 1 1.29315,-3.65337 l 21.8634,-21.86849 a 12.39863,12.39863 0 0 1 19.16808,15.51623 l -15.57,23.9922 a 4.50508,4.50508 0 0 1 -6.22447,1.32511 l -18.50426,-12.00856 a 4.48287,4.48287 0 0 1 -2.0259,-3.30312 z"
       fill="#00a0f1"
       id="path76" />
    <path
       d="m 537.12421,404.70225 c -4.582,4.88078 -13.09132,2.26067 -13.68835,-4.40717 a 8.05557,8.05557 0 0 1 0.0101,-1.5557 c 0.30826,-2.95357 2.01461,-5.635 1.60587,-8.7536 a 4.59045,4.59045 0 0 0 -0.8401,-2.14891 c -3.65125,-4.88934 -12.22228,2.18687 -15.6682,-2.2393 -2.113,-2.714 0.3708,-6.98712 -1.25066,-10.0205 -2.14005,-4.00358 -8.47881,-2.0286 -12.45387,-4.22116 -4.42276,-2.43948 -4.15822,-9.22524 -1.24686,-13.35269 3.55052,-5.03359 9.77572,-7.71951 15.92335,-8.10661 6.14763,-0.3871 12.25292,1.27475 17.9923,3.51145 6.52108,2.54134 12.98768,6.05351 17.00066,11.78752 4.88022,6.97317 5.34986,16.34794 2.90917,24.50175 -1.48465,4.96008 -6.55178,11.01927 -10.29344,15.00492 z"
       fill="#2f2e41"
       id="path78" />
    <path
       d="M 737,729.0465 H 1 a 1,1 0 0 1 0,-2 h 736 a 1,1 0 0 1 0,2 z"
       fill="#cccccc"
       id="path80" />
  </g>
</svg>
