<?xml version="1.0" encoding="UTF-8" standalone="no"?>
<svg
   data-name="Layer 1"
   width="782.39001"
   height="782.39001"
   viewBox="0 0 782.39003 782.38998"
   version="1.1"
   id="svg1393"
   sodipodi:docname="banner-load-example.svg"
   inkscape:version="1.2.2 (732a01da63, 2022-12-09)"
   xmlns:inkscape="http://www.inkscape.org/namespaces/inkscape"
   xmlns:sodipodi="http://sodipodi.sourceforge.net/DTD/sodipodi-0.dtd"
   xmlns="http://www.w3.org/2000/svg"
   xmlns:svg="http://www.w3.org/2000/svg">
  <defs
     id="defs1397" />
  <sodipodi:namedview
     id="namedview1395"
     pagecolor="#ffffff"
     bordercolor="#666666"
     borderopacity="1.0"
     inkscape:showpageshadow="2"
     inkscape:pageopacity="0.0"
     inkscape:pagecheckerboard="0"
     inkscape:deskcolor="#d1d1d1"
     showgrid="false"
     inkscape:zoom="1.3609357"
     inkscape:cx="304.56987"
     inkscape:cy="316.69388"
     inkscape:window-width="2560"
     inkscape:window-height="1377"
     inkscape:window-x="1912"
     inkscape:window-y="-8"
     inkscape:window-maximized="1"
     inkscape:current-layer="svg1393" />
  <polygon
     points="524.27,632.017 782.39,632.017 782.009,634.123 524.27,634.123 "
     fill="#3f3d56"
     id="polygon1129"
     transform="translate(3.523159e-4,74.133157)" />
  <circle
     cx="6.8130026"
     cy="80.947197"
     r="6.8133402"
     fill="#e6e6e6"
     id="circle1131" />
  <circle
     cx="41.30204"
     cy="80.947197"
     r="6.8133402"
     fill="#e6e6e6"
     id="circle1133" />
  <circle
     cx="75.791084"
     cy="80.947197"
     r="6.8133402"
     fill="#e6e6e6"
     id="circle1135" />
  <circle
     cx="110.28012"
     cy="80.947197"
     r="6.8133402"
     fill="#e6e6e6"
     id="circle1137" />
  <circle
     cx="144.76917"
     cy="80.947197"
     r="6.8133402"
     fill="#e6e6e6"
     id="circle1139" />
  <circle
     cx="179.25819"
     cy="80.947197"
     r="6.8133402"
     fill="#e6e6e6"
     id="circle1141" />
  <circle
     cx="213.74724"
     cy="80.947197"
     r="6.8133402"
     fill="#e6e6e6"
     id="circle1143" />
  <circle
     cx="248.23628"
     cy="80.947197"
     r="6.8133402"
     fill="#e6e6e6"
     id="circle1145" />
  <circle
     cx="282.72534"
     cy="80.947197"
     r="6.8133402"
     fill="#e6e6e6"
     id="circle1147" />
  <circle
     cx="317.21439"
     cy="80.947197"
     r="6.8133402"
     fill="#e6e6e6"
     id="circle1149" />
  <circle
     cx="6.8130026"
     cy="115.86915"
     r="6.8133402"
     fill="#e6e6e6"
     id="circle1151" />
  <circle
     cx="41.30204"
     cy="115.86915"
     r="6.8133402"
     fill="#e6e6e6"
     id="circle1153" />
  <circle
     cx="75.791084"
     cy="115.86915"
     r="6.8133402"
     fill="#e6e6e6"
     id="circle1155" />
  <circle
     cx="110.28012"
     cy="115.86915"
     r="6.8133402"
     fill="#00a0f1"
     id="circle1157"
     style="fill:#910080;fill-opacity:1" />
  <circle
     cx="144.76917"
     cy="115.86915"
     r="6.8133402"
     fill="#e6e6e6"
     id="circle1159" />
  <circle
     cx="179.25819"
     cy="115.86915"
     r="6.8133402"
     fill="#e6e6e6"
     id="circle1161" />
  <circle
     cx="213.74724"
     cy="115.86915"
     r="6.8133402"
     fill="#e6e6e6"
     id="circle1163" />
  <circle
     cx="248.23628"
     cy="115.86915"
     r="6.8133402"
     fill="#e6e6e6"
     id="circle1165" />
  <circle
     cx="282.72534"
     cy="115.86915"
     r="6.8133402"
     fill="#e6e6e6"
     id="circle1167" />
  <circle
     cx="317.21439"
     cy="115.86915"
     r="6.8133402"
     fill="#e6e6e6"
     id="circle1169" />
  <circle
     cx="6.8130026"
     cy="150.79111"
     r="6.8133402"
     fill="#e6e6e6"
     id="circle1171" />
  <circle
     cx="41.30204"
     cy="150.79111"
     r="6.8133402"
     fill="#e6e6e6"
     id="circle1173" />
  <circle
     cx="75.791084"
     cy="150.79111"
     r="6.8133402"
     fill="#e6e6e6"
     id="circle1175" />
  <circle
     cx="110.28012"
     cy="150.79111"
     r="6.8133402"
     fill="#e6e6e6"
     id="circle1177" />
  <circle
     cx="144.76917"
     cy="150.79111"
     r="6.8133402"
     fill="#e6e6e6"
     id="circle1179" />
  <circle
     cx="179.25819"
     cy="150.79111"
     r="6.8133402"
     fill="#e6e6e6"
     id="circle1181" />
  <circle
     cx="213.74724"
     cy="150.79111"
     r="6.8133402"
     fill="#e6e6e6"
     id="circle1183" />
  <circle
     cx="248.23628"
     cy="150.79111"
     r="6.8133402"
     fill="#e6e6e6"
     id="circle1185" />
  <circle
     cx="282.72534"
     cy="150.79111"
     r="6.8133402"
     fill="#e6e6e6"
     id="circle1187" />
  <circle
     cx="317.21439"
     cy="150.79111"
     r="6.8133402"
     fill="#e6e6e6"
     id="circle1189" />
  <circle
     cx="6.8130026"
     cy="185.71304"
     r="6.8133402"
     fill="#e6e6e6"
     id="circle1191" />
  <circle
     cx="41.30204"
     cy="185.71304"
     r="6.8133402"
     fill="#e6e6e6"
     id="circle1193" />
  <circle
     cx="75.791084"
     cy="185.71304"
     r="6.8133402"
     fill="#e6e6e6"
     id="circle1195" />
  <circle
     cx="110.28012"
     cy="185.71304"
     r="6.8133402"
     fill="#e6e6e6"
     id="circle1197" />
  <circle
     cx="144.76917"
     cy="185.71304"
     r="6.8133402"
     fill="#e6e6e6"
     id="circle1199" />
  <circle
     cx="179.25819"
     cy="185.71304"
     r="6.8133402"
     fill="#e6e6e6"
     id="circle1201" />
  <circle
     cx="213.74724"
     cy="185.71304"
     r="6.8133402"
     fill="#e6e6e6"
     id="circle1203" />
  <circle
     cx="248.23628"
     cy="185.71304"
     r="6.8133402"
     fill="#e6e6e6"
     id="circle1205" />
  <circle
     cx="282.72534"
     cy="185.71304"
     r="6.8133402"
     fill="#e6e6e6"
     id="circle1207" />
  <circle
     cx="317.21439"
     cy="185.71304"
     r="6.8133402"
     fill="#e6e6e6"
     id="circle1209" />
  <circle
     cx="6.8130026"
     cy="220.63499"
     r="6.8133402"
     fill="#e6e6e6"
     id="circle1211" />
  <circle
     cx="41.30204"
     cy="220.63499"
     r="6.8133402"
     fill="#00a0f1"
     id="circle1213"
     style="fill:#910080;fill-opacity:1" />
  <circle
     cx="75.791084"
     cy="220.63499"
     r="6.8133402"
     fill="#e6e6e6"
     id="circle1215" />
  <circle
     cx="110.28012"
     cy="220.63499"
     r="6.8133402"
     fill="#e6e6e6"
     id="circle1217" />
  <circle
     cx="144.76917"
     cy="220.63499"
     r="6.8133402"
     fill="#e6e6e6"
     id="circle1219" />
  <circle
     cx="179.25819"
     cy="220.63499"
     r="6.8133402"
     fill="#e6e6e6"
     id="circle1221" />
  <circle
     cx="213.74724"
     cy="220.63499"
     r="6.8133402"
     fill="#e6e6e6"
     id="circle1223" />
  <circle
     cx="248.23628"
     cy="220.63499"
     r="6.8133402"
     fill="#e6e6e6"
     id="circle1225" />
  <circle
     cx="282.72534"
     cy="220.63499"
     r="6.8133402"
     fill="#e6e6e6"
     id="circle1227" />
  <circle
     cx="317.21439"
     cy="220.63499"
     r="6.8133402"
     fill="#e6e6e6"
     id="circle1229" />
  <circle
     cx="6.8130026"
     cy="255.55695"
     r="6.8133402"
     fill="#e6e6e6"
     id="circle1231" />
  <circle
     cx="41.30204"
     cy="255.55695"
     r="6.8133402"
     fill="#e6e6e6"
     id="circle1233" />
  <circle
     cx="75.791084"
     cy="255.55695"
     r="6.8133402"
     fill="#e6e6e6"
     id="circle1235" />
  <circle
     cx="110.28012"
     cy="255.55695"
     r="6.8133402"
     fill="#e6e6e6"
     id="circle1237" />
  <circle
     cx="144.76917"
     cy="255.55695"
     r="6.8133402"
     fill="#e6e6e6"
     id="circle1239" />
  <circle
     cx="179.25819"
     cy="255.55695"
     r="6.8133402"
     fill="#e6e6e6"
     id="circle1241" />
  <circle
     cx="213.74724"
     cy="255.55695"
     r="6.8133402"
     fill="#e6e6e6"
     id="circle1243" />
  <circle
     cx="248.23628"
     cy="255.55695"
     r="6.8133402"
     fill="#e6e6e6"
     id="circle1245" />
  <circle
     cx="282.72534"
     cy="255.55695"
     r="6.8133402"
     fill="#e6e6e6"
     id="circle1247" />
  <circle
     cx="317.21439"
     cy="255.55695"
     r="6.8133402"
     fill="#e6e6e6"
     id="circle1249" />
  <circle
     cx="6.8130026"
     cy="290.47888"
     r="6.8133402"
     fill="#e6e6e6"
     id="circle1251" />
  <circle
     cx="41.30204"
     cy="290.47888"
     r="6.8133402"
     fill="#e6e6e6"
     id="circle1253" />
  <circle
     cx="75.791084"
     cy="290.47888"
     r="6.8133402"
     fill="#00a0f1"
     id="circle1255"
     style="fill:#910080;fill-opacity:1" />
  <circle
     cx="110.28012"
     cy="290.47888"
     r="6.8133402"
     fill="#e6e6e6"
     id="circle1257" />
  <circle
     cx="144.76917"
     cy="290.47888"
     r="6.8133402"
     fill="#e6e6e6"
     id="circle1259" />
  <circle
     cx="179.25819"
     cy="290.47888"
     r="6.8133402"
     fill="#e6e6e6"
     id="circle1261" />
  <circle
     cx="213.74724"
     cy="290.47888"
     r="6.8133402"
     fill="#e6e6e6"
     id="circle1263" />
  <circle
     cx="248.23628"
     cy="290.47888"
     r="6.8133402"
     fill="#e6e6e6"
     id="circle1265" />
  <circle
     cx="282.72534"
     cy="290.47888"
     r="6.8133402"
     fill="#e6e6e6"
     id="circle1267" />
  <circle
     cx="317.21439"
     cy="290.47888"
     r="6.8133402"
     fill="#e6e6e6"
     id="circle1269" />
  <circle
     cx="6.8130026"
     cy="325.40085"
     r="6.8133402"
     fill="#e6e6e6"
     id="circle1271" />
  <circle
     cx="41.30204"
     cy="325.40085"
     r="6.8133402"
     fill="#e6e6e6"
     id="circle1273" />
  <circle
     cx="75.791084"
     cy="325.40085"
     r="6.8133402"
     fill="#e6e6e6"
     id="circle1275" />
  <circle
     cx="110.28012"
     cy="325.40085"
     r="6.8133402"
     fill="#e6e6e6"
     id="circle1277" />
  <circle
     cx="144.76917"
     cy="325.40085"
     r="6.8133402"
     fill="#e6e6e6"
     id="circle1279" />
  <circle
     cx="179.25819"
     cy="325.40085"
     r="6.8133402"
     fill="#e6e6e6"
     id="circle1281" />
  <circle
     cx="213.74724"
     cy="325.40085"
     r="6.8133402"
     fill="#e6e6e6"
     id="circle1283" />
  <circle
     cx="248.23628"
     cy="325.40085"
     r="6.8133402"
     fill="#e6e6e6"
     id="circle1285" />
  <circle
     cx="282.72534"
     cy="325.40085"
     r="6.8133402"
     fill="#e6e6e6"
     id="circle1287" />
  <circle
     cx="317.21439"
     cy="325.40085"
     r="6.8133402"
     fill="#e6e6e6"
     id="circle1289" />
  <circle
     cx="6.8130026"
     cy="360.32278"
     r="6.8133402"
     fill="#e6e6e6"
     id="circle1291" />
  <circle
     cx="41.30204"
     cy="360.32278"
     r="6.8133402"
     fill="#e6e6e6"
     id="circle1293" />
  <circle
     cx="75.791084"
     cy="360.32278"
     r="6.8133402"
     fill="#e6e6e6"
     id="circle1295" />
  <circle
     cx="110.28012"
     cy="360.32278"
     r="6.8133402"
     fill="#e6e6e6"
     id="circle1297" />
  <circle
     cx="144.76917"
     cy="360.32278"
     r="6.8133402"
     fill="#e6e6e6"
     id="circle1299" />
  <circle
     cx="179.25819"
     cy="360.32278"
     r="6.8133402"
     fill="#e6e6e6"
     id="circle1301" />
  <circle
     cx="213.74724"
     cy="360.32278"
     r="6.8133402"
     fill="#e6e6e6"
     id="circle1303" />
  <circle
     cx="248.23628"
     cy="360.32278"
     r="6.8133402"
     fill="#e6e6e6"
     id="circle1305" />
  <circle
     cx="282.72534"
     cy="360.32278"
     r="6.8133402"
     fill="#e6e6e6"
     id="circle1307" />
  <circle
     cx="317.21439"
     cy="360.32278"
     r="6.8133402"
     fill="#e6e6e6"
     id="circle1309" />
  <circle
     cx="6.8130026"
     cy="395.24472"
     r="6.8133402"
     fill="#e6e6e6"
     id="circle1311" />
  <circle
     cx="41.30204"
     cy="395.24472"
     r="6.8133402"
     fill="#e6e6e6"
     id="circle1313" />
  <circle
     cx="75.791084"
     cy="395.24472"
     r="6.8133402"
     fill="#e6e6e6"
     id="circle1315" />
  <circle
     cx="110.28012"
     cy="395.24472"
     r="6.8133402"
     fill="#e6e6e6"
     id="circle1317" />
  <circle
     cx="144.76917"
     cy="395.24472"
     r="6.8133402"
     fill="#e6e6e6"
     id="circle1319" />
  <circle
     cx="179.25819"
     cy="395.24472"
     r="6.8133402"
     fill="#e6e6e6"
     id="circle1321" />
  <circle
     cx="213.74724"
     cy="395.24472"
     r="6.8133402"
     fill="#e6e6e6"
     id="circle1323" />
  <circle
     cx="248.23628"
     cy="395.24472"
     r="6.8133402"
     fill="#e6e6e6"
     id="circle1325" />
  <circle
     cx="282.72534"
     cy="395.24472"
     r="6.8133402"
     fill="#e6e6e6"
     id="circle1327" />
  <circle
     cx="317.21439"
     cy="395.24472"
     r="6.8133402"
     fill="#e6e6e6"
     id="circle1329" />
  <path
     d="m 400.40464,135.02493 a 8.614,8.614 0 0 1 8.614,8.614 v 344.55938 a 8.614,8.614 0 0 1 -8.614,8.614 H 153.18323 a 8.614,8.614 0 0 1 -8.614,-8.614 V 143.63892 a 8.614,8.614 0 0 1 8.614,-8.614 h 247.22141"
     fill="#e6e6e6"
     id="path1331" />
  <path
     d="M 154.18596,487.19543 H 399.40171 V 144.6417 H 154.18596 Z"
     fill="#ffffff"
     id="path1333" />
  <path
     d="m 344.84431,198.83726 a 1.72279,1.72279 0 0 1 1.72279,1.7228 v 3.4456 a 1.72279,1.72279 0 0 1 -1.72279,1.72279 H 208.74339 a 1.72278,1.72278 0 0 1 -1.72279,-1.72279 v -3.4456 a 1.72278,1.72278 0 0 1 1.72279,-1.7228 h 136.101"
     fill="#e6e6e6"
     id="path1335" />
  <path
     d="m 344.84431,215.20383 a 1.7228,1.7228 0 0 1 1.72279,1.7228 v 3.4456 a 1.72279,1.72279 0 0 1 -1.72279,1.72279 H 208.74339 a 1.72278,1.72278 0 0 1 -1.72279,-1.72279 v -3.4456 a 1.72279,1.72279 0 0 1 1.72279,-1.7228 h 136.101"
     fill="#e6e6e6"
     id="path1337" />
  <path
     d="m 344.84431,231.57043 a 1.7228,1.7228 0 0 1 1.72279,1.72279 v 3.4456 a 1.7228,1.7228 0 0 1 -1.72279,1.72279 H 208.74339 a 1.72279,1.72279 0 0 1 -1.72279,-1.72279 v -3.4456 a 1.72279,1.72279 0 0 1 1.72279,-1.72279 h 136.101"
     fill="#00a0f1"
     id="path1339"
     style="fill:#910080;fill-opacity:1" />
  <path
     d="m 344.84431,248.29516 a 1.72279,1.72279 0 0 1 1.72279,1.72279 v 3.4456 a 1.72279,1.72279 0 0 1 -1.72279,1.72279 H 208.74339 a 1.72278,1.72278 0 0 1 -1.72279,-1.72279 v -3.4456 a 1.72278,1.72278 0 0 1 1.72279,-1.72279 h 136.101"
     fill="#e6e6e6"
     id="path1341" />
  <path
     d="m 344.84431,264.66173 a 1.72279,1.72279 0 0 1 1.72279,1.72279 v 3.4456 a 1.72279,1.72279 0 0 1 -1.72279,1.7228 H 208.74339 a 1.72278,1.72278 0 0 1 -1.72279,-1.7228 v -3.4456 a 1.72278,1.72278 0 0 1 1.72279,-1.72279 h 136.101"
     fill="#e6e6e6"
     id="path1343" />
  <path
     d="m 344.84431,281.0283 a 1.7228,1.7228 0 0 1 1.72279,1.72279 v 3.4456 a 1.72281,1.72281 0 0 1 -1.72279,1.7228 H 208.74339 a 1.7228,1.7228 0 0 1 -1.72279,-1.7228 v -3.4456 a 1.72279,1.72279 0 0 1 1.72279,-1.72279 h 136.101"
     fill="#e6e6e6"
     id="path1345" />
  <path
     d="m 209.61263,336.08443 a 2.002,2.002 0 0 0 -2,2 v 92.91552 a 2.0023,2.0023 0 0 0 2,2 h 134.13086 a 2.00229,2.00229 0 0 0 2,-2 v -92.91552 a 2.002,2.002 0 0 0 -2,-2 z"
     fill="#00a0f1"
     id="path1347"
     style="fill:#910080;fill-opacity:1" />
  <polygon
     points="484.785,46.678 307.679,46.678 277.241,161.182 275.833,160.808 306.56,45.221 484.785,45.221 "
     fill="#3f3d56"
     id="polygon1349"
     transform="translate(3.523159e-4,74.133157)" />
  <path
     d="m 499.34798,135.37359 a 15.29091,15.29091 0 1 1 15.2909,-15.29091 15.30831,15.30831 0 0 1 -15.2909,15.29091 z m 0,-29.12554 a 13.83463,13.83463 0 1 0 13.83462,13.83463 13.85037,13.85037 0 0 0 -13.83462,-13.83463 z"
     fill="#3f3d56"
     id="path1351" />
  <circle
     cx="499.34799"
     cy="120.08268"
     r="5.82511"
     fill="#00a0f1"
     id="circle1353"
     style="fill:#910080;fill-opacity:1" />
  <polygon
     points="64.715,471.047 241.82,471.387 272.477,356.941 273.884,357.317 242.937,472.845 64.712,472.504 "
     fill="#3f3d56"
     id="polygon1355"
     transform="translate(3.523159e-4,74.133157)" />
  <path
     d="m 50.180062,530.58986 a 15.29091,15.29091 0 1 1 -15.32018,15.26157 15.30832,15.30832 0 0 1 15.32018,-15.26157 z m -0.0558,29.12548 a 13.83463,13.83463 0 1 0 -13.80809,-13.86111 13.85036,13.85036 0 0 0 13.80809,13.86111 z"
     fill="#3f3d56"
     id="path1357" />
  <circle
     cx="50.150761"
     cy="545.88074"
     r="5.82511"
     fill="#00a0f1"
     id="circle1359"
     style="fill:#910080;fill-opacity:1" />
  <polygon
     points="608.386,543.702 635.548,545.17 616.828,600.594 606.551,600.594 "
     fill="#ffb8b8"
     id="polygon1361"
     transform="translate(3.523159e-4,74.133157)" />
  <path
     d="m 618.23099,707.4233 c -3.10207,1.41577 -5.70046,-10.05467 -8.31711,-7.48324 -7.31912,7.19262 -14.8815,8.75887 -24.65094,5.61857 l -0.22627,-0.0382 a 4.57524,4.57524 0 0 1 -2.88382,-5.96221 v 0 a 4.57524,4.57524 0 0 1 3.17428,-2.83216 l 7.78388,-1.946 12.22181,-21.49353 12.47673,-0.84288 v 0 a 29.80836,29.80836 0 0 1 5.51307,25.42887 c -1.13223,4.62123 -2.88009,8.54148 -5.09163,9.55081 z"
     fill="#2f2e41"
     id="path1363" />
  <polygon
     points="685.691,543.275 711.489,534.65 714.467,593.074 704.91,596.854 "
     fill="#ffb8b8"
     id="polygon1365"
     transform="translate(3.523159e-4,74.133157)" />
  <path
     d="m 727.79664,697.09543 c -2.36392,2.45747 -8.999,-7.25324 -10.48647,-3.89965 -4.16062,9.38044 -10.61684,13.61835 -20.8565,14.2914 l -0.22447,0.0477 a 4.57523,4.57523 0 0 1 -4.87458,-4.48361 v 0 a 4.57524,4.57524 0 0 1 1.91009,-3.80114 l 6.52254,-4.67249 3.45974,-24.48218 11.29216,-5.37276 v 0 a 29.80835,29.80835 0 0 1 14.47942,21.6187 c 0.64682,4.71369 0.46335,9.00206 -1.22193,10.75406 z"
     fill="#2f2e41"
     id="path1367" />
  <path
     d="m 683.26668,392.49403 -15.77836,4.05729 a 8.25773,8.25773 0 0 1 -10.30815,-7.68019 v 0 a 8.25773,8.25773 0 0 1 8.51788,-8.57081 l 13.8982,0.44833 26.78129,-9.75184 -25.31315,-18.8776 2.93635,-26.42715 49.3313,39.604 a 8.19471,8.19471 0 0 1 3.04373,5.80637 v 0 a 8.19474,8.19474 0 0 1 -6.00855,8.48733 c -11.55899,9.43313 -28.39891,12.32221 -47.10054,12.90427 z"
     fill="#ffb8b8"
     id="path1369" />
  <circle
     cx="647.29639"
     cy="267.69913"
     r="25.69306"
     fill="#ffb8b8"
     id="circle1371" />
  <path
     d="m 678.86216,302.93535 -34.50212,13.94766 a 46.63067,46.63067 0 0 0 -8.075,-30.83168 l 28.62941,-6.60679 c -0.37229,8.74382 4.35594,16.55972 13.94771,23.49081 z"
     fill="#ffb8b8"
     id="path1373" />
  <path
     d="m 685.1019,362.76348 c -27.81248,2.226 -43.02531,-1.4673 -66.43492,-15.04879 l 8.809,-20.55445 v 0 a 17.00141,17.00141 0 0 1 7.00343,-16.27794 l 9.1465,-6.47877 27.89532,-8.075 1.2513,0.0626 a 15.2693,15.2693 0 0 1 14.46186,14.07918 c 6.06018,18.11054 6.09947,35.61689 -2.13249,52.29321 z"
     fill="#00a0f1"
     id="path1375"
     style="fill:#910080;fill-opacity:1" />
  <path
     d="m 679.59625,405.70761 -59.4611,-6.60679 -4.40452,-19.08628 c -9.763,-14.73785 -5.50172,-28.23741 5.8727,-41.1089 20.73295,13.306 39.9782,19.05585 67.536,14.68175 -7.32859,17.82338 -14.09694,35.33986 -9.54308,52.12022 z"
     fill="#2f2e41"
     id="path1377" />
  <path
     d="m 725.84376,628.13614 -47.34865,-2.56931 -15.41583,-122.59262 -12.47949,121.85854 -56.1577,-2.56932 c 17.13051,-80.11107 29.03118,-156.16275 25.69306,-226.099 l 58.727,5.13861 c 19.90324,20.98571 29.78575,54.48512 35.60324,94.33029 5.81749,39.84517 10.50635,86.0361 11.37837,132.50281 z"
     fill="#2f2e41"
     id="path1379" />
  <circle
     cx="675.58038"
     cy="235.47804"
     r="8.8313198"
     fill="#2f2e41"
     id="circle1381" />
  <path
     d="m 666.48046,233.316 a 8.82437,8.82437 0 0 1 8.82714,-8.25412 c -0.18236,-0.0231 -0.36309,-0.0513 -0.549,-0.0632 a 8.8313213,8.8313213 0 0 0 -1.13325,17.62625 c 0.18595,0.0119 0.36879,0.007 0.55261,0.008 a 8.82436,8.82436 0 0 1 -7.6975,-9.31653 z"
     fill="#2f2e41"
     id="path1383" />
  <path
     d="m 666.43062,237.08721 c -7.87608,-6.53374 -30.4669,1.77036 -31.92466,6.16308 -10.65074,1.45149 -18.71465,7.66553 -18.71465,18.71459 v 6e-5 c 6.33219,2.59406 13.53384,2.27438 21.31879,0 12.40986,10.11331 13.26059,22.82682 5.71348,37.4293 l 9.285,0.18568 11.50907,-16.82092 0.55038,17.06213 21.28338,-0.42689 v -24.45111 a 51.12092,51.12092 0 0 0 -5.45822,-23.42036 c -3.31667,-6.44346 -8.46375,-10.20577 -13.56257,-14.43556 z"
     fill="#2f2e41"
     id="path1385" />
  <ellipse
     cx="646.61157"
     cy="274.37445"
     rx="4.2231598"
     ry="5.9124298"
     fill="#ffb8b8"
     id="ellipse1387" />
  <path
     d="m 614.30881,501.12267 a 1.483,1.483 0 0 1 1.483,1.483 v 59.31928 a 1.483,1.483 0 0 1 -1.483,1.483 h -42.5616 a 1.483,1.483 0 0 1 -1.483,-1.483 v -59.31929 a 1.483,1.483 0 0 1 1.483,-1.483 h 42.5616"
     fill="#00a0f1"
     id="path1389"
     style="fill:#910080;fill-opacity:1" />
  <path
     d="m 620.13515,479.11636 1.43732,24.91342 a 10.8188,10.8188 0 0 1 -12.37492,11.3268 v 0 c -6.32954,-0.93081 -6.47336,-7.121 -4.92171,-13.32762 l 5.91167,-23.64668 c 14.50235,-51.99824 18.41745,-103.03575 17.68369,-152.8119 a 12.4975,12.4975 0 0 1 12.83385,-12.71395 v 0 a 12.4912,12.4912 0 0 1 12.12134,12.92719 c -2.05288,58.45023 -10.57807,111.52941 -32.69124,153.33274 z"
     fill="#ffb8b8"
     id="path1391" />
</svg>
