<?xml version="1.0" standalone="no"?>
<!DOCTYPE svg PUBLIC "-//W3C//DTD SVG 20010904//EN"
 "http://www.w3.org/TR/2001/REC-SVG-20010904/DTD/svg10.dtd">
<svg version="1.0" xmlns="http://www.w3.org/2000/svg"
 width="700.000000pt" height="700.000000pt" viewBox="0 0 700.000000 700.000000"
 preserveAspectRatio="xMidYMid meet">
<metadata>
Created by potrace 1.14, written by Peter Selinger 2001-2017
</metadata>
<g transform="translate(0.000000,700.000000) scale(0.100000,-0.100000)"
fill="#000000" stroke="none">
<path d="M3895 6545 c-212 -35 -439 -125 -617 -247 -89 -61 -259 -218 -310
-286 l-24 -33 -115 56 c-222 109 -402 150 -659 149 -189 0 -303 -18 -460 -70
-375 -125 -696 -410 -864 -764 -223 -473 -185 -1006 104 -1457 13 -21 10 -26
-68 -105 -249 -251 -396 -575 -421 -927 -20 -266 31 -526 149 -763 202 -405
553 -679 1005 -784 109 -25 138 -28 310 -28 184 0 267 10 411 50 18 5 27 -7
66 -84 204 -404 575 -689 1016 -782 125 -27 356 -37 477 -21 409 54 763 260
1007 585 159 213 268 503 285 759 4 51 11 90 17 92 6 2 56 10 112 18 522 81
968 459 1147 973 256 734 -114 1551 -835 1845 l-74 30 15 67 c11 48 15 124 15
267 0 169 -3 215 -21 297 -102 455 -388 826 -788 1022 -129 63 -201 89 -345
123 -136 31 -397 40 -535 18z m-425 -2782 c58 -28 117 -55 133 -58 30 -8 31
-11 16 -86 -6 -30 -13 -94 -17 -144 l-7 -90 -80 -11 c-44 -6 -108 -19 -143
-28 -35 -9 -68 -16 -73 -16 -5 0 -29 39 -53 88 -25 48 -58 107 -75 131 l-30
44 107 113 c59 62 109 112 112 111 3 -1 52 -25 110 -54z"/>
</g>
</svg>
