<svg viewBox="0 0 135.467 135.467" height="1em" width="1em" xml:space="preserve" xmlns="http://www.w3.org/2000/svg"><path style="fill:currentColor;stroke-linecap:round;stroke-linejoin:round;stroke-miterlimit:20" d="M43.61 75.234a3.97 3.97 0 0 0-3.97 3.969v21.793a3.97 3.97 0 0 0 3.97 3.969h17.154v-7.938H47.578V83.172h13.186v-7.938H43.61zm31.092 0v7.938h13.187v13.855H74.702v7.938h17.155a3.97 3.97 0 0 0 3.97-3.97V79.204a3.97 3.97 0 0 0-3.97-3.969H74.702z"/><path style="fill:currentColor;stroke:none;stroke-width:3.96875;stroke-linecap:round;stroke-linejoin:round;stroke-dasharray:none;stroke-opacity:1" d="M67.733 19.754a3.969 3.969 0 0 0-3.969 3.969v91.414a3.969 3.969 0 0 0 3.969 3.968 3.969 3.969 0 0 0 3.968-3.968V23.723a3.969 3.969 0 0 0-3.968-3.97z"/><circle r="12.171" cy="67.734" cx="20.681" style="fill:currentColor;fill-opacity:1;stroke:none;stroke-width:3.96875;stroke-linecap:round;stroke-linejoin:round;stroke-dasharray:none;stroke-opacity:1" transform="matrix(0 1 1 0 0 0)"/><path d="m67.734 125.191-12.171-12.17h24.341z" style="fill:currentColor;fill-opacity:1;"/><path style="fill:currentColor;stroke-linecap:round;stroke-linejoin:round;stroke-miterlimit:20" d="M43.61 38.194a3.97 3.97 0 0 0-3.97 3.968v21.793a3.97 3.97 0 0 0 3.97 3.969h17.154v-7.937H47.578V46.13h13.186v-7.937H43.61zm31.092 0v7.937h13.187v13.856H74.702v7.937h17.155a3.97 3.97 0 0 0 3.97-3.969V42.162a3.97 3.97 0 0 0-3.97-3.968H74.702z"/></svg>