<svg viewBox="0 0 135.467 135.467" height="1em" width="1em" xml:space="preserve" xmlns="http://www.w3.org/2000/svg"><path style="fill:currentColor" d="M67.731 20.637a3.969 3.969 0 0 0-3.968 3.968v91.415a3.969 3.969 0 0 0 3.968 3.968 3.969 3.969 0 0 0 3.97-3.968V24.605a3.969 3.969 0 0 0-3.97-3.968z"/><circle r="12.171" cy="67.732" cx="21.564" style="fill:currentColor;fill-opacity:1" transform="matrix(0 1 1 0 0 0)"/><path d="m67.732 126.074-12.17-12.17h24.341z" style="fill:currentColor;fill-opacity:1"/><path style="fill:currentColor;" d="M33.023 36.992a3.97 3.97 0 0 0-3.968 3.969v21.793a3.97 3.97 0 0 0 3.968 3.969h21.793a3.97 3.97 0 0 0 3.97-3.97V40.962a3.97 3.97 0 0 0-3.97-3.969zm47.625 0a3.97 3.97 0 0 0-3.968 3.969v21.793a3.97 3.97 0 0 0 3.968 3.969h21.793a3.97 3.97 0 0 0 3.97-3.97V40.962a3.97 3.97 0 0 0-3.97-3.969zM36.992 44.93h13.856v13.855H36.992Zm47.625 0h13.856v13.855H84.617ZM33.023 74.035a3.97 3.97 0 0 0-3.968 3.969v21.793a3.97 3.97 0 0 0 3.968 3.969h21.793a3.97 3.97 0 0 0 3.97-3.97V78.005a3.97 3.97 0 0 0-3.97-3.969zm47.625 0a3.97 3.97 0 0 0-3.968 3.969v21.793a3.97 3.97 0 0 0 3.968 3.969h21.793a3.97 3.97 0 0 0 3.97-3.97V78.005a3.97 3.97 0 0 0-3.97-3.969zm-43.656 7.938h13.856v13.855H36.992Zm47.625 0h13.856v13.855H84.617Z"/></svg>