<?xml version="1.0" encoding="iso-8859-1"?>
<!-- Uploaded to: SVG Repo, www.svgrepo.com, Generator: SVG Repo Mixer Tools -->
<svg height="800px" width="800px" version="1.1" id="Layer_1" xmlns="http://www.w3.org/2000/svg" xmlns:xlink="http://www.w3.org/1999/xlink" 
	 viewBox="0 0 512.002 512.002" xml:space="preserve">
<path style="fill:#CFF09E;" d="M419.15,83.345H92.852c-5.252,0-9.508,4.256-9.508,9.508v104.759h113.217v116.781H83.342v104.759
	c0,5.252,4.258,9.508,9.508,9.508h111.604l0,0h214.693c5.252,0,9.508-4.256,9.508-9.508v-231.71V92.853
	C428.658,87.601,424.4,83.345,419.15,83.345z"/>
<g>
	<path style="fill:#507C5C;" d="M419.15,444.439H92.85c-13.944,0-25.289-11.345-25.289-25.289V314.393
		c0-8.716,7.065-15.781,15.781-15.781h97.436v-85.219H83.344c-8.716,0-15.781-7.065-15.781-15.781V92.853
		c0-13.944,11.345-25.289,25.289-25.289h326.299c13.944,0,25.289,11.345,25.289,25.289v326.298
		C444.439,433.095,433.094,444.439,419.15,444.439z M99.125,412.878h313.752V99.126H99.125v82.705h97.436
		c8.716,0,15.781,7.065,15.781,15.781v116.781c0,8.716-7.065,15.781-15.781,15.781H99.125V412.878z"/>
	<path style="fill:#507C5C;" d="M472.862,512.001H39.14C17.558,512.001,0,494.443,0,472.862V345.894
		c0-8.716,7.065-15.781,15.781-15.781s15.781,7.065,15.781,15.781v126.969c0,4.177,3.399,7.578,7.578,7.578h433.722
		c4.177,0,7.578-3.399,7.578-7.578V39.141c0-4.177-3.399-7.578-7.578-7.578H39.14c-4.179,0-7.578,3.399-7.578,7.578v214.043
		c0,8.716-7.065,15.781-15.781,15.781S0,261.9,0,253.184V39.141c0-21.582,17.558-39.14,39.14-39.14h433.722
		c21.582,0,39.14,17.558,39.14,39.14v433.722C512,494.443,494.442,512.001,472.862,512.001z"/>
	<path style="fill:#507C5C;" d="M196.561,381.309c-8.716,0-15.781-7.065-15.781-15.781V83.345c0-8.716,7.065-15.781,15.781-15.781
		s15.781,7.065,15.781,15.781v282.184C212.342,374.244,205.277,381.309,196.561,381.309z"/>
	<path style="fill:#507C5C;" d="M313.342,444.439c-8.716,0-15.781-7.065-15.781-15.781V146.473c0-8.716,7.065-15.781,15.781-15.781
		c8.716,0,15.781,7.065,15.781,15.781v282.185C329.123,437.374,322.057,444.439,313.342,444.439z"/>
	<path style="fill:#507C5C;" d="M427.608,213.392H83.344c-8.716,0-15.781-7.065-15.781-15.781s7.065-15.781,15.781-15.781H427.61
		c8.716,0,15.781,7.065,15.781,15.781C443.391,206.327,436.324,213.392,427.608,213.392z"/>
	<path style="fill:#507C5C;" d="M427.608,330.173H83.873c-8.716,0-15.781-7.065-15.781-15.781c0-8.716,7.065-15.781,15.781-15.781
		h343.736c8.716,0,15.781,7.065,15.781,15.781C443.389,323.108,436.324,330.173,427.608,330.173z"/>
</g>
</svg>