<?xml version="1.0" encoding="UTF-8" standalone="no"?>
<svg
   data-name="Layer 1"
   width="676.65802"
   height="676.65802"
   viewBox="0 0 676.65802 676.65805"
   version="1.1"
   id="svg66"
   sodipodi:docname="banner-settings.svg"
   inkscape:version="1.2.2 (732a01da63, 2022-12-09)"
   xmlns:inkscape="http://www.inkscape.org/namespaces/inkscape"
   xmlns:sodipodi="http://sodipodi.sourceforge.net/DTD/sodipodi-0.dtd"
   xmlns="http://www.w3.org/2000/svg"
   xmlns:svg="http://www.w3.org/2000/svg">
  <defs
     id="defs70" />
  <sodipodi:namedview
     id="namedview68"
     pagecolor="#ffffff"
     bordercolor="#666666"
     borderopacity="1.0"
     inkscape:showpageshadow="2"
     inkscape:pageopacity="0.0"
     inkscape:pagecheckerboard="0"
     inkscape:deskcolor="#d1d1d1"
     showgrid="false"
     inkscape:zoom="0.73724119"
     inkscape:cx="255.68295"
     inkscape:cy="249.57911"
     inkscape:window-width="1920"
     inkscape:window-height="1017"
     inkscape:window-x="1912"
     inkscape:window-y="-8"
     inkscape:window-maximized="1"
     inkscape:current-layer="svg66" />
  <g
     id="g333"
     transform="translate(-1.5999023e-4,49.65514)">
    <path
       id="a24dc8e0-63f3-4c57-9da7-8d00cfa1aebe-3263"
       data-name="Path 438"
       d="m 315.04317,528.39757 a 24.21461,24.21461 0 0 0 23.38269,-4.11876 c 8.18977,-6.87442 10.758,-18.196 12.8467,-28.68192 l 6.17973,-31.01657 -12.9377,8.90837 c -9.30465,6.40641 -18.81826,13.01866 -25.26011,22.29785 -6.44185,9.27919 -9.25223,21.94708 -4.07792,31.988"
       fill="#e4e4e4" />
    <path
       id="bc8b2ee0-9ec2-4139-a7e3-e0b1b1382397-3264"
       data-name="Path 439"
       d="m 317.04087,568.10814 c -1.62839,-11.86369 -3.30382,-23.88079 -2.15884,-35.87168 1.01467,-10.64932 4.26373,-21.0488 10.87831,-29.57938 A 49.20606,49.20606 0 0 1 338.385,491.2167 c 1.26215,-0.79648 2.42409,1.20354 1.16733,1.997 a 46.77942,46.77942 0 0 0 -18.50446,22.32557 c -4.02857,10.24607 -4.67545,21.41582 -3.98154,32.3003 0.41944,6.58218 1.31074,13.12121 2.20588,19.65251 a 1.19817,1.19817 0 0 1 -0.808,1.42251 1.16348,1.16348 0 0 1 -1.42253,-0.808 z"
       fill="#f2f2f2" />
    <path
       id="a6bcb68f-fec1-4497-88cc-56de52c10faf-3265"
       data-name="Path 442"
       d="m 328.7619,549.07168 a 17.82511,17.82511 0 0 0 15.53141,8.01862 c 7.8644,-0.37318 14.41806,-5.85972 20.31713,-11.07027 l 17.452,-15.4088 -11.54987,-0.5528 c -8.30619,-0.39784 -16.82672,-0.771 -24.73813,1.79338 -7.91141,2.56438 -15.20758,8.72638 -16.654,16.9154"
       fill="#e4e4e4" />
    <path
       id="a1650e23-bf32-4c95-848c-aacb59e17a01-3266"
       data-name="Path 443"
       d="m 312.43789,574.92787 c 7.83972,-13.87142 16.93234,-29.28794 33.1808,-34.21551 a 37.02589,37.02589 0 0 1 13.95545,-1.44105 c 1.48189,0.128 1.11179,2.41174 -0.367,2.28454 a 34.39826,34.39826 0 0 0 -22.27164,5.89214 c -6.27994,4.27454 -11.16975,10.21756 -15.30781,16.51907 -2.53511,3.86051 -4.80576,7.88445 -7.07642,11.903 -0.72556,1.28447 -2.84739,0.35693 -2.11338,-0.94219 z"
       fill="#f2f2f2" />
    <path
       d="M 572.66227,406.79077 H 0 V 0 h 572.66227 z"
       fill="#ffffff"
       id="path6" />
    <path
       d="m 46.64817,167.07628 a 5.57978,5.57978 0 0 0 0,11.15956 H 240.0376 a 5.57979,5.57979 0 0 0 0,-11.15956 z"
       fill="#ff7c00"
       id="path8" />
    <path
       d="m 46.64817,200.55493 a 5.5797924,5.5797924 0 1 0 -0.0235,11.15956 h 193.55581 a 5.57978,5.57978 0 1 0 0,-11.15956 z"
       fill="#ff7c00"
       id="path10" />
    <path
       d="m 46.64817,233.55493 a 5.5797924,5.5797924 0 1 0 -0.0235,11.15956 h 43.55577 a 5.57978,5.57978 0 1 0 0,-11.15956 z"
       fill="#ff7c00"
       id="path12" />
    <path
       d="M 572.66227,406.79077 H 0 V 0 H 572.66227 Z M 9.41363,397.37714 h 553.835 V 9.41363 H 9.41363 Z"
       fill="#e5e5e5"
       id="path14" />
    <path
       d="m 392.47242,317.40615 a 10.03692,10.03692 0 0 0 -0.0423,20.07379 h 95.83757 a 10.0369,10.0369 0 1 0 0,-20.07379 z"
       fill="#e4e4e4"
       id="path16" />
    <path
       d="m 392.47242,195.8585 a 10.03692,10.03692 0 0 0 -0.0423,20.07379 h 95.83757 a 10.0369,10.0369 0 1 0 0,-20.07379 z"
       fill="#e4e4e4"
       id="path18" />
    <path
       d="m 46.64817,322.05493 a 5.5797924,5.5797924 0 1 0 -0.0235,11.15956 h 193.55581 a 5.57978,5.57978 0 1 0 0,-11.15956 z"
       fill="#e4e4e4"
       id="path20" />
    <path
       d="m 46.64817,355.05493 a 5.5797924,5.5797924 0 1 0 -0.0235,11.15956 h 43.55577 a 5.57978,5.57978 0 1 0 0,-11.15956 z"
       fill="#e4e4e4"
       id="path22" />
    <path
       d="m 46.64817,288.57628 a 5.57978,5.57978 0 0 0 0,11.15956 H 240.0376 a 5.57979,5.57979 0 0 0 0,-11.15956 z"
       fill="#e4e4e4"
       id="path24" />
    <path
       d="m 46.64817,45.57628 a 5.57978,5.57978 0 0 0 0,11.15956 H 240.0376 a 5.57979,5.57979 0 0 0 0,-11.15956 z"
       fill="#e4e4e4"
       id="path26" />
    <path
       d="m 46.64817,79.05493 a 5.5797924,5.5797924 0 1 0 -0.0235,11.15956 h 193.55581 a 5.57978,5.57978 0 1 0 0,-11.15956 z"
       fill="#e4e4e4"
       id="path28" />
    <path
       d="m 46.64817,112.05493 a 5.5797924,5.5797924 0 1 0 -0.0235,11.15956 h 43.55577 a 5.57978,5.57978 0 1 0 0,-11.15956 z"
       fill="#e4e4e4"
       id="path30" />
    <path
       d="m 392.47242,74.40615 a 10.03692,10.03692 0 0 0 -0.0423,20.07379 h 95.83757 a 10.0369,10.0369 0 1 0 0,-20.07379 z"
       fill="#e4e4e4"
       id="path32" />
    <circle
       cx="412.66226"
       cy="84.34774"
       r="18"
       fill="#cacaca"
       id="circle34" />
    <path
       d="m 444.1225,210.24787 a 9.97765,9.97765 0 0 0 10.27632,11.3346 l 9.55853,20.70035 13.99627,-2.74057 -13.90907,-29.04338 A 10.03173,10.03173 0 0 0 444.1225,210.2478 Z"
       fill="#ffb6b6"
       id="path36" />
    <polygon
       points="474.434,222.586 455.198,231.891 480.162,285.848 543.226,322.253 540.954,288.584 501.954,269.293 "
       fill="#3f3d56"
       id="polygon38" />
    <polygon
       points="452.907,564.696 440.647,564.695 434.814,529.347 452.909,529.348 "
       fill="#ffb6b6"
       id="polygon40" />
    <path
       d="m 456.03359,576.57967 -39.53077,-10e-4 v -0.5 a 15.38731,15.38731 0 0 1 15.38648,-15.38623 h 0.001 l 24.144,10e-4 z"
       fill="#2f2e41"
       id="path42" />
    <polygon
       points="575.282,542.21 566.728,550.992 537.336,530.508 549.961,517.546 "
       fill="#ffb6b6"
       id="polygon44" />
    <path
       d="m 585.97696,548.26162 -27.582,28.318 -0.35819,-0.34886 a 15.38729,15.38729 0 0 1 -0.28711,-21.75769 l 6.8e-4,-7e-4 16.84623,-17.29565 z"
       fill="#2f2e41"
       id="path46" />
    <path
       d="m 468.06385,354.32594 h -8.47936 v 0 a 236.91236,236.91236 0 0 0 -49.42272,83.37115 l -10.12942,29.65878 36.10213,75.59 22.52779,0.40187 -25.748,-80.25184 25.94027,-34.4 1.30776,69.15187 83.49213,43.76321 16.71006,-24.6851 -67.94,-37.15 11.57,-58.81995 c 0,0 23.2789,-19.41188 9.72338,-49.76 z"
       fill="#2f2e41"
       id="path48" />
    <path
       d="m 579.66227,277.34774 -35.23561,-15.43227 -38.78217,17.1854 c 0,0 -10.98222,6.2469 -3.98222,22.2469 l -42.07778,52.9782 c 0,0 0.0778,0.0218 52.9599,16.86993 l 47.71093,-42.01618 a 58.74345,58.74345 0 0 0 19.407,-51.83192 z"
       fill="#3f3d56"
       id="path50" />
    <circle
       cx="573.7489"
       cy="236.89893"
       r="24.561029"
       fill="#ffb6b6"
       id="circle52" />
    <path
       d="m 605.55693,204.30538 c -5.63671,-4.58572 -14.37921,-5.587 -20.19831,-1.23521 -10.14917,-5.3269 -23.86487,-2.54823 -31.14037,6.30878 -2.61816,3.18714 -4.47305,7.49893 -3.17756,11.41475 1.29549,3.91576 6.8819,6.21772 9.7939,3.29669 l -0.0519,1.20334 a 19.49485,19.49485 0 0 1 -12.1204,33.19831 q 12.07284,4.877 24.14539,9.754 c 3.38659,1.36806 6.88109,2.7578 10.53325,2.73911 3.65216,-0.0187 7.54514,-1.79319 8.96241,-5.15925 q 1.52858,4.6851 3.05687,9.37027 a 154.226,154.226 0 0 0 14.71518,-30.33694 c 2.43658,-6.84569 4.40646,-14.00465 4.14333,-21.26636 -0.26312,-7.26161 -3.02507,-14.70177 -8.66177,-19.28749 z"
       fill="#2f2e41"
       id="path54" />
    <circle
       cx="412.66226"
       cy="327.34775"
       r="18"
       fill="#cacaca"
       id="circle56" />
    <circle
       cx="468.66226"
       cy="205.89539"
       r="18"
       fill="#ff7c00"
       id="circle58" />
    <path
       d="m 469.1225,200.24787 a 9.97765,9.97765 0 0 0 10.27632,11.3346 l 9.55853,20.70035 13.99627,-2.74057 -13.90907,-29.04338 A 10.03173,10.03173 0 0 0 469.1225,200.2478 Z"
       fill="#ffb6b6"
       id="path60" />
    <polygon
       points="499.434,212.586 480.198,221.891 505.162,275.848 568.226,312.253 565.954,278.584 526.954,259.293 "
       fill="#3f3d56"
       id="polygon62" />
    <path
       d="m 675.65834,577.34774 h -381 a 1,1 0 0 1 0,-2 h 381 a 1,1 0 0 1 0,2 z"
       fill="#cacaca"
       id="path64" />
  </g>
</svg>
