<?xml version="1.0" encoding="UTF-8" standalone="no"?>
<svg
   data-name="Layer 1"
   width="860.151"
   height="860.151"
   viewBox="0 0 860.15102 860.151"
   version="1.1"
   id="svg808"
   sodipodi:docname="banner-share.svg"
   inkscape:version="1.2.2 (732a01da63, 2022-12-09)"
   xmlns:inkscape="http://www.inkscape.org/namespaces/inkscape"
   xmlns:sodipodi="http://sodipodi.sourceforge.net/DTD/sodipodi-0.dtd"
   xmlns="http://www.w3.org/2000/svg"
   xmlns:svg="http://www.w3.org/2000/svg">
  <defs
     id="defs812" />
  <sodipodi:namedview
     id="namedview810"
     pagecolor="#ffffff"
     bordercolor="#666666"
     borderopacity="1.0"
     inkscape:showpageshadow="2"
     inkscape:pageopacity="0.0"
     inkscape:pagecheckerboard="0"
     inkscape:deskcolor="#d1d1d1"
     showgrid="false"
     inkscape:zoom="1.3359133"
     inkscape:cx="505.64658"
     inkscape:cy="479.073"
     inkscape:window-width="2560"
     inkscape:window-height="1377"
     inkscape:window-x="1912"
     inkscape:window-y="-8"
     inkscape:window-maximized="1"
     inkscape:current-layer="svg808" />
  <path
     d="m 45.7793,752.51387 -0.95117,-1.75879 c 12.75342,-6.89746 28.62573,-15.481 36.916,-29.56738 8.17237,-13.88623 8.35572,-32.74268 0.47852,-49.21094 -6.70361,-14.01562 -19.01782,-26.57226 -35.61108,-36.313 -3.273,-1.92138 -6.70874,-3.74218 -10.0315,-5.50341 C 28.54858,625.904 20.24365,621.50214 13.39575,615.25751 3.9641,606.65644 -3.17213,592.22285 2.14675,579.3664 a 23.85566,23.85566 0 0 1 20.67749,-14.46728 l 0.1128,1.99707 a 21.8606,21.8606 0 0 0 -18.94776,13.248 c -4.94263,11.94727 1.83862,25.50489 10.75415,33.63574 6.66065,6.07374 14.85181,10.415 22.77319,14.61329 3.34156,1.771 6.79712,3.60254 10.10767,5.54589 16.93848,9.94336 29.52637,22.79786 36.40259,37.17432 8.1604,17.06055 7.94629,36.63672 -0.55908,51.08887 -8.57278,14.56597 -24.71658,23.29692 -37.6885,30.31157 z"
     fill="#f1f1f1"
     id="path702" />
  <ellipse
     cx="35.5"
     cy="566.94025"
     rx="17.5"
     ry="8.5"
     fill="#f1f1f1"
     id="ellipse704" />
  <ellipse
     cx="49.5"
     cy="622.94031"
     rx="17.5"
     ry="8.5"
     fill="#f1f1f1"
     id="ellipse706" />
  <ellipse
     cx="17.5"
     cy="631.94031"
     rx="17.5"
     ry="8.5"
     fill="#f1f1f1"
     id="ellipse708" />
  <ellipse
     cx="67.5"
     cy="678.94031"
     rx="17.5"
     ry="8.5"
     fill="#f1f1f1"
     id="ellipse710" />
  <ellipse
     cx="102.5"
     cy="678.94031"
     rx="17.5"
     ry="8.5"
     fill="#f1f1f1"
     id="ellipse712" />
  <path
     d="m 220.47093,544.97443 h 41.30365 a 144.4636,144.4636 0 0 0 0,-49.24668 h -41.30365 a 88.61136,88.61136 0 0 1 0,49.24668 z"
     fill="#00a0f1"
     id="path714"
     style="fill:#5ec418;fill-opacity:1" />
  <polygon
     points="109.746,589.655 93.006,589.656 93.008,633.403 104.35,633.403 "
     fill="#ffb7b7"
     id="polygon716"
     transform="translate(0,107.0755)" />
  <path
     d="m 90.11508,736.7755 22.33642,-9.1e-4 h 9e-4 a 14.23527,14.23527 0 0 1 14.23451,14.23429 v 0.46257 l -36.57115,10e-4 z"
     fill="#2f2e41"
     id="path718" />
  <polygon
     points="235.073,586.55 218.818,590.551 229.273,633.03 240.286,630.32 "
     fill="#ffb7b7"
     id="polygon720"
     transform="translate(0,107.0755)" />
  <path
     d="m 225.57896,737.20136 21.6892,-5.338 8.8e-4,-2.2e-4 a 14.23529,14.23529 0 0 1 17.22335,10.42078 l 0.11053,0.44916 -35.51152,8.73966 z"
     fill="#2f2e41"
     id="path722" />
  <path
     d="m 86.03319,730.04725 2.35609,-12.05466 c 0,0 4.337,-46.54492 35.46228,-92.99741 l 10.13116,-50.46137 c 0,0 -3.0088,-38.196 26.03151,-58.87161 l 8.95312,-6.1675 31.39,1.79924 7.24979,39.69123 14.60772,93.91422 c 0,0 3.76973,0.35337 5.18338,11.21364 a 32.66006,32.66006 0 0 1 4.94778,15.13841 c 0,0 7.47574,20.62345 9.47841,35.80785 l -0.23561,14.85807 -15.78576,8.41023 -32.90147,-93.04772 -23.53251,-52.01923 c 0,0 -11.32633,36.65079 -28.67473,68.049 0,0 -23.76156,51.4307 -28.50861,61.87956 l -5.18339,17.1008 z"
     fill="#2f2e41"
     id="path724" />
  <circle
     cx="190.98689"
     cy="407.19083"
     r="22.43647"
     fill="#ffb7b7"
     id="circle726" />
  <circle
     cx="190.98689"
     cy="407.19083"
     r="22.43647"
     fill="#ffb8b8"
     id="circle728" />
  <path
     d="m 160.07992,515.90167 7.4066,-18.50076 a 83.21046,83.21046 0 0 1 0.91546,-51.88311 v 0 l 1.417,-1.16693 c 12.345,-10.16646 23.18007,-8.31559 33.23482,4.12055 v 0 a 27.79875,27.79875 0 0 0 5.62613,5.30481 c 4.43448,3.11126 11.4698,20.01463 2.18066,29.92306 l -7.43132,43.34936 c 0.78257,23.93385 -16.58499,14.92164 -43.34935,-11.14698 z"
     fill="#3f3d56"
     id="path730" />
  <path
     d="m 225.84773,541.45692 a 8.21447,8.21447 0 0 0 -10.59312,-6.81484 l -12.02453,-14.41449 -10.54188,5.17081 17.26687,20.11756 a 8.259,8.259 0 0 0 15.89266,-4.059 z"
     fill="#ffb7b7"
     id="path732" />
  <path
     d="m 200.38037,541.26782 -30.10794,-45.12732 8.706,-32.72127 a 12.38549,12.38549 0 0 1 22.28654,10.81255 l -10.424,21.53195 24.451,35.06533 z"
     fill="#cccccc"
     id="path734" />
  <circle
     cx="150.99377"
     cy="380.75171"
     r="21.52503"
     fill="#2f2e41"
     id="circle736" />
  <path
     d="m 132.42731,398.57581 a 21.52619,21.52619 0 0 0 33.24036,-11.30244 21.52622,21.52622 0 1 1 -41.98955,-8.82725 21.51828,21.51828 0 0 0 8.74919,20.12969 z"
     fill="#2f2e41"
     id="path738" />
  <path
     d="m 217.37459,398.59973 c -3.75771,-6.72739 -5.19556,-9.53761 -10.04069,-13.62845 -4.28456,-3.61793 -9.55471,-4.68042 -13.80552,-1.25235 a 25.45685,25.45685 0 1 0 15.36,23.367 25.66776,25.66776 0 0 0 -0.17344,-2.87844 c 3.69495,-0.51889 4.96469,-5.08884 8.65965,-5.60776 z"
     fill="#2f2e41"
     id="path740" />
  <path
     d="m 325.33126,753.0755 h -305 a 1,1 0 0 1 0,-2 h 305 a 1,1 0 1 1 0,2 z"
     fill="#cbcbcb"
     id="path742" />
  <path
     d="m 790.4381,187.71964 h -0.932 v -25.53293 a 14.77776,14.77776 0 0 0 -14.77775,-14.77778 h -54.095 a 14.77776,14.77776 0 0 0 -14.77784,14.77773 v 140.07566 a 14.77777,14.77777 0 0 0 14.77775,14.77778 h 54.095 a 14.77777,14.77777 0 0 0 14.77781,-14.77772 v -96.368 h 0.93205 z"
     fill="#e5e5e5"
     id="path744" />
  <path
     d="m 774.70804,151.2536 h -7.06118 a 5.24313,5.24313 0 0 1 -4.85441,7.2233 h -30.99032 a 5.2431,5.2431 0 0 1 -4.85441,-7.22331 h -6.59516 a 11.03587,11.03587 0 0 0 -11.03588,11.03585 v 139.87013 a 11.03586,11.03586 0 0 0 11.03583,11.03587 h 54.3555 a 11.03587,11.03587 0 0 0 11.03588,-11.03586 v 0 -139.87008 a 11.03586,11.03586 0 0 0 -11.03585,-11.0359 z"
     fill="#ffffff"
     id="path746" />
  <rect
     x="742.68976"
     y="202.5358"
     width="33.701172"
     height="2.67015"
     fill="#e5e5e5"
     id="rect748" />
  <rect
     x="742.68976"
     y="210.99127"
     width="33.701172"
     height="2.67015"
     fill="#e5e5e5"
     id="rect750" />
  <rect
     x="742.68976"
     y="219.44673"
     width="33.701172"
     height="2.67015"
     fill="#e5e5e5"
     id="rect752" />
  <rect
     x="719.90271"
     y="204.18599"
     width="16.280689"
     height="16.280689"
     fill="#e5e5e5"
     id="rect754" />
  <circle
     cx="731.03516"
     cy="254.82834"
     r="7.0848899"
     fill="#00a0f1"
     id="circle756"
     style="fill:#5ec418;fill-opacity:1" />
  <circle
     cx="749.92816"
     cy="254.82834"
     r="5.78936"
     fill="#00a0f1"
     id="circle758"
     style="fill:#5ec418;fill-opacity:1" />
  <circle
     cx="768.82117"
     cy="254.82834"
     r="3.5222001"
     fill="#00a0f1"
     id="circle760"
     style="fill:#5ec418;fill-opacity:1" />
  <path
     d="M 543.52859,309.36803 H 419.34833 A 11.11416,11.11416 0 0 1 408.24672,298.26642 V 118.17711 a 11.11416,11.11416 0 0 1 11.10161,-11.10161 h 124.18026 a 11.11416,11.11416 0 0 1 11.10161,11.10161 v 180.08931 a 11.11416,11.11416 0 0 1 -11.10161,11.10161 z"
     fill="#e5e5e5"
     id="path762" />
  <path
     d="M 543.74717,302.28496 H 419.12975 a 3.42611,3.42611 0 0 1 -3.4222,-3.4222 v -181.282 a 3.42611,3.42611 0 0 1 3.4222,-3.4222 h 124.61742 a 3.42611,3.42611 0 0 1 3.4222,3.4222 v 181.282 a 3.42611,3.42611 0 0 1 -3.4222,3.4222 z"
     fill="#ffffff"
     id="path764" />
  <circle
     cx="480.96625"
     cy="110.47537"
     r="0.94441003"
     fill="#ffffff"
     id="circle766" />
  <rect
     x="463.77609"
     y="169.75511"
     width="69.310768"
     height="3.98242"
     fill="#e5e5e5"
     id="rect768" />
  <rect
     x="463.77609"
     y="182.36609"
     width="69.310768"
     height="3.98242"
     fill="#e5e5e5"
     id="rect770" />
  <rect
     x="463.77609"
     y="194.97708"
     width="69.310768"
     height="3.98242"
     fill="#e5e5e5"
     id="rect772" />
  <rect
     x="429.79007"
     y="172.21631"
     width="24.281981"
     height="24.281981"
     fill="#e5e5e5"
     id="rect774" />
  <circle
     cx="458.13574"
     cy="237.04021"
     r="9.6482201"
     fill="#00a0f1"
     id="circle776"
     style="fill:#5ec418;fill-opacity:1" />
  <circle
     cx="483.86429"
     cy="237.04021"
     r="7.8839698"
     fill="#00a0f1"
     id="circle778"
     style="fill:#5ec418;fill-opacity:1" />
  <circle
     cx="509.59286"
     cy="237.04021"
     r="4.7965398"
     fill="#00a0f1"
     id="circle780"
     style="fill:#5ec418;fill-opacity:1" />
  <path
     d="M 779.65265,326.02843 H 413.26399 a 10.08456,10.08456 0 0 0 -10.08457,10.08455 v 204.145 a 10.08459,10.08459 0 0 0 10.08457,10.0846 h 366.38866 a 10.08459,10.08459 0 0 0 10.08457,-10.0846 v -204.145 a 10.08457,10.08457 0 0 0 -10.08457,-10.08455 z"
     fill="#3f3d56"
     id="path782" />
  <rect
     x="416.69974"
     y="343.85065"
     width="359.51715"
     height="202.80455"
     fill="#ffffff"
     id="rect784" />
  <circle
     cx="596.151"
     cy="334.63226"
     r="3.68735"
     fill="#ffffff"
     id="circle786" />
  <path
     d="m 799.83164,542.96784 h -35.08657 v -2.528 a 0.50121,0.50121 0 0 0 -0.5012,-0.50123 h -12.02974 a 0.50122,0.50122 0 0 0 -0.50127,0.5012 v 2.528 h -7.51843 v -2.528 a 0.50122,0.50122 0 0 0 -0.50123,-0.50123 h -12.02969 a 0.50122,0.50122 0 0 0 -0.50123,0.50123 v 0 2.528 h -7.51854 v -2.528 a 0.50122,0.50122 0 0 0 -0.50123,-0.50123 h -12.02969 a 0.50122,0.50122 0 0 0 -0.50123,0.50123 v 0 2.528 h -7.51853 v -2.528 a 0.50122,0.50122 0 0 0 -0.50123,-0.50123 h -12.02968 a 0.50121,0.50121 0 0 0 -0.50123,0.5012 v 2.528 h -7.51853 v -2.528 a 0.50122,0.50122 0 0 0 -0.50123,-0.50123 h -12.02965 a 0.50122,0.50122 0 0 0 -0.50123,0.50123 v 0 2.528 h -7.51856 v -2.528 a 0.50123,0.50123 0 0 0 -0.50124,-0.50123 h -12.0297 a 0.50122,0.50122 0 0 0 -0.50123,0.50123 v 0 2.528 h -7.51853 v -2.528 a 0.50123,0.50123 0 0 0 -0.50124,-0.50123 h -94.23242 a 0.50122,0.50122 0 0 0 -0.50123,0.50123 v 0 2.528 h -7.51857 v -2.528 a 0.50122,0.50122 0 0 0 -0.50123,-0.50123 h -12.02964 a 0.50122,0.50122 0 0 0 -0.50123,0.50123 v 0 2.528 h -7.51857 v -2.528 a 0.50121,0.50121 0 0 0 -0.5012,-0.50123 h -12.02971 a 0.50122,0.50122 0 0 0 -0.50123,0.50123 v 0 2.528 h -7.51856 v -2.528 a 0.50123,0.50123 0 0 0 -0.50124,-0.50123 h -12.02967 a 0.50122,0.50122 0 0 0 -0.50123,0.50123 v 0 2.528 h -7.51854 v -2.528 a 0.50123,0.50123 0 0 0 -0.50124,-0.50123 h -12.02966 a 0.50122,0.50122 0 0 0 -0.50123,0.50123 v 0 2.528 h -7.51857 v -2.528 a 0.50122,0.50122 0 0 0 -0.50123,-0.50123 H 443.9539 a 0.50123,0.50123 0 0 0 -0.50123,0.5012 v 2.528 h -7.51855 v -2.528 a 0.50122,0.50122 0 0 0 -0.50121,-0.50123 h -12.02968 a 0.50123,0.50123 0 0 0 -0.50123,0.50123 v 0 2.528 h -23.05689 a 12.02967,12.02967 0 0 0 -12.02966,12.02975 v 5.43953 a 12.02967,12.02967 0 0 0 12.02966,12.02964 h 399.98653 a 12.02968,12.02968 0 0 0 12.02968,-12.02964 v -5.43953 a 12.02967,12.02967 0 0 0 -12.02968,-12.02966 z"
     fill="#3f3d56"
     id="path788" />
  <rect
     x="560.33795"
     y="363.16058"
     width="116.25931"
     height="4.3199801"
     fill="#cbcbcb"
     id="rect790" />
  <rect
     x="560.33795"
     y="376.84052"
     width="116.25931"
     height="4.3199801"
     fill="#cbcbcb"
     id="rect792" />
  <rect
     x="560.33795"
     y="390.52045"
     width="116.25931"
     height="4.3199801"
     fill="#cbcbcb"
     id="rect794" />
  <rect
     x="523.47119"
     y="365.83038"
     width="26.3402"
     height="26.3402"
     fill="#cbcbcb"
     id="rect796" />
  <circle
     cx="596.17786"
     cy="462.77841"
     r="46.095348"
     fill="#00a0f1"
     id="circle798"
     style="fill:#5ec418;fill-opacity:1" />
  <polygon
     points="613.327,362.548 603.654,362.548 603.654,376.999 588.694,376.999 588.694,362.58 579.029,362.58 596.133,327.821 "
     fill="#ffffff"
     id="polygon800"
     transform="translate(0,107.0755)" />
  <path
     d="m 352.8521,296.09202 a 43.78818,43.78818 0 0 1 25.50529,-14.65517 l -4.41511,-3.7089 4.7219,-0.4091 6.04278,5.07922 -5.07922,6.04282 -4.7219,0.40911 3.40338,-4.04663 a 40.62894,40.62894 0 0 0 9.379,80.45317 l 0.1184,3.2904 a 43.92572,43.92572 0 0 1 -34.95448,-72.45492 z"
     fill="#e5e5e5"
     id="path802" />
  <path
     d="m 849.97161,326.22843 a 43.92573,43.92573 0 0 1 -45.4761,42.31851 l 0.1184,-3.2904 a 40.62894,40.62894 0 0 0 9.379,-80.45317 l 3.40337,4.04663 -4.7219,-0.40911 -5.07922,-6.04282 6.04278,-5.07922 4.7219,0.4091 -4.41511,3.7089 a 43.92126,43.92126 0 0 1 36.02698,44.79158 z"
     fill="#e5e5e5"
     id="path804" />
  <path
     d="M 859.15101,573.0755 H 333.15102 a 1,1 0 0 1 0,-2 h 525.99999 a 1,1 0 0 1 0,2 z"
     fill="#cbcbcb"
     id="path806" />
</svg>
