<?xml version="1.0" encoding="UTF-8" standalone="no"?>
<!-- Created with Inkscape (http://www.inkscape.org/) -->

<svg
   width="135.46666mm"
   height="135.46666mm"
   viewBox="0 0 135.46666 135.46666"
   version="1.1"
   id="svg3894"
   sodipodi:docname="gridscore-next-monochrome.svg"
   inkscape:version="1.2.2 (732a01da63, 2022-12-09)"
   xmlns:inkscape="http://www.inkscape.org/namespaces/inkscape"
   xmlns:sodipodi="http://sodipodi.sourceforge.net/DTD/sodipodi-0.dtd"
   xmlns="http://www.w3.org/2000/svg"
   xmlns:svg="http://www.w3.org/2000/svg">
  <sodipodi:namedview
     id="namedview3896"
     pagecolor="#ffffff"
     bordercolor="#666666"
     borderopacity="1.0"
     inkscape:showpageshadow="2"
     inkscape:pageopacity="0.0"
     inkscape:pagecheckerboard="0"
     inkscape:deskcolor="#d1d1d1"
     inkscape:document-units="mm"
     showgrid="false"
     inkscape:zoom="1"
     inkscape:cx="109.5"
     inkscape:cy="280"
     inkscape:window-width="2560"
     inkscape:window-height="1377"
     inkscape:window-x="1912"
     inkscape:window-y="-8"
     inkscape:window-maximized="1"
     inkscape:current-layer="layer1">
    <inkscape:grid
       type="xygrid"
       id="grid8223" />
  </sodipodi:namedview>
  <defs
     id="defs3891" />
  <g
     inkscape:label="Layer 1"
     inkscape:groupmode="layer"
     id="layer1"
     transform="translate(29.188719,-8.3234491)">
    <rect
       style="fill:#ffffff;fill-opacity:1;stroke:none;stroke-width:0.794;stroke-linecap:round;stroke-linejoin:bevel;stroke-dasharray:none"
       id="rect14633"
       width="135.46666"
       height="135.46666"
       x="-29.188719"
       y="8.3234491"
       ry="0" />
    <path
       id="circle13511"
       style="fill:#000000;fill-opacity:1;stroke-width:0.457618;stroke-linecap:round;stroke-linejoin:round"
       inkscape:transform-center-y="-67.73333"
       d="M 22.11211 48.093729 A 28.592052 28.592052 0 0 0 -1.5392058 39.429528 A 28.592052 28.592052 0 0 0 -29.493199 16.781939 A 28.592052 28.592052 0 0 0 -57.44801 39.42986 A 28.592052 28.592052 0 0 0 -87.625279 59.017251 A 28.592052 28.592052 0 0 0 -74.724459 92.60198 A 28.592052 28.592052 0 0 0 -65.421005 127.35545 A 28.592052 28.592052 0 0 0 -29.485265 125.47211 A 28.592052 28.592052 0 0 0 6.4340007 127.35533 A 28.592052 28.592052 0 0 0 15.752403 92.60653 A 28.592052 28.592052 0 0 0 28.638324 59.017238 A 28.592052 28.592052 0 0 0 22.11211 48.093729 z M -26.499452 73.80841 A 28.592052 28.592052 0 0 0 -25.7471 76.688257 A 28.592052 28.592052 0 0 0 -24.655485 79.477371 A 28.592052 28.592052 0 0 0 -27.17809 81.092676 A 28.592052 28.592052 0 0 0 -29.493404 82.992495 A 28.592052 28.592052 0 0 0 -31.809096 81.092661 A 28.592052 28.592052 0 0 0 -34.314829 79.486509 A 28.592052 28.592052 0 0 0 -33.239999 76.688408 A 28.592052 28.592052 0 0 0 -32.483297 73.789783 A 28.592052 28.592052 0 0 0 -29.493274 73.966295 A 28.592052 28.592052 0 0 0 -26.499452 73.80841 z "
       transform="rotate(-46.840509)" />
  </g>
</svg>
