<?xml version="1.0" encoding="UTF-8" standalone="no"?>
<!-- Created with Inkscape (http://www.inkscape.org/) -->

<svg
   width="512"
   height="512"
   viewBox="0 0 512 512"
   version="1.1"
   id="svg1940"
   inkscape:version="1.2.2 (732a01da63, 2022-12-09)"
   sodipodi:docname="gridscore-next-prototype.svg"
   xmlns:inkscape="http://www.inkscape.org/namespaces/inkscape"
   xmlns:sodipodi="http://sodipodi.sourceforge.net/DTD/sodipodi-0.dtd"
   xmlns="http://www.w3.org/2000/svg"
   xmlns:svg="http://www.w3.org/2000/svg">
  <sodipodi:namedview
     id="namedview1942"
     pagecolor="#ffffff"
     bordercolor="#666666"
     borderopacity="1.0"
     inkscape:showpageshadow="2"
     inkscape:pageopacity="0.0"
     inkscape:pagecheckerboard="0"
     inkscape:deskcolor="#d1d1d1"
     inkscape:document-units="mm"
     showgrid="false"
     inkscape:zoom="0.66331437"
     inkscape:cx="1276.1671"
     inkscape:cy="399.50891"
     inkscape:window-width="3440"
     inkscape:window-height="1377"
     inkscape:window-x="-8"
     inkscape:window-y="-8"
     inkscape:window-maximized="1"
     inkscape:current-layer="layer1" />
  <defs
     id="defs1937">
    <clipPath
       clipPathUnits="userSpaceOnUse"
       id="clipPath21759">
      <rect
         style="fill:#fff4f9;fill-opacity:1;stroke-width:3.00094;stroke-linecap:round;stroke-linejoin:round"
         id="rect21761"
         width="512"
         height="512"
         x="67.306038"
         y="-93.07296"
         transform="rotate(18.254614)" />
    </clipPath>
  </defs>
  <g
     inkscape:label="Layer 1"
     inkscape:groupmode="layer"
     id="layer1">
    <rect
       style="fill:#1f5080;fill-opacity:1;stroke-width:3.00094;stroke-linecap:round;stroke-linejoin:round"
       id="rect21756"
       width="512"
       height="512"
       x="0"
       y="0"
       ry="0" />
    <g
       id="g19552"
       transform="rotate(-18.254614,255.9999,255.99999)"
       clip-path="url(#clipPath21759)">
      <rect
         style="fill:#325d88;stroke-width:3.00094;stroke-linecap:round;stroke-linejoin:round"
         id="rect19430"
         width="512"
         height="512"
         x="0"
         y="0" />
      <circle
         style="mix-blend-mode:normal;fill:#910080;fill-opacity:1;stroke:none;stroke-width:9.22953;stroke-linecap:round;stroke-linejoin:bevel"
         id="circle1048-1-6"
         cx="116.53225"
         cy="157.55232"
         r="196.8954" />
      <circle
         r="196.8954"
         cy="116.53245"
         cx="354.44766"
         id="circle1050-6-3"
         style="mix-blend-mode:normal;fill:#ff7c00;fill-opacity:1;stroke:none;stroke-width:9.22953;stroke-linecap:round;stroke-linejoin:bevel" />
      <circle
         r="196.8954"
         cy="354.44775"
         cx="395.46756"
         id="circle1052-7-7"
         style="mix-blend-mode:normal;fill:#00a0f1;fill-opacity:1;stroke:none;stroke-width:9.22953;stroke-linecap:round;stroke-linejoin:bevel" />
      <circle
         style="mix-blend-mode:normal;fill:#5ec418;fill-opacity:1;stroke:none;stroke-width:9.22953;stroke-linecap:round;stroke-linejoin:bevel"
         id="circle1054-0-3"
         cx="157.55215"
         cy="395.46753"
         r="196.8954" />
      <path
         d="M 209.06102,-16.245407 A 196.89542,196.89542 0 0 0 157.55208,116.53259 196.89542,196.89542 0 0 0 261.91996,290.33105 196.89542,196.89542 0 0 0 313.42874,157.55308 196.89542,196.89542 0 0 0 209.06102,-16.245407 Z"
         style="mix-blend-mode:normal;fill:#ff7c80;fill-opacity:1;stroke:none;stroke-width:9.22953;stroke-linecap:round;stroke-linejoin:bevel"
         id="path1084" />
      <path
         d="M 250.0815,221.66897 A 196.89542,196.89542 0 0 0 198.57272,354.44695 196.89542,196.89542 0 0 0 302.94043,528.24545 196.89542,196.89542 0 0 0 354.44601,395.46747 196.89542,196.89542 0 0 0 250.0815,221.66897 Z"
         style="mix-blend-mode:normal;fill:#5ee9f2;fill-opacity:1;stroke:none;stroke-width:9.22953;stroke-linecap:round;stroke-linejoin:bevel"
         id="path1086" />
      <path
         d="m 395.28586,157.55308 a 196.89542,196.89542 0 0 0 -173.61779,104.3645 196.89542,196.89542 0 0 0 132.77794,51.50888 196.89542,196.89542 0 0 0 173.80178,-104.36452 196.89542,196.89542 0 0 0 -132.7813,-51.50886 196.89542,196.89542 0 0 0 -0.18046,0 z"
         style="mix-blend-mode:normal;fill:#ffcef1;fill-opacity:1;stroke:none;stroke-width:9.22953;stroke-linecap:round;stroke-linejoin:bevel"
         id="path1088" />
      <path
         d="M 157.37145,198.57359 A 196.89542,196.89542 0 0 0 -16.24634,302.9381 196.89542,196.89542 0 0 0 116.5316,354.44697 196.89542,196.89542 0 0 0 290.33002,250.07918 196.89542,196.89542 0 0 0 157.55208,198.57359 a 196.89542,196.89542 0 0 0 -0.18046,0 z"
         style="mix-blend-mode:normal;fill:#bac48c;fill-opacity:1;stroke:none;stroke-width:9.22953;stroke-linecap:round;stroke-linejoin:bevel"
         id="path1090" />
      <path
         id="path1092"
         style="mix-blend-mode:normal;fill:#ffe18c;fill-opacity:1;stroke:none;stroke-width:9.22953;stroke-linecap:round;stroke-linejoin:bevel"
         d="m 175.85493,199.4244 a 196.89542,196.89542 0 0 0 86.06166,90.90665 196.89542,196.89542 0 0 0 0.11437,-0.12815 196.89542,196.89542 0 0 0 3.05165,-3.42932 196.89542,196.89542 0 0 0 0.89002,-1.02487 196.89542,196.89542 0 0 0 0.11268,-0.13135 196.89542,196.89542 0 0 0 0.88026,-1.0347 196.89542,196.89542 0 0 0 0.10764,-0.13135 196.89542,196.89542 0 0 0 0.98218,-1.17596 196.89542,196.89542 0 0 0 1.93476,-2.36833 196.89542,196.89542 0 0 0 4.67746,-6.05716 196.89542,196.89542 0 0 0 1.80341,-2.47016 196.89542,196.89542 0 0 0 1.6687,-2.3585 196.89542,196.89542 0 0 0 0.0992,-0.14127 196.89542,196.89542 0 0 0 0.12782,-0.18396 196.89542,196.89542 0 0 0 2.35185,-3.47202 196.89542,196.89542 0 0 0 0.0959,-0.14447 196.89542,196.89542 0 0 0 0.74554,-1.13653 196.89542,196.89542 0 0 0 0.0925,-0.14447 196.89542,196.89542 0 0 0 0.82796,-1.28763 196.89542,196.89542 0 0 0 1.62598,-2.5917 196.89542,196.89542 0 0 0 2.36497,-3.93519 196.89542,196.89542 0 0 0 0.68315,-1.17268 196.89542,196.89542 0 0 0 0.0858,-0.15103 196.89542,196.89542 0 0 0 1.50439,-2.66396 196.89542,196.89542 0 0 0 0.65372,-1.18911 196.89542,196.89542 0 0 0 0.0824,-0.15103 196.89542,196.89542 0 0 0 0.0437,-0.0821 196.89542,196.89542 0 0 0 0.80474,-1.49458 196.89542,196.89542 0 0 0 -114.47508,-50.65478 z" />
      <path
         id="path1097"
         style="mix-blend-mode:normal;fill:#ffcef8;fill-opacity:1;stroke:none;stroke-width:9.22953;stroke-linecap:round;stroke-linejoin:bevel"
         d="m 312.57471,175.8527 a 196.89542,196.89542 0 0 0 -90.90664,86.06488 196.89542,196.89542 0 0 0 0.4958,0.45004 196.89542,196.89542 0 0 0 0.76859,0.69309 196.89542,196.89542 0 0 0 1.01178,0.90332 196.89542,196.89542 0 0 0 0.13118,0.11503 196.89542,196.89542 0 0 0 1.04458,0.91646 196.89542,196.89542 0 0 0 0.10427,0.092 196.89542,196.89542 0 0 0 1.02473,0.88689 196.89542,196.89542 0 0 0 1.16617,0.99202 196.89542,196.89542 0 0 0 0.83099,0.69637 196.89542,196.89542 0 0 0 0.41709,0.34822 196.89542,196.89542 0 0 0 0.0572,0.0496 196.89542,196.89542 0 0 0 1.04457,0.86062 196.89542,196.89542 0 0 0 0.96906,0.78835 196.89542,196.89542 0 0 0 0.28221,0.22665 196.89542,196.89542 0 0 0 0.40734,0.3252 196.89542,196.89542 0 0 0 0.72604,0.58144 196.89542,196.89542 0 0 0 0.13791,0.10847 196.89542,196.89542 0 0 0 1.20216,0.94271 196.89542,196.89542 0 0 0 1.07417,0.83105 196.89542,196.89542 0 0 0 0.13791,0.10512 196.89542,196.89542 0 0 0 1.07754,0.82121 196.89542,196.89542 0 0 0 0.14127,0.10511 196.89542,196.89542 0 0 0 1.14313,0.85405 196.89542,196.89542 0 0 0 0.37438,0.27918 196.89542,196.89542 0 0 0 0.79818,0.58796 196.89542,196.89542 0 0 0 0.14128,0.10175 196.89542,196.89542 0 0 0 1.13976,0.82448 196.89542,196.89542 0 0 0 0.51565,0.36791 196.89542,196.89542 0 0 0 0.68971,0.49275 196.89542,196.89542 0 0 0 0.14127,0.0986 196.89542,196.89542 0 0 0 1.11017,0.77849 196.89542,196.89542 0 0 0 1.07098,0.74236 196.89542,196.89542 0 0 0 0.28221,0.1905 196.89542,196.89542 0 0 0 0.21998,0.15102 196.89542,196.89542 0 0 0 0.95258,0.6471 196.89542,196.89542 0 0 0 0.14463,0.0954 196.89542,196.89542 0 0 0 1.12665,0.75222 196.89542,196.89542 0 0 0 1.28104,0.84091 196.89542,196.89542 0 0 0 0.14464,0.0952 196.89542,196.89542 0 0 0 1.13976,0.73253 196.89542,196.89542 0 0 0 0.63068,0.40071 196.89542,196.89542 0 0 0 0.79483,0.50584 196.89542,196.89542 0 0 0 0.0168,0.007 196.89542,196.89542 0 0 0 1.15288,0.7161 196.89542,196.89542 0 0 0 0.59435,0.3646 196.89542,196.89542 0 0 0 0.70956,0.43688 196.89542,196.89542 0 0 0 0.148,0.0886 196.89542,196.89542 0 0 0 1.16264,0.69966 196.89542,196.89542 0 0 0 0.15136,0.0886 196.89542,196.89542 0 0 0 1.22521,0.72264 196.89542,196.89542 0 0 0 0.0925,0.056 196.89542,196.89542 0 0 0 1.17273,0.67994 196.89542,196.89542 0 0 0 0.74235,0.42379 196.89542,196.89542 0 0 0 0.58477,0.33505 196.89542,196.89542 0 0 0 0.15472,0.0854 196.89542,196.89542 0 0 0 1.18249,0.66353 196.89542,196.89542 0 0 0 0.15136,0.0854 196.89542,196.89542 0 0 0 1.18904,0.65039 196.89542,196.89542 0 0 0 1.10697,0.60113 196.89542,196.89542 0 0 0 0.36092,0.1938 196.89542,196.89542 0 0 0 0.032,0.0168 196.89542,196.89542 0 0 0 0.22704,0.1216 196.89542,196.89542 0 0 0 50.65475,-114.47835 z" />
      <path
         id="path1102"
         style="mix-blend-mode:normal;fill:#fff4f2;fill-opacity:1;stroke:none;stroke-width:9.22953;stroke-linecap:round;stroke-linejoin:bevel"
         d="m 250.0815,221.66897 a 196.89542,196.89542 0 0 0 -0.95258,1.05117 196.89542,196.89542 0 0 0 -0.111,0.12462 196.89542,196.89542 0 0 0 -0.20031,0.21994 196.89542,196.89542 0 0 0 -0.78171,0.88031 196.89542,196.89542 0 0 0 -2.01027,2.30593 196.89542,196.89542 0 0 0 -0.9921,1.16609 196.89542,196.89542 0 0 0 -0.93274,1.11683 196.89542,196.89542 0 0 0 -0.0959,0.11503 196.89542,196.89542 0 0 0 -0.35789,0.43035 196.89542,196.89542 0 0 0 -0.79163,0.96248 196.89542,196.89542 0 0 0 0,0.003 196.89542,196.89542 0 0 0 -0.73899,0.91318 196.89542,196.89542 0 0 0 -0.22318,0.27587 196.89542,196.89542 0 0 0 -0.7326,0.91978 196.89542,196.89542 0 0 0 -0.69627,0.88361 196.89542,196.89542 0 0 0 -0.37437,0.47927 196.89542,196.89542 0 0 0 -0.0925,0.11823 196.89542,196.89542 0 0 0 -0.71948,0.93289 196.89542,196.89542 0 0 0 -0.85402,1.12007 196.89542,196.89542 0 0 0 -0.10932,0.1443 196.89542,196.89542 0 0 0 -0.17727,0.23328 196.89542,196.89542 0 0 0 -0.70299,0.94273 196.89542,196.89542 0 0 0 -0.88027,1.1924 196.89542,196.89542 0 0 0 -0.0387,0.0496 196.89542,196.89542 0 0 0 -0.89018,1.22851 196.89542,196.89542 0 0 0 -0.89019,1.24821 196.89542,196.89542 0 0 0 -0.87706,1.25151 196.89542,196.89542 0 0 0 -0.77532,1.11684 196.89542,196.89542 0 0 0 -0.14464,0.21019 196.89542,196.89542 0 0 0 -0.65691,0.97231 196.89542,196.89542 0 0 0 -0.19711,0.28909 196.89542,196.89542 0 0 0 -0.15473,0.2299 196.89542,196.89542 0 0 0 -0.65036,0.97889 196.89542,196.89542 0 0 0 -0.8409,1.28105 196.89542,196.89542 0 0 0 -0.82779,1.28437 196.89542,196.89542 0 0 0 -0.74892,1.17922 196.89542,196.89542 0 0 0 -0.0992,0.15439 196.89542,196.89542 0 0 0 -0.78171,1.25807 196.89542,196.89542 0 0 0 -0.71612,1.1661 196.89542,196.89542 0 0 0 -0.12109,0.20035 196.89542,196.89542 0 0 0 -0.148,0.23976 196.89542,196.89542 0 0 0 -0.60461,1.00845 196.89542,196.89542 0 0 0 -0.77851,1.3172 196.89542,196.89542 0 0 0 -0.76859,1.32377 196.89542,196.89542 0 0 0 -0.75884,1.32707 196.89542,196.89542 0 0 0 -0.74891,1.33689 196.89542,196.89542 0 0 0 -0.73579,1.34021 196.89542,196.89542 0 0 0 -0.68972,1.2745 196.89542,196.89542 0 0 0 -0.0572,0.1083 196.89542,196.89542 0 0 0 -0.148,0.27594 196.89542,196.89542 0 0 0 -0.0319,0.0689 196.89542,196.89542 0 0 0 114.47508,50.65151 196.89542,196.89542 0 0 0 -86.06654,-90.90344 z" />
      <path
         id="path1107"
         style="mix-blend-mode:normal;fill:#bae9f9;fill-opacity:1;stroke:none;stroke-width:9.22953;stroke-linecap:round;stroke-linejoin:bevel"
         d="m 250.0815,221.66897 a 196.89542,196.89542 0 0 0 -50.65476,114.47512 196.89542,196.89542 0 0 0 90.90344,-86.06163 196.89542,196.89542 0 0 0 0,-0.003 196.89542,196.89542 0 0 0 -0.12781,-0.11504 196.89542,196.89542 0 0 0 -1.00506,-0.91317 196.89542,196.89542 0 0 0 -0.12781,-0.11504 196.89542,196.89542 0 0 0 -1.01498,-0.90332 196.89542,196.89542 0 0 0 -0.12782,-0.11167 196.89542,196.89542 0 0 0 -1.0217,-0.89676 196.89542,196.89542 0 0 0 -0.12782,-0.11167 196.89542,196.89542 0 0 0 -1.02826,-0.89019 196.89542,196.89542 0 0 0 -0.13118,-0.11167 196.89542,196.89542 0 0 0 -1.03465,-0.88031 196.89542,196.89542 0 0 0 -0.13118,-0.10831 196.89542,196.89542 0 0 0 -1.04138,-0.87375 196.89542,196.89542 0 0 0 -0.13119,-0.10831 196.89542,196.89542 0 0 0 -1.05113,-0.8639 196.89542,196.89542 0 0 0 -0.13118,-0.10831 196.89542,196.89542 0 0 0 -1.05433,-0.85732 196.89542,196.89542 0 0 0 -0.13455,-0.10831 196.89542,196.89542 0 0 0 -1.06105,-0.84748 196.89542,196.89542 0 0 0 -0.13455,-0.10512 196.89542,196.89542 0 0 0 -1.20552,-0.94602 196.89542,196.89542 0 0 0 -1.07418,-0.83105 196.89542,196.89542 0 0 0 -0.13454,-0.10192 196.89542,196.89542 0 0 0 -1.08393,-0.82448 196.89542,196.89542 0 0 0 -0.13455,-0.10191 196.89542,196.89542 0 0 0 -1.08712,-0.81461 196.89542,196.89542 0 0 0 -0.13791,-0.10191 196.89542,196.89542 0 0 0 -2.33218,-1.70484 196.89542,196.89542 0 0 0 -0.14127,-0.10175 196.89542,196.89542 0 0 0 -1.10697,-0.78834 196.89542,196.89542 0 0 0 -0.13791,-0.0985 196.89542,196.89542 0 0 0 -1.11353,-0.77848 196.89542,196.89542 0 0 0 -0.14127,-0.0986 196.89542,196.89542 0 0 0 -0.18365,-0.1285 196.89542,196.89542 0 0 0 -1.07737,-0.73905 196.89542,196.89542 0 0 0 -0.56829,-0.38457 196.89542,196.89542 0 0 0 -0.555,-0.37758 196.89542,196.89542 0 0 0 -1.07401,-0.71936 196.89542,196.89542 0 0 0 -0.1971,-0.13152 196.89542,196.89542 0 0 0 -0.14464,-0.0954 196.89542,196.89542 0 0 0 -1.13657,-0.7456 196.89542,196.89542 0 0 0 -0.14464,-0.0922 196.89542,196.89542 0 0 0 -1.13976,-0.73583 196.89542,196.89542 0 0 0 -0.14464,-0.0922 196.89542,196.89542 0 0 0 -1.14969,-0.72922 196.89542,196.89542 0 0 0 -0.14463,-0.0883 196.89542,196.89542 0 0 0 -0.52238,-0.32544 196.89542,196.89542 0 0 0 -0.63068,-0.3941 196.89542,196.89542 0 0 0 -1.30391,-0.79819 196.89542,196.89542 0 0 0 -0.68332,-0.41381 196.89542,196.89542 0 0 0 -0.77532,-0.46338 196.89542,196.89542 0 0 0 -1.16936,-0.69311 196.89542,196.89542 0 0 0 -0.148,-0.0851 196.89542,196.89542 0 0 0 -1.17593,-0.68318 196.89542,196.89542 0 0 0 -0.148,-0.0853 196.89542,196.89542 0 0 0 -1.18248,-0.67333 196.89542,196.89542 0 0 0 -0.148,-0.0851 196.89542,196.89542 0 0 0 -1.18585,-0.66355 196.89542,196.89542 0 0 0 -0.15136,-0.0821 196.89542,196.89542 0 0 0 -1.18904,-0.65364 196.89542,196.89542 0 0 0 -0.15137,-0.0821 196.89542,196.89542 0 0 0 -0.12445,-0.0654 196.89542,196.89542 0 0 0 -1.22201,-0.66025 196.89542,196.89542 0 0 0 -0.15809,-0.0851 196.89542,196.89542 0 0 0 -0.069,-0.0382 z" />
      <path
         id="path1112"
         style="mix-blend-mode:normal;fill:#fff4f9;fill-opacity:1;stroke:none;stroke-width:9.22953;stroke-linecap:round;stroke-linejoin:bevel"
         d="m 250.0815,221.66897 a 196.89542,196.89542 0 0 0 -0.032,0.0318 196.89542,196.89542 0 0 0 -0.92298,1.0216 196.89542,196.89542 0 0 0 -0.0757,0.0821 196.89542,196.89542 0 0 0 -0.0387,0.0444 196.89542,196.89542 0 0 0 -0.0891,0.0986 196.89542,196.89542 0 0 0 -0.11268,0.12143 196.89542,196.89542 0 0 0 -2.79215,3.18623 196.89542,196.89542 0 0 0 -0.0319,0.0318 196.89542,196.89542 0 0 0 -0.96234,1.13323 196.89542,196.89542 0 0 0 -0.9329,1.11684 196.89542,196.89542 0 0 0 -0.0505,0.0572 196.89542,196.89542 0 0 0 -0.0437,0.0572 196.89542,196.89542 0 0 0 -0.30576,0.36486 196.89542,196.89542 0 0 0 -0.0505,0.0654 196.89542,196.89542 0 0 0 -0.20031,0.24282 196.89542,196.89542 0 0 0 -0.43659,0.53204 196.89542,196.89542 0 0 0 -0.15473,0.18751 196.89542,196.89542 0 0 0 0,0.003 196.89542,196.89542 0 0 0 -0.73916,0.91318 196.89542,196.89542 0 0 0 -0.0252,0.0318 196.89542,196.89542 0 0 0 -0.19711,0.24281 196.89542,196.89542 0 0 0 -0.73243,0.91978 196.89542,196.89542 0 0 0 -0.27901,0.3547 196.89542,196.89542 0 0 0 -0.41709,0.52886 196.89542,196.89542 0 0 0 -0.13791,0.17733 196.89542,196.89542 0 0 0 -0.111,0.1411 196.89542,196.89542 0 0 0 -0.0252,0.0318 196.89542,196.89542 0 0 0 -0.0505,0.0693 196.89542,196.89542 0 0 0 -0.0437,0.0572 196.89542,196.89542 0 0 0 -0.0572,0.0757 196.89542,196.89542 0 0 0 -0.0319,0.0444 196.89542,196.89542 0 0 0 -0.15137,0.19388 196.89542,196.89542 0 0 0 -0.56828,0.73913 196.89542,196.89542 0 0 0 -0.0252,0.0318 196.89542,196.89542 0 0 0 -0.82779,1.08721 196.89542,196.89542 0 0 0 -0.0185,0.0254 196.89542,196.89542 0 0 0 -0.0505,0.0693 196.89542,196.89542 0 0 0 -0.0252,0.0318 196.89542,196.89542 0 0 0 -0.0168,0.019 196.89542,196.89542 0 0 0 -0.0437,0.0572 196.89542,196.89542 0 0 0 -0.1026,0.13152 196.89542,196.89542 0 0 0 -0.0319,0.0446 196.89542,196.89542 0 0 0 -0.70283,0.94272 196.89542,196.89542 0 0 0 -0.0252,0.0331 196.89542,196.89542 0 0 0 -0.85402,1.15953 196.89542,196.89542 0 0 0 -0.032,0.0394 196.89542,196.89542 0 0 0 0,0.0101 196.89542,196.89542 0 0 0 -0.89018,1.2285 196.89542,196.89542 0 0 0 -0.88699,1.24493 196.89542,196.89542 0 0 0 -0.88026,1.25478 196.89542,196.89542 0 0 0 -0.77515,1.11684 196.89542,196.89542 0 0 0 -0.0959,0.14128 196.89542,196.89542 0 0 0 -0.0387,0.0496 196.89542,196.89542 0 0 0 -0.0168,0.0197 196.89542,196.89542 0 0 0 -0.65692,0.97229 196.89542,196.89542 0 0 0 -1.00186,1.49787 196.89542,196.89542 0 0 0 -0.66347,1.00844 196.89542,196.89542 0 0 0 -0.17744,0.26932 196.89542,196.89542 0 0 0 0,0.003 196.89542,196.89542 0 0 0 -0.0252,0.033 196.89542,196.89542 0 0 0 -0.80475,1.2515 196.89542,196.89542 0 0 0 -0.74891,1.17924 196.89542,196.89542 0 0 0 -0.0723,0.11504 196.89542,196.89542 0 0 0 -0.0252,0.0331 196.89542,196.89542 0 0 0 0,0.007 196.89542,196.89542 0 0 0 -0.78171,1.25806 196.89542,196.89542 0 0 0 -0.71611,1.16612 196.89542,196.89542 0 0 0 -0.0858,0.13791 196.89542,196.89542 0 0 0 -0.0252,0.0362 196.89542,196.89542 0 0 0 -0.0168,0.0261 196.89542,196.89542 0 0 0 -0.0572,0.0954 196.89542,196.89542 0 0 0 -0.0454,0.069 196.89542,196.89542 0 0 0 -0.0437,0.0755 196.89542,196.89542 0 0 0 -0.60461,1.00844 196.89542,196.89542 0 0 0 -0.0252,0.0363 196.89542,196.89542 0 0 0 -0.75547,1.28107 196.89542,196.89542 0 0 0 -0.0252,0.0362 196.89542,196.89542 0 0 0 -0.74571,1.28763 196.89542,196.89542 0 0 0 -0.0252,0.0362 196.89542,196.89542 0 0 0 -0.7358,1.29094 196.89542,196.89542 0 0 0 -0.74891,1.33361 196.89542,196.89542 0 0 0 -0.73579,1.34347 196.89542,196.89542 0 0 0 -0.68988,1.27451 196.89542,196.89542 0 0 0 -0.0387,0.0723 196.89542,196.89542 0 0 0 -0.0185,0.0362 196.89542,196.89542 0 0 0 -0.148,0.27594 196.89542,196.89542 0 0 0 -0.032,0.069 196.89542,196.89542 0 0 0 0.032,0.0261 196.89542,196.89542 0 0 0 0.46334,0.42047 196.89542,196.89542 0 0 0 0.0437,0.0426 196.89542,196.89542 0 0 0 0.72251,0.65039 196.89542,196.89542 0 0 0 1.01178,0.90332 196.89542,196.89542 0 0 0 0,0.003 196.89542,196.89542 0 0 0 0,0.003 196.89542,196.89542 0 0 0 0.0252,0.0229 196.89542,196.89542 0 0 0 0.0992,0.0854 196.89542,196.89542 0 0 0 1.02153,0.89674 196.89542,196.89542 0 0 0 0.0252,0.0197 196.89542,196.89542 0 0 0 0,0.007 196.89542,196.89542 0 0 0 0.0185,0.0168 196.89542,196.89542 0 0 0 0.0757,0.0658 196.89542,196.89542 0 0 0 0,0.003 196.89542,196.89542 0 0 0 1.0249,0.88689 196.89542,196.89542 0 0 0 0,0.003 196.89542,196.89542 0 0 0 0.0319,0.0261 196.89542,196.89542 0 0 0 1.13321,0.96246 196.89542,196.89542 0 0 0 0,0.003 196.89542,196.89542 0 0 0 0.0319,0.0261 196.89542,196.89542 0 0 0 0.79819,0.66682 196.89542,196.89542 0 0 0 0.34511,0.28904 196.89542,196.89542 0 0 0 0.032,0.0261 196.89542,196.89542 0 0 0 0.0437,0.0331 196.89542,196.89542 0 0 0 0.0252,0.0229 196.89542,196.89542 0 0 0 0.032,0.0261 196.89542,196.89542 0 0 0 0.95578,0.78835 196.89542,196.89542 0 0 0 0.0891,0.0723 196.89542,196.89542 0 0 0 0,0.003 196.89542,196.89542 0 0 0 0.64061,0.52231 196.89542,196.89542 0 0 0 0.32156,0.26276 196.89542,196.89542 0 0 0 0.10259,0.0821 196.89542,196.89542 0 0 0 0.12109,0.0986 196.89542,196.89542 0 0 0 0.0168,0.0101 196.89542,196.89542 0 0 0 0.0185,0.0168 196.89542,196.89542 0 0 0 0.0252,0.0197 196.89542,196.89542 0 0 0 0.4075,0.32519 196.89542,196.89542 0 0 0 0.12782,0.10192 196.89542,196.89542 0 0 0 0.59822,0.47959 196.89542,196.89542 0 0 0 0.0387,0.0261 196.89542,196.89542 0 0 0 0.10091,0.0821 196.89542,196.89542 0 0 0 0.72924,0.57158 196.89542,196.89542 0 0 0 0.37134,0.29233 196.89542,196.89542 0 0 0 0.10091,0.0789 196.89542,196.89542 0 0 0 1.07418,0.83105 196.89542,196.89542 0 0 0 0,0.003 196.89542,196.89542 0 0 0 0.0319,0.0229 196.89542,196.89542 0 0 0 0.10427,0.0789 196.89542,196.89542 0 0 0 0.25934,0.19711 196.89542,196.89542 0 0 0 0.41389,0.31534 196.89542,196.89542 0 0 0 0.40414,0.3088 196.89542,196.89542 0 0 0 0,0.003 196.89542,196.89542 0 0 0 0.032,0.0229 196.89542,196.89542 0 0 0 0.10427,0.0789 196.89542,196.89542 0 0 0 0.28608,0.21353 196.89542,196.89542 0 0 0 0.80138,0.60113 196.89542,196.89542 0 0 0 0.0572,0.0393 196.89542,196.89542 0 0 0 0.26253,0.19711 196.89542,196.89542 0 0 0 0.11269,0.0821 196.89542,196.89542 0 0 0 0.0572,0.0426 196.89542,196.89542 0 0 0 0.73899,0.54527 196.89542,196.89542 0 0 0 0,0.003 196.89542,196.89542 0 0 0 0.0319,0.0229 196.89542,196.89542 0 0 0 0.10427,0.0755 196.89542,196.89542 0 0 0 1.10378,0.79821 196.89542,196.89542 0 0 0 0.0319,0.0229 196.89542,196.89542 0 0 0 0,0.003 196.89542,196.89542 0 0 0 0.51548,0.36791 196.89542,196.89542 0 0 0 0.68971,0.49276 196.89542,196.89542 0 0 0 0,0.003 196.89542,196.89542 0 0 0 0.032,0.0229 196.89542,196.89542 0 0 0 0.10763,0.0723 196.89542,196.89542 0 0 0 1.11034,0.7785 196.89542,196.89542 0 0 0 0,0.003 196.89542,196.89542 0 0 0 0.24672,0.17079 196.89542,196.89542 0 0 0 0.50286,0.3482 196.89542,196.89542 0 0 0 0.31837,0.22007 196.89542,196.89542 0 0 0 0.0572,0.0393 196.89542,196.89542 0 0 0 0.22705,0.15103 196.89542,196.89542 0 0 0 0.21981,0.15102 196.89542,196.89542 0 0 0 0.24672,0.16751 196.89542,196.89542 0 0 0 0.2104,0.14447 196.89542,196.89542 0 0 0 0.4958,0.33505 196.89542,196.89542 0 0 0 0.0387,0.0229 196.89542,196.89542 0 0 0 0.10763,0.0723 196.89542,196.89542 0 0 0 1.12665,0.75223 196.89542,196.89542 0 0 0 0,0.003 196.89542,196.89542 0 0 0 0.17407,0.11504 196.89542,196.89542 0 0 0 1.10377,0.72266 196.89542,196.89542 0 0 0 0.0387,0.0229 196.89542,196.89542 0 0 0 0.98537,0.63726 196.89542,196.89542 0 0 0 0.26253,0.16751 196.89542,196.89542 0 0 0 0,0.003 196.89542,196.89542 0 0 0 0.032,0.0229 196.89542,196.89542 0 0 0 0.59418,0.37446 196.89542,196.89542 0 0 0 0.20737,0.13471 196.89542,196.89542 0 0 0 0.46015,0.28902 196.89542,196.89542 0 0 0 0.0319,0.0197 196.89542,196.89542 0 0 0 0.10764,0.069 196.89542,196.89542 0 0 0 0.42398,0.26277 196.89542,196.89542 0 0 0 0.72924,0.45328 196.89542,196.89542 0 0 0 0,0.003 196.89542,196.89542 0 0 0 0.59115,0.3613 196.89542,196.89542 0 0 0 0.15809,0.0985 196.89542,196.89542 0 0 0 0.55181,0.33837 196.89542,196.89542 0 0 0 0.14463,0.0886 196.89542,196.89542 0 0 0 1.16281,0.69967 196.89542,196.89542 0 0 0 0.0387,0.0229 196.89542,196.89542 0 0 0 0.11437,0.0658 196.89542,196.89542 0 0 0 1.22537,0.72264 196.89542,196.89542 0 0 0 0.0925,0.056 196.89542,196.89542 0 0 0 1.17256,0.67994 196.89542,196.89542 0 0 0 0,0.003 196.89542,196.89542 0 0 0 0.0319,0.0197 196.89542,196.89542 0 0 0 0.7062,0.40078 196.89542,196.89542 0 0 0 0.36798,0.21021 196.89542,196.89542 0 0 0 0.0437,0.0261 196.89542,196.89542 0 0 0 0.17407,0.0986 196.89542,196.89542 0 0 0 0,0.003 196.89542,196.89542 0 0 0 0.032,0.0197 196.89542,196.89542 0 0 0 0.11436,0.0622 196.89542,196.89542 0 0 0 0.26253,0.14783 196.89542,196.89542 0 0 0 0.91979,0.51571 196.89542,196.89542 0 0 0 1.01497,0.55841 196.89542,196.89542 0 0 0 0.32543,0.1774 196.89542,196.89542 0 0 0 0,0.003 196.89542,196.89542 0 0 0 0.032,0.0197 196.89542,196.89542 0 0 0 0.34141,0.18396 196.89542,196.89542 0 0 0 1.34999,0.72266 196.89542,196.89542 0 0 0 0.11436,-0.12479 196.89542,196.89542 0 0 0 1.0249,-1.13654 196.89542,196.89542 0 0 0 2.02659,-2.29279 196.89542,196.89542 0 0 0 0.30575,-0.35144 196.89542,196.89542 0 0 0 0.58494,-0.6734 196.89542,196.89542 0 0 0 0.0319,-0.0362 196.89542,196.89542 0 0 0 0.0824,-0.0954 196.89542,196.89542 0 0 0 0.98874,-1.1661 196.89542,196.89542 0 0 0 0.90011,-1.07741 196.89542,196.89542 0 0 0 0.0824,-0.0985 196.89542,196.89542 0 0 0 0.0858,-0.10512 196.89542,196.89542 0 0 0 0.79499,-0.96243 196.89542,196.89542 0 0 0 0.0757,-0.092 196.89542,196.89542 0 0 0 0.0185,-0.0229 196.89542,196.89542 0 0 0 0.88363,-1.08728 196.89542,196.89542 0 0 0 0.079,-0.0985 196.89542,196.89542 0 0 0 0.95258,-1.19567 196.89542,196.89542 0 0 0 1.78037,-2.27965 196.89542,196.89542 0 0 0 0.0252,-0.0362 196.89542,196.89542 0 0 0 0.0757,-0.0985 196.89542,196.89542 0 0 0 0.85083,-1.12009 196.89542,196.89542 0 0 0 0.0757,-0.0986 196.89542,196.89542 0 0 0 0.81467,-1.08724 196.89542,196.89542 0 0 0 0.0252,-0.0362 196.89542,196.89542 0 0 0 0.0757,-0.10192 196.89542,196.89542 0 0 0 0,-0.003 196.89542,196.89542 0 0 0 0.60462,-0.8212 196.89542,196.89542 0 0 0 0.30188,-0.41061 196.89542,196.89542 0 0 0 0.2104,-0.28904 196.89542,196.89542 0 0 0 0.61403,-0.84748 196.89542,196.89542 0 0 0 0.0723,-0.10175 196.89542,196.89542 0 0 0 0.8145,-1.1431 196.89542,196.89542 0 0 0 0.0723,-0.10191 196.89542,196.89542 0 0 0 0.5518,-0.78506 196.89542,196.89542 0 0 0 0.25614,-0.36462 196.89542,196.89542 0 0 0 0.0723,-0.10511 196.89542,196.89542 0 0 0 0.12782,-0.18396 196.89542,196.89542 0 0 0 0.667,-0.97229 196.89542,196.89542 0 0 0 0.57132,-0.84091 196.89542,196.89542 0 0 0 0.27918,-0.41387 196.89542,196.89542 0 0 0 0.0168,-0.0101 196.89542,196.89542 0 0 0 0.1971,-0.29234 196.89542,196.89542 0 0 0 0.12782,-0.19381 196.89542,196.89542 0 0 0 1.34024,-2.03 196.89542,196.89542 0 0 0 0.0252,-0.0362 196.89542,196.89542 0 0 0 0.069,-0.10848 196.89542,196.89542 0 0 0 0.75884,-1.17923 196.89542,196.89542 0 0 0 0.0689,-0.10831 196.89542,196.89542 0 0 0 1.56022,-2.4833 196.89542,196.89542 0 0 0 0.0656,-0.10831 196.89542,196.89542 0 0 0 0.7326,-1.19566 196.89542,196.89542 0 0 0 0.0656,-0.1083 196.89542,196.89542 0 0 0 0.0185,-0.0331 196.89542,196.89542 0 0 0 1.5471,-2.59827 196.89542,196.89542 0 0 0 0.68316,-1.17267 196.89542,196.89542 0 0 0 0.0252,-0.0394 196.89542,196.89542 0 0 0 0.0639,-0.11167 196.89542,196.89542 0 0 0 0.6734,-1.17924 196.89542,196.89542 0 0 0 0.0252,-0.0394 196.89542,196.89542 0 0 0 0.0639,-0.11168 196.89542,196.89542 0 0 0 0.13118,-0.23653 196.89542,196.89542 0 0 0 0.14127,-0.24961 196.89542,196.89542 0 0 0 0.39086,-0.69637 196.89542,196.89542 0 0 0 0.0185,-0.0394 196.89542,196.89542 0 0 0 0.0639,-0.11167 196.89542,196.89542 0 0 0 0.37118,-0.67668 196.89542,196.89542 0 0 0 0.30575,-0.55187 196.89542,196.89542 0 0 0 0.0572,-0.11167 196.89542,196.89542 0 0 0 0.0437,-0.0821 196.89542,196.89542 0 0 0 0.26254,-0.48283 196.89542,196.89542 0 0 0 0.54221,-1.00843 196.89542,196.89542 0 0 0 0,-0.003 196.89542,196.89542 0 0 0 -0.0319,-0.0299 196.89542,196.89542 0 0 0 -0.0959,-0.0854 196.89542,196.89542 0 0 0 -0.0656,-0.0622 196.89542,196.89542 0 0 0 -0.111,-0.10192 196.89542,196.89542 0 0 0 -0.31853,-0.28579 196.89542,196.89542 0 0 0 -0.54205,-0.48944 196.89542,196.89542 0 0 0 -1.11034,-0.99202 196.89542,196.89542 0 0 0 -0.0319,-0.0261 196.89542,196.89542 0 0 0 -0.0959,-0.0854 196.89542,196.89542 0 0 0 -1.02154,-0.89676 196.89542,196.89542 0 0 0 -0.0319,-0.0293 196.89542,196.89542 0 0 0 -0.0959,-0.0821 196.89542,196.89542 0 0 0 -0.0689,-0.0592 196.89542,196.89542 0 0 0 -0.95914,-0.83106 196.89542,196.89542 0 0 0 -0.0319,-0.0261 196.89542,196.89542 0 0 0 -0.0992,-0.0854 196.89542,196.89542 0 0 0 -1.03465,-0.88031 196.89542,196.89542 0 0 0 -0.032,-0.0261 196.89542,196.89542 0 0 0 -0.0656,-0.056 196.89542,196.89542 0 0 0 -0.0319,-0.0261 196.89542,196.89542 0 0 0 -0.26253,-0.22007 196.89542,196.89542 0 0 0 -0.77835,-0.65369 196.89542,196.89542 0 0 0 -0.0319,-0.0261 196.89542,196.89542 0 0 0 -0.0925,-0.0755 196.89542,196.89542 0 0 0 0,-0.007 196.89542,196.89542 0 0 0 -1.04794,-0.86391 196.89542,196.89542 0 0 0 -0.032,-0.0261 196.89542,196.89542 0 0 0 0,-0.003 196.89542,196.89542 0 0 0 -0.0992,-0.0789 196.89542,196.89542 0 0 0 -0.79163,-0.64381 196.89542,196.89542 0 0 0 -0.26253,-0.21351 196.89542,196.89542 0 0 0 -0.032,-0.0261 196.89542,196.89542 0 0 0 -0.10259,-0.0821 196.89542,196.89542 0 0 0 -1.06106,-0.84749 196.89542,196.89542 0 0 0 -0.0319,-0.0261 196.89542,196.89542 0 0 0 -0.10259,-0.0789 196.89542,196.89542 0 0 0 -0.5027,-0.39417 196.89542,196.89542 0 0 0 -0.56509,-0.44672 196.89542,196.89542 0 0 0 -0.0387,-0.0261 196.89542,196.89542 0 0 0 -0.0572,-0.0457 196.89542,196.89542 0 0 0 -0.0437,-0.0331 196.89542,196.89542 0 0 0 -1.074,-0.83105 196.89542,196.89542 0 0 0 -0.032,-0.0261 196.89542,196.89542 0 0 0 -0.10259,-0.0755 196.89542,196.89542 0 0 0 -1.08073,-0.82448 196.89542,196.89542 0 0 0 -0.032,-0.0261 196.89542,196.89542 0 0 0 -0.10259,-0.0755 196.89542,196.89542 0 0 0 -0.37117,-0.27916 196.89542,196.89542 0 0 0 -0.11773,-0.0886 196.89542,196.89542 0 0 0 -0.59822,-0.44673 196.89542,196.89542 0 0 0 -0.0387,-0.0261 196.89542,196.89542 0 0 0 -0.1009,-0.0755 196.89542,196.89542 0 0 0 -1.13002,-0.83102 196.89542,196.89542 0 0 0 -0.10259,-0.0757 196.89542,196.89542 0 0 0 -1.10041,-0.79817 196.89542,196.89542 0 0 0 -0.0387,-0.0254 196.89542,196.89542 0 0 0 -0.10427,-0.0757 196.89542,196.89542 0 0 0 -1.10714,-0.78833 196.89542,196.89542 0 0 0 -0.032,-0.0254 196.89542,196.89542 0 0 0 -0.10427,-0.0757 196.89542,196.89542 0 0 0 -1.11353,-0.77848 196.89542,196.89542 0 0 0 -0.0387,-0.0254 196.89542,196.89542 0 0 0 -0.10427,-0.0725 196.89542,196.89542 0 0 0 -0.0252,-0.019 196.89542,196.89542 0 0 0 -0.15809,-0.10815 196.89542,196.89542 0 0 0 -0.9329,-0.64378 196.89542,196.89542 0 0 0 -0.0387,-0.0254 196.89542,196.89542 0 0 0 -0.10764,-0.0725 196.89542,196.89542 0 0 0 -0.56829,-0.38456 196.89542,196.89542 0 0 0 -0.55499,-0.37757 196.89542,196.89542 0 0 0 -0.0387,-0.0254 196.89542,196.89542 0 0 0 -1.03801,-0.6931 196.89542,196.89542 0 0 0 -0.19711,-0.13152 196.89542,196.89542 0 0 0 -0.0387,-0.0254 196.89542,196.89542 0 0 0 -0.0723,-0.0444 196.89542,196.89542 0 0 0 -0.0387,-0.0254 196.89542,196.89542 0 0 0 -1.13657,-0.74562 196.89542,196.89542 0 0 0 -0.0387,-0.0254 196.89542,196.89542 0 0 0 -0.10932,-0.0693 196.89542,196.89542 0 0 0 -0.71276,-0.46019 196.89542,196.89542 0 0 0 -0.14127,-0.0922 196.89542,196.89542 0 0 0 -0.28607,-0.18369 196.89542,196.89542 0 0 0 -0.0387,-0.0254 196.89542,196.89542 0 0 0 -0.10763,-0.0686 196.89542,196.89542 0 0 0 -1.14969,-0.72921 196.89542,196.89542 0 0 0 -0.0387,-0.0254 196.89542,196.89542 0 0 0 -0.10764,-0.0654 196.89542,196.89542 0 0 0 -0.52237,-0.32545 196.89542,196.89542 0 0 0 -0.63068,-0.3941 196.89542,196.89542 0 0 0 -0.0387,-0.0254 196.89542,196.89542 0 0 0 -0.24673,-0.1512 196.89542,196.89542 0 0 0 -1.02153,-0.62421 196.89542,196.89542 0 0 0 -0.0387,-0.0254 196.89542,196.89542 0 0 0 -0.64716,-0.39092 196.89542,196.89542 0 0 0 -0.62732,-0.37757 196.89542,196.89542 0 0 0 -0.0387,-0.019 196.89542,196.89542 0 0 0 -0.11268,-0.0654 196.89542,196.89542 0 0 0 -0.18753,-0.11184 196.89542,196.89542 0 0 0 -0.98218,-0.58162 196.89542,196.89542 0 0 0 -0.0387,-0.019 196.89542,196.89542 0 0 0 -0.111,-0.0654 196.89542,196.89542 0 0 0 -1.17592,-0.6832 196.89542,196.89542 0 0 0 -0.0387,-0.019 196.89542,196.89542 0 0 0 -0.0572,-0.0318 196.89542,196.89542 0 0 0 -0.0504,-0.0318 196.89542,196.89542 0 0 0 -1.17929,-0.67335 196.89542,196.89542 0 0 0 -0.0387,-0.019 196.89542,196.89542 0 0 0 -1.29752,-0.7292 196.89542,196.89542 0 0 0 -0.0387,-0.019 196.89542,196.89542 0 0 0 -0.11437,-0.0636 196.89542,196.89542 0 0 0 -1.00505,-0.55173 196.89542,196.89542 0 0 0 -0.18365,-0.10175 196.89542,196.89542 0 0 0 -0.0387,-0.019 196.89542,196.89542 0 0 0 -0.11436,-0.0636 196.89542,196.89542 0 0 0 -0.12445,-0.0654 196.89542,196.89542 0 0 0 -1.22201,-0.66023 196.89542,196.89542 0 0 0 -0.0656,-0.0382 196.89542,196.89542 0 0 0 -0.0656,-0.0382 196.89542,196.89542 0 0 0 -0.0252,-0.0134 196.89542,196.89542 0 0 0 -0.069,-0.0382 z" />
    </g>
  </g>
</svg>
